STARTFONT 2.1
COMMENT
COMMENT Converted from OpenType font "SourceSansPro-Regular.otf" by "otf2bdf 3.0".
COMMENT
FONT -FreeType-Source Sans Pro-Medium-R-Normal--66-480-100-100-P-302-ISO10646-1
SIZE 48 100 100
FONTBOUNDINGBOX 174 84 -30 -19
STARTPROPERTIES 19
FOUNDRY "FreeType"
FAMILY_NAME "Source Sans Pro"
WEIGHT_NAME "Medium"
SLANT "R"
SETWIDTH_NAME "Normal"
ADD_STYLE_NAME ""
PIXEL_SIZE 66
POINT_SIZE 480
RESOLUTION_X 100
RESOLUTION_Y 100
SPACING "P"
AVERAGE_WIDTH 302
CHARSET_REGISTRY "ISO10646"
CHARSET_ENCODING "1"
FONT_ASCENT 65
FONT_DESCENT 18
COPYRIGHT "Copyright 2010, 2012, 2014 Adobe Systems Incorporated (http://www.adobe.com/), with Reserved Font Name Source."
_OTF_FONTFILE "SourceSansPro-Regular.otf"
_OTF_PSNAME "SourceSansPro-Regular"
ENDPROPERTIES
CHARS 1296
STARTCHAR 0020
ENCODING 32
SWIDTH 195 0
DWIDTH 13 0
BBX 0 0 0 0
BITMAP
ENDCHAR
STARTCHAR 0021
ENCODING 33
SWIDTH 285 0
DWIDTH 19 0
BBX 8 45 6 -1
BITMAP
7C
7C
7C
7C
7C
7C
7C
7C
7C
7C
7C
7C
7C
7C
7C
7C
7C
7C
7C
7C
7C
7C
7C
7C
3C
3C
3C
3C
3C
3C
3C
00
00
00
00
00
00
7C
FE
FE
FF
FF
FE
7E
3C
ENDCHAR
STARTCHAR 0022
ENCODING 34
SWIDTH 420 0
DWIDTH 28 0
BBX 18 17 5 29
BITMAP
FC0FC0
FC0FC0
FC0FC0
FC0FC0
FC0FC0
FC0FC0
7C0FC0
7C0FC0
7C07C0
7C0780
7C0780
780780
780780
780780
780780
780780
380780
ENDCHAR
STARTCHAR 0023
ENCODING 35
SWIDTH 495 0
DWIDTH 33 0
BBX 29 44 2 0
BITMAP
00780380
00780380
00780780
00700780
00700780
00700780
00700700
00F00700
00F00700
00F00700
00F00F00
00E00F00
3FFFFFF8
3FFFFFF8
3FFFFFF8
3FFFFFF8
01E00E00
01E00E00
01E01E00
01E01E00
01C01E00
01C01E00
01C01E00
03C01C00
03C01C00
03C01C00
FFFFFFF0
FFFFFFF0
FFFFFFF0
FFFFFFF0
03803C00
07803800
07803800
07803800
07803800
07807800
07007800
07007800
07007800
07007800
0F007000
0F007000
0F007000
0F007000
ENDCHAR
STARTCHAR 0024
ENCODING 36
SWIDTH 495 0
DWIDTH 33 0
BBX 25 59 4 -8
BITMAP
001E0000
001E0000
001E0000
001E0000
001E0000
001E0000
001E0000
007F8000
01FFF000
07FFF800
0FFFFE00
1FFFFF00
1F803F00
3F001E00
3E000C00
7E000000
7E000000
7E000000
7E000000
7E000000
7E000000
3F000000
3F000000
3F800000
1FE00000
0FF00000
07FC0000
03FF0000
01FFC000
007FF000
001FF800
0007FC00
0003FE00
0000FF00
00007F00
00003F00
00001F80
00001F80
00000F80
00000F80
00000F80
00000F80
00000F80
20001F80
70001F00
FC003F00
FE007E00
FFF7FE00
7FFFFC00
1FFFF800
07FFE000
00FF8000
001E0000
001E0000
001E0000
001E0000
001E0000
001E0000
001E0000
ENDCHAR
STARTCHAR 0025
ENCODING 37
SWIDTH 825 0
DWIDTH 55 0
BBX 51 46 2 -1
BITMAP
01F800001E0000
07FE00001E0000
0FFF80003C0000
1F9F80003C0000
1E07C000780000
3C03E000780000
3C01E000F00000
7801E000E00000
7801F001E00000
7800F001C00000
7800F003C00000
F800F003800000
F800F007800000
F000F007000000
F000F00F000000
F800F00E000000
F800F01E000000
7800F03C000000
7800F03C03F000
7801F0780FFC00
7801E0781FFE00
3C01E0F03F7F00
3C03E0F07C0F80
3E07C1E0F80780
1FDF81E0F007C0
0FFF03C0F003C0
07FE0381F003C0
01F80781E003C0
00000701E003C0
00000F01E003E0
00000E01E003E0
00001E01E003E0
00001C01E003E0
00003C01E003E0
00003801E003E0
00007801E003C0
00007001E003C0
0000F001F003C0
0001E000F003C0
0001E000F00780
0003C000F80780
0003C0007C0F00
000780003F3F00
000780003FFE00
000F00000FFC00
000F000003F000
ENDCHAR
STARTCHAR 0026
ENCODING 38
SWIDTH 615 0
DWIDTH 41 0
BBX 38 46 2 -1
BITMAP
0007E00000
001FF80000
007FFC0000
00FFFE0000
00FC3F0000
01F01F0000
01F00F0000
03E00F8000
03E00F8000
03E00F8000
03E00F0000
03E00F0000
03E01F0000
03E03E0000
03E07E0000
01F0FC0000
01F1F80000
01F3F00000
00FFE00000
00FFC00000
007F800000
00FE0000F8
01FE0000F8
07FF0001F0
0FFF8001F0
1FDF8001F0
1F8FC003E0
3F07E003E0
7E03F007C0
7E03F807C0
7C01FC0F80
FC00FE0F80
FC007F1F00
F8003FBF00
FC001FFE00
FC000FFE00
FC0007FC00
7E0003FC00
7E0003FE00
7F0007FF80
3FC01FFFE0
1FF9FF9FFC
0FFFFF0FF8
07FFFE03F8
01FFF800F8
007FC00030
ENDCHAR
STARTCHAR 0027
ENCODING 39
SWIDTH 255 0
DWIDTH 17 0
BBX 6 17 5 29
BITMAP
FC
FC
FC
FC
FC
FC
7C
7C
7C
7C
7C
78
78
78
78
78
38
ENDCHAR
STARTCHAR 0028
ENCODING 40
SWIDTH 300 0
DWIDTH 20 0
BBX 12 60 5 -12
BITMAP
0040
00F0
00F0
01F0
01E0
03E0
03C0
07C0
0780
0F80
0F00
0F00
1F00
1E00
1E00
3E00
3E00
3C00
3C00
3C00
7C00
7C00
7C00
7800
7800
7800
7800
7800
F800
F800
F800
F800
F800
7800
7800
7800
7800
7800
7C00
7C00
7C00
3C00
3C00
3E00
3E00
1E00
1E00
1F00
1F00
0F00
0F80
0780
0780
07C0
03C0
03E0
01E0
01F0
00F0
0060
ENDCHAR
STARTCHAR 0029
ENCODING 41
SWIDTH 300 0
DWIDTH 20 0
BBX 12 60 3 -12
BITMAP
2000
F000
F000
7800
7C00
3C00
3E00
1E00
1E00
1F00
0F00
0F80
0F80
0780
07C0
07C0
03C0
03C0
03E0
03E0
03E0
01E0
01E0
01E0
01E0
01F0
01F0
01F0
01F0
01F0
01F0
01F0
01F0
01F0
01F0
01F0
01E0
01E0
01E0
01E0
03E0
03E0
03C0
03C0
03C0
07C0
0780
0780
0F80
0F00
0F00
1F00
1E00
3E00
3C00
7C00
7800
F800
F000
7000
ENDCHAR
STARTCHAR 002A
ENCODING 42
SWIDTH 420 0
DWIDTH 28 0
BBX 20 19 4 28
BITMAP
00F000
00F000
00F000
00F000
00F000
00F000
78F1E0
FFFFF0
FFFFF0
3FFFC0
0FFE00
03FC00
03FC00
07FE00
0F9E00
0F1F00
1F0F80
1E0780
0C0300
ENDCHAR
STARTCHAR 002B
ENCODING 43
SWIDTH 495 0
DWIDTH 33 0
BBX 29 30 2 7
BITMAP
000F8000
000F8000
000F8000
000F8000
000F8000
000F8000
000F8000
000F8000
000F8000
000F8000
000F8000
000F8000
000F8000
FFFFFFF8
FFFFFFF8
FFFFFFF8
FFFFFFF8
000F8000
000F8000
000F8000
000F8000
000F8000
000F8000
000F8000
000F8000
000F8000
000F8000
000F8000
000F8000
000F8000
ENDCHAR
STARTCHAR 002C
ENCODING 44
SWIDTH 255 0
DWIDTH 17 0
BBX 10 19 3 -11
BITMAP
0400
1F80
3F80
3FC0
3FC0
3FC0
3FC0
1FC0
03C0
03C0
03C0
0780
0780
0F00
1F00
7E00
FC00
7800
6000
ENDCHAR
STARTCHAR 002D
ENCODING 45
SWIDTH 315 0
DWIDTH 21 0
BBX 15 4 3 15
BITMAP
FFFE
FFFE
FFFE
FFFE
ENDCHAR
STARTCHAR 002E
ENCODING 46
SWIDTH 255 0
DWIDTH 17 0
BBX 8 8 4 -1
BITMAP
3E
7F
7F
FF
FF
7F
7E
3C
ENDCHAR
STARTCHAR 002F
ENCODING 47
SWIDTH 345 0
DWIDTH 23 0
BBX 21 58 1 -11
BITMAP
000078
000078
000078
0000F0
0000F0
0000F0
0001E0
0001E0
0001E0
0001E0
0003C0
0003C0
0003C0
000780
000780
000780
000F00
000F00
000F00
001E00
001E00
001E00
001E00
003C00
003C00
003C00
007800
007800
007800
00F000
00F000
00F000
01E000
01E000
01E000
01E000
03C000
03C000
03C000
078000
078000
078000
0F0000
0F0000
0F0000
1E0000
1E0000
1E0000
1E0000
3C0000
3C0000
3C0000
780000
780000
780000
F00000
F00000
F00000
ENDCHAR
STARTCHAR 0030
ENCODING 48
SWIDTH 495 0
DWIDTH 33 0
BBX 27 45 3 -1
BITMAP
003F8000
00FFE000
03FFF800
07FFFC00
0FFBFE00
0FC07E00
1F803F00
1F001F80
3F000F80
3E000F80
3E000FC0
7C0007C0
7C0007C0
7C0007C0
7C0007E0
FC0007E0
FC0003E0
F80003E0
F80003E0
F80003E0
F80003E0
F80003E0
F80003E0
F80003E0
F80003E0
F80003E0
F80003E0
FC0003E0
FC0003E0
FC0007E0
7C0007E0
7C0007C0
7C0007C0
7E0007C0
3E000FC0
3E000F80
3F000F80
1F001F00
1F803F00
0FC07E00
0FFBFE00
07FFFC00
03FFF800
00FFE000
003F8000
ENDCHAR
STARTCHAR 0031
ENCODING 49
SWIDTH 495 0
DWIDTH 33 0
BBX 24 43 5 0
BITMAP
003E00
00FE00
07FE00
3FFE00
3FFE00
3FFE00
3FFE00
003E00
003E00
003E00
003E00
003E00
003E00
003E00
003E00
003E00
003E00
003E00
003E00
003E00
003E00
003E00
003E00
003E00
003E00
003E00
003E00
003E00
003E00
003E00
003E00
003E00
003E00
003E00
003E00
003E00
003E00
003E00
FFFFFF
FFFFFF
FFFFFF
FFFFFF
FFFFFF
ENDCHAR
STARTCHAR 0032
ENCODING 50
SWIDTH 495 0
DWIDTH 33 0
BBX 28 44 2 0
BITMAP
007F8000
01FFF000
07FFFC00
0FFFFE00
3FF7FF00
7F807F00
FE003F80
7C001F80
38000F80
10000FC0
00000FC0
000007C0
000007C0
000007C0
000007C0
00000FC0
00000FC0
00000F80
00001F80
00001F00
00003F00
00003E00
00007E00
0000FC00
0000FC00
0001F800
0003F000
0007E000
000FE000
001FC000
001F8000
003F0000
007E0000
00FC0000
01F80000
03F80000
07F00000
0FE00000
1FC00000
3F8FFFF0
7FFFFFF0
7FFFFFF0
7FFFFFF0
7FFFFFF0
ENDCHAR
STARTCHAR 0033
ENCODING 51
SWIDTH 495 0
DWIDTH 33 0
BBX 28 45 2 -1
BITMAP
003FC000
01FFF800
07FFFC00
0FFFFE00
3FFBFF00
7F803F80
3E001F80
1C000FC0
08000FC0
00000FC0
000007C0
000007C0
000007C0
00000FC0
00000FC0
00000F80
00001F80
00003F00
0000FE00
0007FC00
007FF800
007FE000
007FF800
007FFE00
0003FF00
00003F80
00001FC0
00000FC0
000007E0
000003E0
000003F0
000003F0
000003F0
000003F0
000003F0
200003E0
300007E0
780007E0
FC000FC0
FF003FC0
7FFFFF80
3FFFFF00
0FFFFE00
03FFF800
007FC000
ENDCHAR
STARTCHAR 0034
ENCODING 52
SWIDTH 495 0
DWIDTH 33 0
BBX 30 43 1 0
BITMAP
00003F00
00007F00
00007F00
0000FF00
0001FF00
0001FF00
0003EF00
0007CF00
0007DF00
000F9F00
001F9F00
001F1F00
003E1F00
007E1F00
007C1F00
00F81F00
01F81F00
01F01F00
03E01F00
07E01F00
07C01F00
0F801F00
1F801F00
1F001F00
3E001F00
7E001F00
7C001F00
FFFFFFFC
FFFFFFFC
FFFFFFFC
FFFFFFFC
00001F00
00001F00
00001F00
00001F00
00001F00
00001F00
00001F00
00001F00
00001F00
00001F00
00001F00
00001F00
ENDCHAR
STARTCHAR 0035
ENCODING 53
SWIDTH 495 0
DWIDTH 33 0
BBX 28 44 2 -1
BITMAP
0FFFFFC0
0FFFFFC0
0FFFFFC0
0FFFFFC0
0FFFFFC0
0F800000
0F800000
0F800000
0F800000
0F800000
0F800000
0F800000
0F800000
0F800000
0F000000
1F000000
1F1FE000
1FFFFC00
1FFFFE00
1FFFFF80
1FC0FF80
0F001FC0
00000FE0
000007E0
000007E0
000003F0
000003F0
000003F0
000003F0
000003F0
000003F0
000003F0
000003F0
000003E0
000007E0
200007E0
78000FC0
FC001FC0
FF007F80
7FFFFF00
3FFFFE00
0FFFFC00
03FFF000
007F8000
ENDCHAR
STARTCHAR 0036
ENCODING 54
SWIDTH 495 0
DWIDTH 33 0
BBX 27 45 3 -1
BITMAP
0007F000
003FFE00
00FFFF00
01FFFFC0
03FFFFE0
07F80FC0
0FE00380
0FC00100
1F800000
1F000000
3F000000
3E000000
3E000000
7E000000
7C000000
7C000000
7C000000
7C000000
7C0FF000
FC3FFC00
FCFFFE00
FDFFFF00
FBF07F80
FFC01FC0
FF000FC0
FE0007E0
FC0007E0
FC0003E0
FC0003E0
7C0003E0
7C0003E0
7C0003E0
7C0003E0
7E0003E0
3E0003E0
3E0003E0
3F0007E0
1F8007C0
1F800FC0
0FE01F80
07F8FF00
03FFFE00
01FFFC00
007FF800
001FC000
ENDCHAR
STARTCHAR 0037
ENCODING 55
SWIDTH 495 0
DWIDTH 33 0
BBX 27 43 3 0
BITMAP
FFFFFFE0
FFFFFFE0
FFFFFFE0
FFFFFFE0
FFFFFFC0
000007C0
00000F80
00001F00
00001F00
00003E00
00007C00
00007C00
0000F800
0000F800
0001F000
0001F000
0003E000
0003E000
0007E000
0007C000
0007C000
000FC000
000F8000
000F8000
001F8000
001F0000
001F0000
001F0000
001F0000
003F0000
003F0000
003E0000
003E0000
003E0000
003E0000
007E0000
007E0000
007E0000
007E0000
007E0000
007E0000
007E0000
007E0000
ENDCHAR
STARTCHAR 0038
ENCODING 56
SWIDTH 495 0
DWIDTH 33 0
BBX 27 45 3 -1
BITMAP
003FC000
00FFF000
03FFFC00
07FFFE00
0FE0FF00
1F803F00
1F001F80
3F000F80
3E0007C0
3E0007C0
3E0007C0
3E0007C0
3E0007C0
3E0007C0
3F000780
1F000F80
1F800F80
0FE01F00
07F01E00
03FC3E00
01FFFC00
00FFF800
03FFF000
07DFFC00
0F83FE00
1F00FF00
3E003F80
7C001FC0
7C000FC0
F80007E0
F80003E0
F80003E0
F80003E0
F80003E0
F80003E0
F80003E0
FC0007E0
7C0007E0
7E000FC0
3F801FC0
1FE07F80
1FFFFF00
07FFFE00
01FFF800
007FC000
ENDCHAR
STARTCHAR 0039
ENCODING 57
SWIDTH 495 0
DWIDTH 33 0
BBX 27 45 3 -1
BITMAP
007F0000
03FFE000
07FFF000
0FFFF800
1FE3FC00
3F00FE00
3E003F00
7E001F00
7C001F80
FC000F80
F8000F80
F80007C0
F80007C0
F80007C0
F80007C0
F80007E0
F80003E0
F80007E0
FC0007E0
FC000FE0
7E001FE0
7F007FE0
3FC1FBE0
1FFFF3E0
0FFFE3E0
07FF83E0
01FE07E0
000007C0
000007C0
000007C0
000007C0
00000FC0
00000F80
00000F80
00001F80
00001F00
00003F00
10007E00
3800FE00
7E01FC00
FFFFF800
7FFFF000
1FFFE000
0FFF8000
01FC0000
ENDCHAR
STARTCHAR 003A
ENCODING 58
SWIDTH 255 0
DWIDTH 17 0
BBX 8 32 4 -1
BITMAP
3E
7F
7F
FF
FF
7F
7E
3C
00
00
00
00
00
00
00
00
00
00
00
00
00
00
00
00
3E
7F
7F
FF
FF
7F
7E
3C
ENDCHAR
STARTCHAR 003B
ENCODING 59
SWIDTH 255 0
DWIDTH 17 0
BBX 10 43 3 -11
BITMAP
0E00
3F00
3F80
7F80
7F80
3F80
3F80
1F00
0000
0000
0000
0000
0000
0000
0000
0000
0000
0000
0000
0000
0000
0000
0000
0000
0400
1F80
3F80
3FC0
3FC0
3FC0
3FC0
1FC0
03C0
03C0
03C0
0780
0780
0F00
1F00
7E00
FC00
7800
6000
ENDCHAR
STARTCHAR 003C
ENCODING 60
SWIDTH 495 0
DWIDTH 33 0
BBX 29 27 2 9
BITMAP
00000008
00000038
000001F8
00000FF8
00003FF8
0001FFE0
0007FF80
003FFC00
00FFE000
07FF8000
1FFC0000
FFE00000
FF000000
FC000000
FF000000
FFE00000
3FF80000
07FF0000
01FFE000
003FF800
000FFF00
0001FFE0
00007FF8
00000FF8
000003F8
00000078
00000008
ENDCHAR
STARTCHAR 003D
ENCODING 61
SWIDTH 495 0
DWIDTH 33 0
BBX 29 18 2 13
BITMAP
FFFFFFF8
FFFFFFF8
FFFFFFF8
FFFFFFF8
00000000
00000000
00000000
00000000
00000000
00000000
00000000
00000000
00000000
00000000
FFFFFFF8
FFFFFFF8
FFFFFFF8
FFFFFFF8
ENDCHAR
STARTCHAR 003E
ENCODING 62
SWIDTH 495 0
DWIDTH 33 0
BBX 29 27 2 9
BITMAP
80000000
F0000000
FC000000
FF800000
FFE00000
3FFC0000
0FFF0000
01FFE000
003FF800
0007FF00
0001FFE0
00003FF8
000007F8
000001F8
000007F8
00001FF8
0000FFE0
0007FF80
003FFC00
00FFE000
07FF8000
3FFC0000
FFF00000
FF800000
FE000000
F0000000
C0000000
ENDCHAR
STARTCHAR 003F
ENCODING 63
SWIDTH 420 0
DWIDTH 28 0
BBX 22 46 3 -1
BITMAP
01FE00
07FF80
1FFFE0
3FFFF0
7FFFF8
FC03F8
7801F8
2000FC
0000FC
00007C
00007C
00007C
00007C
0000FC
0000F8
0001F8
0001F0
0003F0
0007E0
000FC0
000F80
001F80
003F00
007E00
007C00
00FC00
00F800
00F800
00F800
00F800
00F000
00F000
000000
000000
000000
000000
000000
000000
00F800
01FC00
03FC00
03FC00
03FC00
01FC00
01F800
00F000
ENDCHAR
STARTCHAR 0040
ENCODING 64
SWIDTH 840 0
DWIDTH 56 0
BBX 50 54 3 -10
BITMAP
000001FFC00000
00001FFFF80000
00007FFFFE0000
0001FFFFFF8000
0007FC003FC000
000FE0000FE000
001F800003F000
003F000000F800
007C0000007C00
00F80000003E00
01F00000001E00
03E00000001F00
07C00000000F00
07C00000000F80
0F800000000780
0F0001F8000780
1F0007FCF00780
1E000FFEF003C0
3E001FFFF003C0
3C003F07F003C0
3C007C03E003C0
3C00F801E003C0
7800F001E003C0
7801F003E003C0
7801E003E003C0
7803E003C003C0
7803E003C003C0
7803C003C003C0
F003C007C00380
F003C007C00780
F003C007800780
F003C007800F00
F803C007800F00
7803E00F801F00
7803E01F803E00
7801F07FC07C00
7801FFFBE0F800
7C00FFF3FFF000
3C007FC1FFE000
3C001F00FFC000
3E0000001C0000
1E000000000000
1F000000000000
0F800000000000
0FC00000000000
07E00000000000
03F00000000000
01F80000000000
00FE0000700000
007FC003F00000
001FFFFFF00000
000FFFFFE00000
0001FFFF800000
00003FF8000000
ENDCHAR
STARTCHAR 0041
ENCODING 65
SWIDTH 540 0
DWIDTH 36 0
BBX 36 44 0 0
BITMAP
0001F80000
0003FC0000
0003FC0000
0003FC0000
0007FE0000
0007FE0000
00079E0000
000F9F0000
000F9F0000
000F8F0000
001F0F8000
001F0F8000
001F0F8000
003E07C000
003E07C000
003E07C000
007C03E000
007C03E000
007C03E000
00F801F000
00F801F000
00F801F800
01F800F800
01F000F800
01F000FC00
03F000FC00
03FFFFFC00
03FFFFFE00
07FFFFFE00
07FFFFFE00
07C0003F00
0FC0003F00
0F80001F00
0F80001F80
1F80001F80
1F80000F80
1F00000FC0
3F00000FC0
3F00000FC0
3E000007E0
7E000007E0
7E000007E0
7C000003F0
FC000003F0
ENDCHAR
STARTCHAR 0042
ENCODING 66
SWIDTH 585 0
DWIDTH 39 0
BBX 31 44 6 0
BITMAP
FFFFE000
FFFFFC00
FFFFFF00
FFFFFF80
FC07FFC0
FC001FE0
FC0007E0
FC0007F0
FC0003F0
FC0003F0
FC0003F0
FC0001F0
FC0003F0
FC0003F0
FC0003E0
FC0007E0
FC000FC0
FC001FC0
FC01FF80
FFFFFE00
FFFFFC00
FFFFFF80
FFFFFFC0
FC003FF0
FC0007F8
FC0001F8
FC0000FC
FC0000FC
FC00007C
FC00007C
FC00007E
FC00007E
FC00007C
FC00007C
FC0000FC
FC0000FC
FC0001F8
FC0003F8
FC000FF0
FC00FFE0
FFFFFFC0
FFFFFF80
FFFFFE00
FFFFE000
ENDCHAR
STARTCHAR 0043
ENCODING 67
SWIDTH 570 0
DWIDTH 38 0
BBX 33 46 3 -1
BITMAP
0000FF0000
000FFFE000
003FFFF800
007FFFFC00
00FFFFFE00
01FF00FF00
03FC003E00
07F0001C00
0FE0000800
0FC0000000
1F80000000
1F80000000
3F00000000
3F00000000
3E00000000
7E00000000
7E00000000
7E00000000
7E00000000
7C00000000
7C00000000
7C00000000
FC00000000
FC00000000
7C00000000
7C00000000
7C00000000
7E00000000
7E00000000
7E00000000
7E00000000
3F00000000
3F00000000
3F00000000
1F80000000
1F80000000
0FC0000000
0FE0000600
07F0001F00
03FC003F80
03FF00FF00
01FFFFFE00
007FFFFC00
003FFFF800
000FFFE000
0001FF0000
ENDCHAR
STARTCHAR 0044
ENCODING 68
SWIDTH 615 0
DWIDTH 41 0
BBX 32 44 6 0
BITMAP
FFFF0000
FFFFF000
FFFFFC00
FFFFFF00
FFFFFF80
FC007FC0
FC001FE0
FC000FF0
FC0003F8
FC0003F8
FC0001FC
FC0000FC
FC0000FC
FC00007E
FC00007E
FC00007E
FC00007E
FC00003E
FC00003E
FC00003F
FC00003F
FC00003F
FC00003F
FC00003F
FC00003F
FC00003E
FC00003E
FC00007E
FC00007E
FC00007E
FC00007E
FC0000FC
FC0000FC
FC0001F8
FC0003F8
FC0007F0
FC000FF0
FC001FE0
FC007FC0
FFFFFF80
FFFFFF00
FFFFFC00
FFFFF000
FFFF0000
ENDCHAR
STARTCHAR 0045
ENCODING 69
SWIDTH 525 0
DWIDTH 35 0
BBX 26 44 6 0
BITMAP
FFFFFF80
FFFFFF80
FFFFFF80
FFFFFF80
FFFFFF80
FC000000
FC000000
FC000000
FC000000
FC000000
FC000000
FC000000
FC000000
FC000000
FC000000
FC000000
FC000000
FC000000
FFFFFC00
FFFFFC00
FFFFFC00
FFFFFC00
FFFFFC00
FC000000
FC000000
FC000000
FC000000
FC000000
FC000000
FC000000
FC000000
FC000000
FC000000
FC000000
FC000000
FC000000
FC000000
FC000000
FC000000
FFFFFFC0
FFFFFFC0
FFFFFFC0
FFFFFFC0
FFFFFFC0
ENDCHAR
STARTCHAR 0046
ENCODING 70
SWIDTH 495 0
DWIDTH 33 0
BBX 25 44 6 0
BITMAP
FFFFFF80
FFFFFF80
FFFFFF80
FFFFFF80
FFFFFF80
FC000000
FC000000
FC000000
FC000000
FC000000
FC000000
FC000000
FC000000
FC000000
FC000000
FC000000
FC000000
FC000000
FC000000
FFFFFC00
FFFFFC00
FFFFFC00
FFFFFC00
FFFFFC00
FC000000
FC000000
FC000000
FC000000
FC000000
FC000000
FC000000
FC000000
FC000000
FC000000
FC000000
FC000000
FC000000
FC000000
FC000000
FC000000
FC000000
FC000000
FC000000
FC000000
ENDCHAR
STARTCHAR 0047
ENCODING 71
SWIDTH 615 0
DWIDTH 41 0
BBX 34 46 3 -1
BITMAP
0000FF8000
0007FFF000
001FFFFC00
007FFFFE00
00FFFFFF00
01FF007F80
03FC001F00
07F0000E00
0FE0000600
0FC0000000
1FC0000000
1F80000000
3F00000000
3F00000000
3F00000000
7E00000000
7E00000000
7E00000000
7E00000000
7C00000000
7C00000000
7C00000000
FC001FFFC0
FC001FFFC0
FC001FFFC0
7C001FFFC0
7C001FFFC0
7E000007C0
7E000007C0
7E000007C0
7E000007C0
3F000007C0
3F000007C0
3F000007C0
1F800007C0
1F800007C0
0FC00007C0
0FE00007C0
07F00007C0
03FC001FC0
03FF007FC0
01FFFFFF80
007FFFFF00
003FFFFC00
000FFFF000
0000FF8000
ENDCHAR
STARTCHAR 0048
ENCODING 72
SWIDTH 645 0
DWIDTH 43 0
BBX 31 44 6 0
BITMAP
FC00003E
FC00003E
FC00003E
FC00003E
FC00003E
FC00003E
FC00003E
FC00003E
FC00003E
FC00003E
FC00003E
FC00003E
FC00003E
FC00003E
FC00003E
FC00003E
FC00003E
FC00003E
FFFFFFFE
FFFFFFFE
FFFFFFFE
FFFFFFFE
FFFFFFFE
FC00003E
FC00003E
FC00003E
FC00003E
FC00003E
FC00003E
FC00003E
FC00003E
FC00003E
FC00003E
FC00003E
FC00003E
FC00003E
FC00003E
FC00003E
FC00003E
FC00003E
FC00003E
FC00003E
FC00003E
FC00003E
ENDCHAR
STARTCHAR 0049
ENCODING 73
SWIDTH 270 0
DWIDTH 18 0
BBX 6 44 6 0
BITMAP
FC
FC
FC
FC
FC
FC
FC
FC
FC
FC
FC
FC
FC
FC
FC
FC
FC
FC
FC
FC
FC
FC
FC
FC
FC
FC
FC
FC
FC
FC
FC
FC
FC
FC
FC
FC
FC
FC
FC
FC
FC
FC
FC
FC
ENDCHAR
STARTCHAR 004A
ENCODING 74
SWIDTH 480 0
DWIDTH 32 0
BBX 24 45 2 -1
BITMAP
00001F
00001F
00001F
00001F
00001F
00001F
00001F
00001F
00001F
00001F
00001F
00001F
00001F
00001F
00001F
00001F
00001F
00001F
00001F
00001F
00001F
00001F
00001F
00001F
00001F
00001F
00001F
00001F
00001F
00001F
00001F
00001F
00001F
00003F
00003F
00003F
38003F
7C007E
FE00FE
7F01FC
3FFFFC
1FFFF8
0FFFF0
07FFC0
00FF00
ENDCHAR
STARTCHAR 004B
ENCODING 75
SWIDTH 585 0
DWIDTH 39 0
BBX 32 44 6 0
BITMAP
FC0000FC
FC0001F8
FC0003F0
FC0007E0
FC000FE0
FC001FC0
FC001F80
FC003F00
FC007E00
FC00FC00
FC01FC00
FC03F800
FC03F000
FC07E000
FC0FC000
FC1FC000
FC3F8000
FC7F8000
FC7FC000
FCFFC000
FDFFE000
FFFFE000
FFF3F000
FFE3F000
FFC1F800
FF80FC00
FF80FC00
FF007E00
FE007E00
FC003F00
FC003F80
FC001F80
FC000FC0
FC000FC0
FC0007E0
FC0007E0
FC0003F0
FC0003F8
FC0001F8
FC0000FC
FC0000FC
FC00007E
FC00007E
FC00003F
ENDCHAR
STARTCHAR 004C
ENCODING 76
SWIDTH 480 0
DWIDTH 32 0
BBX 25 44 6 0
BITMAP
FC000000
FC000000
FC000000
FC000000
FC000000
FC000000
FC000000
FC000000
FC000000
FC000000
FC000000
FC000000
FC000000
FC000000
FC000000
FC000000
FC000000
FC000000
FC000000
FC000000
FC000000
FC000000
FC000000
FC000000
FC000000
FC000000
FC000000
FC000000
FC000000
FC000000
FC000000
FC000000
FC000000
FC000000
FC000000
FC000000
FC000000
FC000000
FC000000
FFFFFF80
FFFFFF80
FFFFFF80
FFFFFF80
FFFFFF80
ENDCHAR
STARTCHAR 004D
ENCODING 77
SWIDTH 720 0
DWIDTH 48 0
BBX 36 44 6 0
BITMAP
FE000003F0
FE000007F0
FF000007F0
FF000007F0
FF00000FF0
FF80000FF0
FF80001FF0
F780001EF0
FFC0001EF0
FBC0003EF0
FBC0003CF0
FBE0003CF0
F9E0007CF0
F9E00078F0
F9F00079F0
F8F000F9F0
F8F800F1F0
F8F800F1F0
F87801F1F0
F87C01E1F0
F87C01E1F0
F83C03E1F0
F83E03C1F0
F83E03C1F0
F81E07C1F0
F81F0781F0
F80F0781F0
F80F0F01F0
F80F8F01F0
F8078F01F0
F8079E01F0
F807DE01F0
F803DE01F0
F803FC01F0
F803FC01F0
F801FC01F0
F801F801F0
F801F801F0
F800F001F0
F800F001F0
F8000001F0
F8000001F0
F8000001F0
F8000001F0
ENDCHAR
STARTCHAR 004E
ENCODING 78
SWIDTH 645 0
DWIDTH 43 0
BBX 31 44 6 0
BITMAP
FC00003E
FE00003E
FE00003E
FF00003E
FF00003E
FF80003E
FF80003E
FFC0003E
FFE0003E
FBE0003E
F9F0003E
F9F0003E
F8F8003E
F8F8003E
F87C003E
F87E003E
F83E003E
F83F003E
F81F003E
F81F803E
F80F803E
F807C03E
F807E03E
F803E03E
F803F03E
F801F03E
F801F83E
F800F83E
F8007C3E
F8007C3E
F8003E3E
F8003F3E
F8001F3E
F8001FBE
F8000FBE
F80007FE
F80007DE
F80003FE
F80003FE
F80001FE
F80001FE
F80000FE
F800007E
F800007E
ENDCHAR
STARTCHAR 004F
ENCODING 79
SWIDTH 660 0
DWIDTH 44 0
BBX 38 46 3 -1
BITMAP
0001FF0000
000FFFE000
003FFFF800
00FFFFFC00
01FFFFFE00
03FE01FF00
07F8007F80
07F0003FC0
0FE0000FC0
1FC0000FE0
1F800007E0
1F800003F0
3F000003F0
3F000001F8
3E000001F8
7E000001F8
7E000001F8
7E000000FC
7E000000FC
7C000000FC
7C000000FC
FC000000FC
FC000000FC
FC000000FC
7C000000FC
7C000000FC
7C000000FC
7E000000FC
7E000000F8
7E000001F8
7E000001F8
3F000001F8
3F000003F0
3F000003F0
1F800003F0
1F800007E0
1FC0000FE0
0FE0001FC0
07F0003FC0
07F8007F80
03FE01FF00
01FFFFFE00
00FFFFFC00
003FFFF000
000FFFC000
0001FE0000
ENDCHAR
STARTCHAR 0050
ENCODING 80
SWIDTH 570 0
DWIDTH 38 0
BBX 29 44 6 0
BITMAP
FFFFC000
FFFFFC00
FFFFFF00
FFFFFF80
FC0FFFC0
FC001FE0
FC0007F0
FC0003F0
FC0003F0
FC0001F8
FC0001F8
FC0001F8
FC0001F8
FC0001F8
FC0001F8
FC0001F8
FC0001F8
FC0003F0
FC0003F0
FC0007E0
FC000FE0
FC007FC0
FFFFFF80
FFFFFF00
FFFFFC00
FFFFF000
FFF80000
FC000000
FC000000
FC000000
FC000000
FC000000
FC000000
FC000000
FC000000
FC000000
FC000000
FC000000
FC000000
FC000000
FC000000
FC000000
FC000000
FC000000
ENDCHAR
STARTCHAR 0051
ENCODING 81
SWIDTH 660 0
DWIDTH 44 0
BBX 39 57 3 -12
BITMAP
0001FF0000
000FFFE000
003FFFF800
00FFFFFC00
01FFFFFE00
03FE01FF00
07F8007F80
07F0003FC0
0FE0000FC0
1FC0000FE0
1F800007E0
1F800003F0
3F000003F0
3F000001F8
3E000001F8
7E000001F8
7E000001F8
7E000000FC
7E000000FC
7C000000FC
7C000000FC
7C000000FC
FC000000FC
FC000000FC
7C000000FC
7C000000FC
7C000000FC
7E000000FC
7E000000F8
7E000001F8
7E000001F8
3E000001F8
3F000001F8
3F000003F0
3F800003F0
1F800007E0
1FC00007E0
0FC0000FC0
07E0001FC0
07F8003F80
03FC00FF00
01FFC7FE00
00FFFFFC00
007FFFF800
001FFFE000
0003FF0000
00007E0000
00007E0000
00003F0000
00003F8000
00001FE000
00000FF804
000007FFFC
000003FFFC
000000FFFE
0000003FFE
00000003E0
ENDCHAR
STARTCHAR 0052
ENCODING 82
SWIDTH 570 0
DWIDTH 38 0
BBX 30 44 6 0
BITMAP
FFFFE000
FFFFFE00
FFFFFF00
FFFFFFC0
FC07FFE0
FC001FE0
FC0007F0
FC0003F0
FC0001F8
FC0001F8
FC0001F8
FC0001F8
FC0001F8
FC0001F8
FC0001F8
FC0001F8
FC0001F0
FC0003F0
FC0007F0
FC000FE0
FC007FC0
FFFFFFC0
FFFFFF00
FFFFFE00
FFFFF800
FFFFE000
FC03F000
FC01F800
FC01F800
FC00FC00
FC00FC00
FC007E00
FC007F00
FC003F00
FC001F80
FC001F80
FC000FC0
FC000FC0
FC0007E0
FC0007F0
FC0003F0
FC0001F8
FC0001F8
FC0000FC
ENDCHAR
STARTCHAR 0053
ENCODING 83
SWIDTH 540 0
DWIDTH 36 0
BBX 30 46 3 -1
BITMAP
000FF000
007FFE00
01FFFF80
03FFFFC0
07FFFFF0
0FF00FF8
1FC003F0
1F8000E0
3F000040
3F000000
3F000000
3F000000
3F000000
3F000000
3F000000
1F800000
1FC00000
1FF00000
0FFC0000
07FF0000
03FFE000
01FFF800
007FFE00
001FFF80
0003FFC0
0000FFE0
00003FF0
00000FF8
000003F8
000001F8
000000FC
000000FC
000000FC
000000FC
000000FC
000000FC
300000FC
780001F8
7E0001F8
FF0007F0
7FE01FF0
3FFFFFE0
1FFFFFC0
07FFFF00
01FFFE00
003FF000
ENDCHAR
STARTCHAR 0054
ENCODING 84
SWIDTH 540 0
DWIDTH 36 0
BBX 32 44 2 0
BITMAP
FFFFFFFF
FFFFFFFF
FFFFFFFF
FFFFFFFF
FFFFFFFF
0007E000
0007E000
0007E000
0007E000
0007E000
0007E000
0007E000
0007E000
0007E000
0007E000
0007E000
0007E000
0007E000
0007E000
0007E000
0007E000
0007E000
0007E000
0007E000
0007E000
0007E000
0007E000
0007E000
0007E000
0007E000
0007E000
0007E000
0007E000
0007E000
0007E000
0007E000
0007E000
0007E000
0007E000
0007E000
0007E000
0007E000
0007E000
0007E000
ENDCHAR
STARTCHAR 0055
ENCODING 85
SWIDTH 645 0
DWIDTH 43 0
BBX 31 45 6 -1
BITMAP
F800003E
F800003E
F800003E
F800003E
F800003E
F800003E
F800003E
F800003E
F800003E
F800003E
F800003E
F800003E
F800003E
F800003E
F800003E
F800003E
F800003E
F800003E
F800003E
F800003E
F800003E
F800003E
F800003E
F800003E
F800003E
F800003E
F800003E
F800003E
F800003E
FC00003E
FC00003E
FC00007E
FC00007E
7C00007C
7E00007C
7E0000FC
3F0001F8
3F8001F8
1FC007F0
1FF01FF0
0FFFFFE0
07FFFFC0
03FFFF80
00FFFE00
001FF000
ENDCHAR
STARTCHAR 0056
ENCODING 86
SWIDTH 510 0
DWIDTH 34 0
BBX 34 44 0 0
BITMAP
FC000007C0
FC00000FC0
7E00000FC0
7E00000F80
7E00001F80
3F00001F80
3F00001F00
3F00003F00
1F00003F00
1F80003E00
1F80003E00
0F80007E00
0FC0007C00
0FC0007C00
07C000FC00
07E000F800
07E000F800
03E000F800
03E001F000
03F001F000
03F001F000
01F003F000
01F803E000
01F803E000
00F807E000
00F807C000
00FC07C000
007C07C000
007C0F8000
007E0F8000
003E0F8000
003E0F0000
003F1F0000
001F1F0000
001F1E0000
001F3E0000
000FBE0000
000FBE0000
000FFC0000
0007FC0000
0007FC0000
0007F80000
0007F80000
0003F80000
ENDCHAR
STARTCHAR 0057
ENCODING 87
SWIDTH 780 0
DWIDTH 52 0
BBX 49 44 2 0
BITMAP
F80003E0001F80
FC0007E0001F00
FC0007F0001F00
FC0007F0001F00
FC0007F0001F00
7C000FF0003F00
7E000FF8003E00
7E000FF8003E00
7E000F78003E00
3E001F78003E00
3E001E7C007E00
3E001E7C007C00
3F001E7C007C00
3F003E3C007C00
1F003E3E007C00
1F003C3E00FC00
1F003C3E00F800
1F807C3E00F800
1F807C1F00F800
0F80781F00F800
0F80781F00F800
0F80F81F01F000
0FC0F80F81F000
0FC0F00F81F000
07C0F00F81F000
07C1F00F81F000
07C1F007C3E000
07E1E007C3E000
03E1E007C3E000
03E1E007C3E000
03E3E003C3E000
03E3C003E3C000
03E3C003E7C000
01F3C003E7C000
01F7C001E7C000
01F78001F78000
01F78001F78000
01F78001F78000
00FF8000FF8000
00FF0000FF8000
00FF0000FF0000
00FF0000FF0000
00FF00007F0000
007F00007F0000
ENDCHAR
STARTCHAR 0058
ENCODING 88
SWIDTH 510 0
DWIDTH 34 0
BBX 32 44 1 0
BITMAP
7E00007E
3F00007E
3F0000FC
1F8000F8
1F8001F8
0FC001F0
0FC003F0
07E003E0
03E007E0
03F007C0
01F80FC0
01F80F80
00FC1F00
00FC1F00
007E3E00
007E3E00
003F7C00
001F7C00
001FF800
000FF800
000FF000
0007E000
000FF000
001FF800
001FF800
003EFC00
003E7C00
007E7E00
007C3E00
00FC3F00
00F81F80
01F81F80
03F00FC0
03E00FC0
07E007E0
07C007E0
0FC003F0
0F8001F8
1F8001F8
1F0000FC
3F0000FC
7E00007E
7E00007E
FC00003F
ENDCHAR
STARTCHAR 0059
ENCODING 89
SWIDTH 480 0
DWIDTH 32 0
BBX 32 44 0 0
BITMAP
FC00003F
7E00007E
7E00007E
3E0000FC
3F0000FC
1F0000F8
1F8001F8
0F8001F0
0FC003F0
07C003E0
07E007E0
03E007C0
03F00FC0
03F00F80
01F80F80
01F81F00
00F81F00
00FC3E00
007C3E00
007E7C00
003E7C00
003FF800
001FF800
001FF000
000FF000
000FE000
0007E000
0007E000
0007E000
0007E000
0007E000
0007E000
0007E000
0007E000
0007E000
0007E000
0007E000
0007E000
0007E000
0007E000
0007E000
0007E000
0007E000
0007E000
ENDCHAR
STARTCHAR 005A
ENCODING 90
SWIDTH 540 0
DWIDTH 36 0
BBX 30 44 3 0
BITMAP
3FFFFFFC
3FFFFFFC
3FFFFFFC
3FFFFFFC
3FFFFFF8
000003F8
000003F0
000007E0
000007E0
00000FC0
00001F80
00001F80
00003F00
00007E00
00007E00
0000FC00
0001F800
0001F800
0003F000
0003F000
0007E000
000FC000
000FC000
001F8000
003F0000
003F0000
007E0000
00FC0000
00FC0000
01F80000
03F00000
03F00000
07E00000
07E00000
0FC00000
1F800000
1F800000
3F000000
7E000000
7FFFFFFC
FFFFFFFC
FFFFFFFC
FFFFFFFC
FFFFFFFC
ENDCHAR
STARTCHAR 005B
ENCODING 91
SWIDTH 300 0
DWIDTH 20 0
BBX 12 57 6 -10
BITMAP
FFF0
FFF0
FFF0
F000
F000
F000
F000
F000
F000
F000
F000
F000
F000
F000
F000
F000
F000
F000
F000
F000
F000
F000
F000
F000
F000
F000
F000
F000
F000
F000
F000
F000
F000
F000
F000
F000
F000
F000
F000
F000
F000
F000
F000
F000
F000
F000
F000
F000
F000
F000
F000
F000
F000
F000
FFF0
FFF0
FFF0
ENDCHAR
STARTCHAR 005C
ENCODING 92
SWIDTH 345 0
DWIDTH 23 0
BBX 22 58 1 -11
BITMAP
F00000
F00000
780000
780000
780000
3C0000
3C0000
3C0000
1C0000
1E0000
1E0000
1E0000
0F0000
0F0000
0F0000
078000
078000
078000
03C000
03C000
03C000
01C000
01E000
01E000
01E000
00F000
00F000
00F000
007800
007800
007800
003C00
003C00
003C00
003C00
001E00
001E00
001E00
000F00
000F00
000F00
000780
000780
000780
0003C0
0003C0
0003C0
0003C0
0001E0
0001E0
0001E0
0000F0
0000F0
0000F0
000078
000078
000078
00003C
ENDCHAR
STARTCHAR 005D
ENCODING 93
SWIDTH 300 0
DWIDTH 20 0
BBX 12 57 2 -10
BITMAP
FFF0
FFF0
FFF0
00F0
00F0
00F0
00F0
00F0
00F0
00F0
00F0
00F0
00F0
00F0
00F0
00F0
00F0
00F0
00F0
00F0
00F0
00F0
00F0
00F0
00F0
00F0
00F0
00F0
00F0
00F0
00F0
00F0
00F0
00F0
00F0
00F0
00F0
00F0
00F0
00F0
00F0
00F0
00F0
00F0
00F0
00F0
00F0
00F0
00F0
00F0
00F0
00F0
00F0
00F0
FFF0
FFF0
FFF0
ENDCHAR
STARTCHAR 005E
ENCODING 94
SWIDTH 495 0
DWIDTH 33 0
BBX 25 26 4 19
BITMAP
003E0000
003F0000
007F0000
007F0000
00FF8000
00F78000
00F7C000
01F3C000
01E3C000
03E3E000
03C1E000
03C1F000
07C1F000
0780F000
0F80F800
0F807800
0F007C00
1F007C00
1E003C00
3E003E00
3E003E00
3C001E00
7C001F00
7C001F00
F8000F80
F8000F80
ENDCHAR
STARTCHAR 005F
ENCODING 95
SWIDTH 495 0
DWIDTH 33 0
BBX 32 4 1 -9
BITMAP
FFFFFFFF
FFFFFFFF
FFFFFFFF
FFFFFFFF
ENDCHAR
STARTCHAR 0060
ENCODING 96
SWIDTH 540 0
DWIDTH 36 0
BBX 12 13 9 38
BITMAP
1000
3800
7C00
FC00
FE00
7F00
3F80
1FC0
0FE0
07E0
01F0
00F0
0060
ENDCHAR
STARTCHAR 0061
ENCODING 97
SWIDTH 510 0
DWIDTH 34 0
BBX 26 34 3 -1
BITMAP
003FE000
01FFF800
07FFFC00
1FFFFE00
3FFFFF00
1F807F00
1C001F80
08001F80
00000F80
00000FC0
00000FC0
00000FC0
00000FC0
0001FFC0
003FFFC0
00FFFFC0
07FFEFC0
0FFC0FC0
1FE00FC0
3F800FC0
7E000FC0
7E000FC0
7C000FC0
7C000FC0
FC000FC0
FC000FC0
7C001FC0
7E003FC0
7F00FFC0
3FEFF7C0
3FFFE7C0
1FFFC7C0
0FFF07C0
01F80000
ENDCHAR
STARTCHAR 0062
ENCODING 98
SWIDTH 555 0
DWIDTH 37 0
BBX 29 48 5 -1
BITMAP
FC000000
FC000000
FC000000
FC000000
FC000000
FC000000
FC000000
FC000000
FC000000
FC000000
FC000000
FC000000
FC000000
FC000000
FC07F000
FC3FFC00
FC7FFF00
FDFFFF80
FFFFFFC0
FFE01FC0
FF800FE0
FF0007E0
FC0003F0
FC0003F0
FC0003F0
FC0001F0
FC0001F8
FC0001F8
FC0001F8
FC0001F8
FC0001F8
FC0001F8
FC0001F8
FC0001F8
FC0001F0
FC0001F0
FC0003F0
FC0003F0
FC0007E0
FC0007E0
FE000FE0
FF001FC0
FFC03F80
FFFFFF00
FBFFFF00
F8FFFC00
F87FF800
000FC000
ENDCHAR
STARTCHAR 0063
ENCODING 99
SWIDTH 450 0
DWIDTH 30 0
BBX 25 34 3 -1
BITMAP
000FE000
007FFC00
01FFFF00
03FFFF80
07FFFF80
0FF00F00
1FC00600
1F800000
3F000000
3F000000
7E000000
7E000000
7C000000
FC000000
FC000000
FC000000
FC000000
FC000000
FC000000
FC000000
FC000000
FC000000
7E000000
7E000000
7F000000
3F000000
3F800100
1FC00300
0FF00F80
0FFFFF80
07FFFF80
01FFFF00
00FFFC00
001FE000
ENDCHAR
STARTCHAR 0064
ENCODING 100
SWIDTH 555 0
DWIDTH 37 0
BBX 29 48 3 -1
BITMAP
000001F8
000001F8
000001F8
000001F8
000001F8
000001F8
000001F8
000001F8
000001F8
000001F8
000001F8
000001F8
000001F8
000001F8
001FC1F8
00FFF1F8
01FFFDF8
07FFFFF8
0FFFFFF8
0FF01FF8
1FC007F8
3F8003F8
3F0001F8
7F0001F8
7E0001F8
7E0001F8
7C0001F8
FC0001F8
FC0001F8
FC0001F8
FC0001F8
FC0001F8
FC0001F8
FC0001F8
FC0001F8
FC0001F8
7E0001F8
7E0001F8
7E0001F8
3F0001F8
3F8003F8
3F800FF8
1FE01FF8
0FFFFEF8
07FFFCF8
03FFF8F8
01FFE0F8
003F8000
ENDCHAR
STARTCHAR 0065
ENCODING 101
SWIDTH 495 0
DWIDTH 33 0
BBX 28 34 3 -1
BITMAP
001FE000
007FF800
01FFFE00
03FFFF00
07F8FF80
0FC01F80
1F800FC0
3F0007C0
3E0003E0
7E0003E0
7C0003E0
7C0001E0
7C0001E0
F80001F0
FFFFFFF0
FFFFFFF0
FFFFFFE0
FFFFFFE0
FC000000
FC000000
FC000000
7C000000
7C000000
7E000000
7E000000
3F000000
3F800000
1FC00080
0FF00380
07FE3FC0
03FFFFC0
01FFFF80
007FFE00
000FF000
ENDCHAR
STARTCHAR 0066
ENCODING 102
SWIDTH 285 0
DWIDTH 19 0
BBX 19 48 2 0
BITMAP
003FC0
00FFE0
01FFE0
03FFE0
03FDC0
07E000
07E000
07C000
07C000
0FC000
0FC000
0FC000
0FC000
0FC000
0FC000
0FC000
FFFF80
FFFF80
FFFF80
FFFF80
0FC000
0FC000
0FC000
0FC000
0FC000
0FC000
0FC000
0FC000
0FC000
0FC000
0FC000
0FC000
0FC000
0FC000
0FC000
0FC000
0FC000
0FC000
0FC000
0FC000
0FC000
0FC000
0FC000
0FC000
0FC000
0FC000
0FC000
0FC000
ENDCHAR
STARTCHAR 0067
ENCODING 103
SWIDTH 510 0
DWIDTH 34 0
BBX 30 48 3 -15
BITMAP
003F8000
01FFFFF8
03FFFFF8
0FFFFFF8
0FE0FFF8
1F803E00
3F001F00
3E001F00
3E000F80
7E000F80
7E000F80
7E000F80
7E000F80
7E000F80
3E000F80
3E001F80
3F001F00
1F803F00
0FC07E00
0FFFFC00
07FFF800
0FFFF000
1F3F8000
1E000000
3E000000
3C000000
3E000000
3E000000
3F000000
3FFFE000
1FFFFF80
0FFFFFE0
07FFFFF0
1F7FFFF8
3C0003F8
7C0000FC
780000FC
F80000FC
F80000FC
F80000F8
F80000F8
FC0001F0
7E0007F0
7F801FE0
3FFFFFC0
1FFFFF00
07FFFC00
00FFC000
ENDCHAR
STARTCHAR 0068
ENCODING 104
SWIDTH 540 0
DWIDTH 36 0
BBX 26 47 5 0
BITMAP
FC000000
FC000000
FC000000
FC000000
FC000000
FC000000
FC000000
FC000000
FC000000
FC000000
FC000000
FC000000
FC000000
FC000000
FC07F000
FC1FFC00
FC7FFE00
FCFFFF00
FDFFFF80
FFE03F80
FFC01FC0
FF000FC0
FE000FC0
FC0007C0
FC0007C0
FC0007C0
FC0007C0
FC0007C0
FC0007C0
FC0007C0
FC0007C0
FC0007C0
FC0007C0
FC0007C0
FC0007C0
FC0007C0
FC0007C0
FC0007C0
FC0007C0
FC0007C0
FC0007C0
FC0007C0
FC0007C0
FC0007C0
FC0007C0
FC0007C0
FC0007C0
ENDCHAR
STARTCHAR 0069
ENCODING 105
SWIDTH 240 0
DWIDTH 16 0
BBX 8 46 4 0
BITMAP
3C
7E
7F
FF
7F
7E
3C
00
00
00
00
00
00
00
7E
7E
7E
7E
7E
7E
7E
7E
7E
7E
7E
7E
7E
7E
7E
7E
7E
7E
7E
7E
7E
7E
7E
7E
7E
7E
7E
7E
7E
7E
7E
7E
ENDCHAR
STARTCHAR 006A
ENCODING 106
SWIDTH 240 0
DWIDTH 16 0
BBX 15 61 -3 -15
BITMAP
0078
00FC
00FE
00FE
00FE
00FC
0078
0000
0000
0000
0000
0000
0000
0000
007C
007C
007C
007C
007C
007C
007C
007C
007C
007C
007C
007C
007C
007C
007C
007C
007C
007C
007C
007C
007C
007C
007C
007C
007C
007C
007C
007C
007C
007C
007C
007C
007C
007C
007C
007C
007C
007C
00FC
00FC
00FC
01F8
77F8
7FF0
7FF0
FFE0
7F80
ENDCHAR
STARTCHAR 006B
ENCODING 107
SWIDTH 495 0
DWIDTH 33 0
BBX 27 47 5 0
BITMAP
FC000000
FC000000
FC000000
FC000000
FC000000
FC000000
FC000000
FC000000
FC000000
FC000000
FC000000
FC000000
FC000000
FC000000
FC000000
FC001FC0
FC001F80
FC003F00
FC007E00
FC00FC00
FC01F800
FC01F000
FC03F000
FC07E000
FC0FC000
FC1F8000
FC3F0000
FC3E0000
FC7E0000
FCFF0000
FDFF8000
FFFF8000
FFEFC000
FFC7E000
FF83E000
FF83F000
FF01F800
FE00F800
FC00FC00
FC007E00
FC007E00
FC003F00
FC001F80
FC001F80
FC000FC0
FC000FC0
FC0007E0
ENDCHAR
STARTCHAR 006C
ENCODING 108
SWIDTH 255 0
DWIDTH 17 0
BBX 9 48 5 -1
BITMAP
FC00
FC00
FC00
FC00
FC00
FC00
FC00
FC00
FC00
FC00
FC00
FC00
FC00
FC00
FC00
FC00
FC00
FC00
FC00
FC00
FC00
FC00
FC00
FC00
FC00
FC00
FC00
FC00
FC00
FC00
FC00
FC00
FC00
FC00
FC00
FC00
FC00
FC00
FC00
FC00
FC00
FC00
7C00
7F80
7F80
7F80
3F80
0F80
ENDCHAR
STARTCHAR 006D
ENCODING 109
SWIDTH 825 0
DWIDTH 55 0
BBX 45 33 5 0
BITMAP
0007E000FE00
F83FF803FF80
F87FFE07FFC0
F8FFFE1FFFE0
F9FFFF3FFFF0
FFE07F7E07F0
FF803FF803F0
FF001FF001F8
FE001FE001F8
FC000FC001F8
FC000FC000F8
FC000FC000F8
FC000FC000F8
FC000FC000F8
FC000FC000F8
FC000FC000F8
FC000FC000F8
FC000FC000F8
FC000FC000F8
FC000FC000F8
FC000FC000F8
FC000FC000F8
FC000FC000F8
FC000FC000F8
FC000FC000F8
FC000FC000F8
FC000FC000F8
FC000FC000F8
FC000FC000F8
FC000FC000F8
FC000FC000F8
FC000FC000F8
FC000FC000F8
ENDCHAR
STARTCHAR 006E
ENCODING 110
SWIDTH 540 0
DWIDTH 36 0
BBX 26 33 5 0
BITMAP
0007F000
F81FFC00
F87FFE00
F8FFFF00
F9FFFF80
FFE03F80
FFC01FC0
FF000FC0
FE000FC0
FC0007C0
FC0007C0
FC0007C0
FC0007C0
FC0007C0
FC0007C0
FC0007C0
FC0007C0
FC0007C0
FC0007C0
FC0007C0
FC0007C0
FC0007C0
FC0007C0
FC0007C0
FC0007C0
FC0007C0
FC0007C0
FC0007C0
FC0007C0
FC0007C0
FC0007C0
FC0007C0
FC0007C0
ENDCHAR
STARTCHAR 006F
ENCODING 111
SWIDTH 540 0
DWIDTH 36 0
BBX 30 34 3 -1
BITMAP
001FE000
007FFC00
01FFFE00
03FFFF80
07FFFFC0
0FE01FC0
1FC00FE0
3F8007F0
3F0003F0
7E0001F8
7E0001F8
7E0000F8
7C0000FC
FC0000FC
FC0000FC
FC0000FC
FC0000FC
FC0000FC
FC0000FC
FC0000FC
FC0000FC
7C0000FC
7E0000F8
7E0001F8
7E0001F8
3F0003F0
3F8003F0
1FC007E0
0FE01FC0
07FFFFC0
03FFFF80
01FFFE00
007FFC00
001FE000
ENDCHAR
STARTCHAR 0070
ENCODING 112
SWIDTH 555 0
DWIDTH 37 0
BBX 29 47 5 -14
BITMAP
0007F000
F83FFC00
F87FFF00
F9FFFF80
FBFFFFC0
FFE01FC0
FF800FE0
FF0007E0
FE0003F0
FC0003F0
FC0003F0
FC0001F0
FC0001F8
FC0001F8
FC0001F8
FC0001F8
FC0001F8
FC0001F8
FC0001F8
FC0001F8
FC0001F8
FC0001F0
FC0003F0
FC0003F0
FC0003E0
FC0007E0
FE000FE0
FF001FC0
FFC03F80
FFFFFF00
FFFFFF00
FDFFFC00
FC7FF800
FC0FC000
FC000000
FC000000
FC000000
FC000000
FC000000
FC000000
FC000000
FC000000
FC000000
FC000000
FC000000
FC000000
FC000000
ENDCHAR
STARTCHAR 0071
ENCODING 113
SWIDTH 555 0
DWIDTH 37 0
BBX 29 47 3 -14
BITMAP
001FC000
00FFF0F8
01FFFCF8
03FFFEF8
07FFFFF8
0FF01FF8
1FC007F8
3F8003F8
3F0001F8
3F0001F8
7E0001F8
7E0001F8
7C0001F8
FC0001F8
FC0001F8
FC0001F8
FC0001F8
FC0001F8
FC0001F8
FC0001F8
FC0001F8
FC0001F8
7E0001F8
7E0001F8
7E0001F8
3F0001F8
3F8003F8
3F800FF8
1FE01FF8
0FFFFFF8
07FFFDF8
03FFF9F8
01FFE1F8
003F81F8
000001F8
000001F8
000001F8
000001F8
000001F8
000001F8
000001F8
000001F8
000001F8
000001F8
000001F8
000001F8
000001F8
ENDCHAR
STARTCHAR 0072
ENCODING 114
SWIDTH 345 0
DWIDTH 23 0
BBX 18 33 5 0
BITMAP
000FC0
F83FC0
F87FC0
F8FFC0
F9FF80
FBF000
FBC000
FF8000
FF0000
FE0000
FE0000
FC0000
FC0000
FC0000
FC0000
FC0000
FC0000
FC0000
FC0000
FC0000
FC0000
FC0000
FC0000
FC0000
FC0000
FC0000
FC0000
FC0000
FC0000
FC0000
FC0000
FC0000
FC0000
ENDCHAR
STARTCHAR 0073
ENCODING 115
SWIDTH 420 0
DWIDTH 28 0
BBX 24 34 2 -1
BITMAP
007F00
03FFE0
07FFF8
0FFFFC
1FE1FC
3F0078
3E0018
3E0000
7E0000
7E0000
3E0000
3F0000
3F8000
1FE000
0FFC00
07FF80
03FFE0
00FFF0
001FFC
0007FC
0000FE
00007E
00003F
00003F
00001F
00003F
20003F
78003E
7E007E
FFC3FC
7FFFF8
1FFFF0
07FFE0
00FF00
ENDCHAR
STARTCHAR 0074
ENCODING 116
SWIDTH 345 0
DWIDTH 23 0
BBX 20 42 2 -1
BITMAP
07C000
07C000
07C000
07C000
07C000
07C000
07C000
07C000
07C000
FFFFE0
FFFFE0
FFFFE0
FFFFE0
0FC000
0FC000
0FC000
0FC000
0FC000
0FC000
0FC000
0FC000
0FC000
0FC000
0FC000
0FC000
0FC000
0FC000
0FC000
0FC000
0FC000
0FC000
0FC000
0FC000
07C000
07C000
07E000
07F000
03FFE0
03FFE0
01FFE0
00FFF0
003F80
ENDCHAR
STARTCHAR 0075
ENCODING 117
SWIDTH 540 0
DWIDTH 36 0
BBX 26 33 5 -1
BITMAP
FC000FC0
FC000FC0
FC000FC0
FC000FC0
FC000FC0
FC000FC0
FC000FC0
FC000FC0
FC000FC0
FC000FC0
FC000FC0
FC000FC0
FC000FC0
FC000FC0
FC000FC0
FC000FC0
FC000FC0
FC000FC0
FC000FC0
FC000FC0
FC000FC0
FC000FC0
FC000FC0
FC000FC0
FC001FC0
7E003FC0
7E007FC0
7F01F7C0
3FFFE7C0
3FFFC7C0
1FFF87C0
0FFF07C0
03F80000
ENDCHAR
STARTCHAR 0076
ENCODING 118
SWIDTH 465 0
DWIDTH 31 0
BBX 29 32 1 0
BITMAP
FC0000F8
FC0001F8
7C0001F0
7E0001F0
7E0003F0
3E0003E0
3F0003E0
1F0007E0
1F0007C0
1F8007C0
0F800FC0
0F800F80
0FC00F80
07C01F00
07C01F00
07E01F00
03E03E00
03E03E00
01F03E00
01F07C00
01F07C00
00F87C00
00F8F800
00F8F800
007CF800
007CF000
007DF000
003FE000
003FE000
001FE000
001FC000
001FC000
ENDCHAR
STARTCHAR 0077
ENCODING 119
SWIDTH 720 0
DWIDTH 48 0
BBX 44 32 2 0
BITMAP
F8001F8001F0
FC001F8001F0
FC001F8003F0
7C003FC003E0
7C003FC003E0
7E003FC003E0
7E003FE007E0
3E007BE007C0
3E0079E007C0
3F0079E007C0
1F0079F00F80
1F00F1F00F80
1F00F0F00F80
1F80F0F00F80
0F81F0F81F00
0F81E0F81F00
0F81E0781F00
07C1E07C1F00
07C3E07C3E00
07C3C03C3E00
07E3C03C3E00
03E3C03E3C00
03E7C03E7C00
03E7801E7C00
03E7801E7C00
01F7801F7800
01FF001F7800
01FF000FF800
00FF000FF800
00FF000FF000
00FE000FF000
00FE0007F000
ENDCHAR
STARTCHAR 0078
ENCODING 120
SWIDTH 450 0
DWIDTH 30 0
BBX 27 32 1 0
BITMAP
7E0007E0
3F000FC0
3F000FC0
1F801F80
0F801F00
0FC03F00
07E03E00
03E07C00
03F07C00
01F0F800
01F8F800
00FDF000
007FE000
007FE000
003FC000
003FC000
003FC000
007FC000
00FFE000
00FBF000
01F1F000
01F1F800
03E0FC00
07E0FC00
07C07E00
0FC03F00
1F803F00
1F001F80
3F000FC0
3E000FC0
7E0007E0
FC0003E0
ENDCHAR
STARTCHAR 0079
ENCODING 121
SWIDTH 465 0
DWIDTH 31 0
BBX 29 46 1 -14
BITMAP
FC0000F8
FC0000F8
7C0001F0
7E0001F0
3E0001F0
3F0003E0
3F0003E0
1F0003E0
1F8007C0
0F8007C0
0F8007C0
0FC00F80
07C00F80
07C00F80
03E01F00
03E01F00
03F01F00
01F03E00
01F03E00
00F83C00
00F87C00
00F87C00
007C7800
007C7800
003CF800
003EF000
003EF000
001FF000
001FE000
000FE000
000FE000
000FC000
0007C000
000FC000
000F8000
000F8000
001F0000
001F0000
003F0000
007E0000
00FC0000
3FFC0000
3FF80000
3FF00000
7FE00000
3F000000
ENDCHAR
STARTCHAR 007A
ENCODING 122
SWIDTH 420 0
DWIDTH 28 0
BBX 25 32 2 0
BITMAP
3FFFFF00
3FFFFF00
3FFFFF00
3FFFFF00
00007E00
0000FC00
0000FC00
0001F800
0003F000
0003F000
0007E000
000FC000
000F8000
001F8000
003F0000
007E0000
007E0000
00FC0000
01F80000
01F80000
03F00000
07E00000
07C00000
0FC00000
1F800000
1F000000
3F000000
7E000000
FFFFFF80
FFFFFF80
FFFFFF80
FFFFFF80
ENDCHAR
STARTCHAR 007B
ENCODING 123
SWIDTH 300 0
DWIDTH 20 0
BBX 16 57 2 -10
BITMAP
007F
00FF
01FF
03F0
03E0
03C0
03C0
07C0
07C0
07C0
07C0
07C0
03C0
03C0
03C0
03C0
03C0
03C0
03C0
03C0
03C0
03C0
03C0
03C0
07C0
0FC0
7F80
FF00
FE00
FF00
1F80
07C0
07C0
03C0
03C0
03C0
03C0
03C0
03C0
03C0
03C0
03C0
03C0
03C0
03C0
07C0
07C0
07C0
07C0
07C0
03C0
03C0
03E0
03F0
01FF
00FF
007F
ENDCHAR
STARTCHAR 007C
ENCODING 124
SWIDTH 240 0
DWIDTH 16 0
BBX 4 67 6 -17
BITMAP
F0
F0
F0
F0
F0
F0
F0
F0
F0
F0
F0
F0
F0
F0
F0
F0
F0
F0
F0
F0
F0
F0
F0
F0
F0
F0
F0
F0
F0
F0
F0
F0
F0
F0
F0
F0
F0
F0
F0
F0
F0
F0
F0
F0
F0
F0
F0
F0
F0
F0
F0
F0
F0
F0
F0
F0
F0
F0
F0
F0
F0
F0
F0
F0
F0
F0
F0
ENDCHAR
STARTCHAR 007D
ENCODING 125
SWIDTH 300 0
DWIDTH 20 0
BBX 16 57 2 -10
BITMAP
FE00
FF80
FFC0
0FC0
07C0
03E0
03E0
03E0
03E0
03E0
03E0
03E0
03E0
03E0
03E0
03E0
03C0
03C0
03C0
03C0
03C0
03C0
03C0
03E0
03E0
01F0
01FF
00FF
003F
00FF
01F8
01F0
03E0
03C0
03C0
03C0
03C0
03C0
03C0
03C0
03C0
03E0
03E0
03E0
03E0
03E0
03E0
03E0
03E0
03E0
03E0
03E0
07C0
0FC0
FFC0
FF80
FE00
ENDCHAR
STARTCHAR 007E
ENCODING 126
SWIDTH 495 0
DWIDTH 33 0
BBX 27 10 3 17
BITMAP
07E00000
1FF00000
3FFC00C0
7FFE01E0
FC7F01E0
F01FC7E0
F00FFFC0
6007FF80
0001FF00
00007C00
ENDCHAR
STARTCHAR 00A0
ENCODING 160
SWIDTH 195 0
DWIDTH 13 0
BBX 0 0 0 0
BITMAP
ENDCHAR
STARTCHAR 00A1
ENCODING 161
SWIDTH 285 0
DWIDTH 19 0
BBX 8 45 6 -12
BITMAP
3C
7E
FE
FF
FF
FE
FE
7C
00
00
00
00
00
00
3C
3C
3C
3C
3C
3C
3C
7C
7C
7C
7C
7C
7C
7C
7C
7C
7C
7C
7C
7C
7C
7C
7C
7C
7C
7C
7C
7C
7C
7C
7C
ENDCHAR
STARTCHAR 00A2
ENCODING 162
SWIDTH 495 0
DWIDTH 33 0
BBX 26 45 4 -2
BITMAP
00078000
00078000
00078000
00078000
00078000
00078000
00078000
003FFC00
00FFFE00
03FFFF80
07FFFFC0
0FFF9F80
1FE78700
3F878000
3F078000
7E078000
7E078000
7C078000
7C078000
FC078000
FC078000
FC078000
FC078000
FC078000
FC078000
FC078000
FC078000
7C078000
7E078000
7E078000
3F078000
3F878100
1FC78380
0FFF8FC0
07FFFFC0
03FFFF80
01FFFE00
007FF800
00078000
00078000
00078000
00078000
00078000
00078000
00078000
ENDCHAR
STARTCHAR 00A3
ENCODING 163
SWIDTH 495 0
DWIDTH 33 0
BBX 26 44 4 0
BITMAP
000FF000
007FFC00
00FFFF00
01FFFF80
03FFFFC0
07F00FC0
07E00780
0FC00300
0FC00000
0F800000
0F800000
1F800000
1F800000
1F800000
0F800000
0F800000
0F800000
0FC00000
0FC00000
07C00000
07C00000
FFFFF800
FFFFF800
FFFFF800
FFFFF800
03E00000
01F00000
01F00000
01F00000
01F00000
01F00000
03E00000
03E00000
03E00000
07E00000
07C00000
0F800000
0F800000
1F000000
7FFFFFC0
FFFFFFC0
FFFFFFC0
FFFFFFC0
FFFFFFC0
ENDCHAR
STARTCHAR 00A4
ENCODING 164
SWIDTH 495 0
DWIDTH 33 0
BBX 29 30 2 7
BITMAP
20000020
70000070
F81FC0F8
FC7FF1F8
7FFFFFF0
3FFFFFE0
1FF07FC0
0FC01F80
1F800FC0
1F0007C0
3F0007E0
3E0003E0
3E0003E0
3E0003F0
3E0003F0
3E0003F0
3E0003F0
3E0003E0
3E0003E0
3F0003E0
1F0007C0
1F800FC0
0FC01F80
1FF07FC0
3FFFFFE0
7FFFFFF0
FC7FF1F8
F81FC0F8
70000070
20000020
ENDCHAR
STARTCHAR 00A5
ENCODING 165
SWIDTH 495 0
DWIDTH 33 0
BBX 29 43 2 0
BITMAP
FC0000F8
FC0001F8
7C0001F0
7E0003F0
3E0003E0
3F0003E0
1F0007C0
1F8007C0
0F800F80
0FC00F80
07C01F00
07C01F00
03E03E00
03E03E00
01F03C00
01F07C00
00F87800
00F8F800
0078F000
007DF000
003DE000
003FE000
7FFFFFF0
7FFFFFF0
7FFFFFF0
000F8000
000F8000
000F8000
000F8000
7FFFFFF0
7FFFFFF0
7FFFFFF0
000F8000
000F8000
000F8000
000F8000
000F8000
000F8000
000F8000
000F8000
000F8000
000F8000
000F8000
ENDCHAR
STARTCHAR 00A6
ENCODING 166
SWIDTH 240 0
DWIDTH 16 0
BBX 4 67 6 -17
BITMAP
F0
F0
F0
F0
F0
F0
F0
F0
F0
F0
F0
F0
F0
F0
F0
F0
F0
F0
F0
F0
F0
F0
F0
F0
F0
F0
F0
F0
F0
F0
F0
00
00
00
00
00
F0
F0
F0
F0
F0
F0
F0
F0
F0
F0
F0
F0
F0
F0
F0
F0
F0
F0
F0
F0
F0
F0
F0
F0
F0
F0
F0
F0
F0
F0
F0
ENDCHAR
STARTCHAR 00A7
ENCODING 167
SWIDTH 495 0
DWIDTH 33 0
BBX 27 49 3 -4
BITMAP
007FE000
01FFF800
03FFFE00
07FFFF00
07E07E00
0FC01E00
0F800400
0F800000
0F800000
0F800000
0F800000
0FE00000
07F00000
07FC0000
07FF0000
1FFFC000
3F7FF000
3E1FFC00
7C03FE00
F800FF80
F8003F80
F8001FC0
F80007C0
F80007E0
F80003E0
FC0003E0
7E0003E0
7F8003E0
3FC003E0
1FF803E0
0FFE07C0
03FF8F80
00FFFF80
003FFE00
000FFC00
0003FC00
0000FE00
00007E00
00003E00
00003E00
00003E00
00003E00
1C003E00
3E007E00
7F81FC00
3FFFFC00
1FFFF800
07FFE000
01FF8000
ENDCHAR
STARTCHAR 00A8
ENCODING 168
SWIDTH 540 0
DWIDTH 36 0
BBX 20 7 8 39
BITMAP
180080
7C03E0
7E07F0
FE07F0
FE07F0
7C03E0
3801C0
ENDCHAR
STARTCHAR 00A9
ENCODING 169
SWIDTH 750 0
DWIDTH 50 0
BBX 43 44 3 -1
BITMAP
00007FE00000
0003FFFC0000
001FFFFF0000
003F001FC000
00FC0003F000
01F00000F800
03C000007C00
078000003E00
0F0000001E00
0E001FC00F00
1E007FF00780
1C01FFF80380
3803FFFE03C0
3807E03C01C0
780FC01801C0
700F800001E0
701F000000E0
701E000000E0
701E000000E0
F03E000000E0
E03E000000E0
E03E000000E0
E03E000000E0
F03E000000E0
F03E000000E0
701E000000E0
701E000000E0
701F000000E0
700F800001C0
780FC00C01C0
3807E03E03C0
3C03FFFE0380
1C01FFFC0780
1E00FFF00700
0F001FC00F00
078000001E00
07C000003C00
03E000007800
01F00000F000
00FC0003E000
003F801FC000
001FFFFF0000
0003FFFC0000
00007FC00000
ENDCHAR
STARTCHAR 00AA
ENCODING 170
SWIDTH 345 0
DWIDTH 23 0
BBX 18 22 2 26
BITMAP
01F800
0FFE00
3FFF00
3FBF80
380780
0007C0
0003C0
0003C0
000FC0
01FFC0
0FFFC0
1F83C0
3E03C0
7803C0
7803C0
7803C0
F803C0
780FC0
7C1FC0
7FFFC0
3FF3C0
0FC3C0
ENDCHAR
STARTCHAR 00AB
ENCODING 171
SWIDTH 435 0
DWIDTH 29 0
BBX 22 25 3 4
BITMAP
004010
00E038
01E07C
03C078
07C0F0
0F81E0
1F03E0
3E07C0
3E0F80
7C1F00
F81F00
F01E00
F01C00
F01E00
F81F00
7C1F00
3E0F80
1E07C0
0F03E0
0F81E0
07C0F0
03C078
01E03C
00E038
000010
ENDCHAR
STARTCHAR 00AC
ENCODING 172
SWIDTH 495 0
DWIDTH 33 0
BBX 29 17 2 7
BITMAP
FFFFFFF8
FFFFFFF8
FFFFFFF8
FFFFFFF8
000000F8
000000F8
000000F8
000000F8
000000F8
000000F8
000000F8
000000F8
000000F8
000000F8
000000F8
000000F8
000000F8
ENDCHAR
STARTCHAR 00AD
ENCODING 173
SWIDTH 315 0
DWIDTH 21 0
BBX 15 4 3 15
BITMAP
FFFE
FFFE
FFFE
FFFE
ENDCHAR
STARTCHAR 00AE
ENCODING 174
SWIDTH 420 0
DWIDTH 28 0
BBX 25 26 2 22
BITMAP
007F0000
03FFC000
07E7F000
1E007800
3C003C00
38001E00
71FE0E00
71FF8700
E1C78700
E1C38700
C1C1C300
C1C38380
C1C38380
C1FF0380
C1FE0380
C1C70380
E1C70300
E1C38700
E1C38700
71C1CE00
78000E00
3C001C00
1E007800
0F81F000
07FFE000
01FF8000
ENDCHAR
STARTCHAR 00AF
ENCODING 175
SWIDTH 540 0
DWIDTH 36 0
BBX 18 4 9 40
BITMAP
FFFFC0
FFFFC0
FFFFC0
FFFFC0
ENDCHAR
STARTCHAR 00B0
ENCODING 176
SWIDTH 330 0
DWIDTH 22 0
BBX 16 17 3 29
BITMAP
07E0
1FF8
3FFC
7C3E
780F
F00F
E007
E007
E007
E007
E007
F00F
780F
7C3E
3FFC
1FF8
07E0
ENDCHAR
STARTCHAR 00B1
ENCODING 177
SWIDTH 495 0
DWIDTH 33 0
BBX 29 37 2 0
BITMAP
000F8000
000F8000
000F8000
000F8000
000F8000
000F8000
000F8000
000F8000
000F8000
000F8000
000F8000
000F8000
000F8000
FFFFFFF8
FFFFFFF8
FFFFFFF8
FFFFFFF8
000F8000
000F8000
000F8000
000F8000
000F8000
000F8000
000F8000
000F8000
000F8000
000F8000
000F8000
000F8000
00000000
00000000
00000000
00000000
FFFFFFF8
FFFFFFF8
FFFFFFF8
FFFFFFF8
ENDCHAR
STARTCHAR 00B2
ENCODING 178
SWIDTH 360 0
DWIDTH 24 0
BBX 18 27 3 26
BITMAP
07F000
1FFC00
3FFE00
7FFF00
F81F00
F00F80
600F80
000780
000780
000780
000780
000F00
000F00
001F00
003E00
003C00
007800
00F800
01F000
03E000
07C000
0F8000
3F0000
7FFFC0
FFFFC0
FFFFC0
FFFFC0
ENDCHAR
STARTCHAR 00B3
ENCODING 179
SWIDTH 360 0
DWIDTH 24 0
BBX 19 27 2 26
BITMAP
01F800
07FE00
1FFF80
3FBF80
3C07C0
1807C0
0003C0
0003C0
0003C0
0007C0
000F80
003F00
01FE00
01FE00
01FF80
000FC0
0003C0
0003E0
0001E0
0001E0
0001E0
7001E0
F803E0
7E0FC0
3FFF80
0FFF00
07FE00
ENDCHAR
STARTCHAR 00B4
ENCODING 180
SWIDTH 540 0
DWIDTH 36 0
BBX 12 14 15 38
BITMAP
0080
01C0
01E0
03F0
07F0
0FE0
1FC0
3F80
3F00
7E00
FC00
F800
7000
2000
ENDCHAR
STARTCHAR 00B5
ENCODING 181
SWIDTH 555 0
DWIDTH 37 0
BBX 31 44 5 -12
BITMAP
FC000FC0
FC000FC0
FC000FC0
FC000FC0
FC000FC0
FC000FC0
FC000FC0
FC000FC0
FC000FC0
FC000FC0
FC000FC0
FC000FC0
FC000FC0
FC000FC0
FC000FC0
FC000FC0
FC000FC0
FC000FC0
FC000FC0
FC000FC0
FC000FC0
FC000FC0
FC000FC0
FC000FC0
FE001FC0
FE003FC0
FF007FC0
FF80F7C0
FFFFF7FC
FFFFE7FC
FFFFC3FC
FDFF81FE
FC7E00FC
FC000000
FC000000
FC000000
FC000000
FC000000
FC000000
FC000000
FC000000
FC000000
FC000000
FC000000
ENDCHAR
STARTCHAR 00B6
ENCODING 182
SWIDTH 555 0
DWIDTH 37 0
BBX 28 49 3 -5
BITMAP
001FE3F0
01FFE3F0
07FFE3F0
0FFFE3F0
1FFFE3F0
3FFFE3F0
3FFFE3F0
7FFFE3F0
7FFFE3F0
FFFFE3F0
FFFFE3F0
FFFFE3F0
FFFFE3F0
FFFFE3F0
FFFFE3F0
FFFFE3F0
FFFFE3F0
FFFFE3F0
FFFFE3F0
7FFFE3F0
7FFFE3F0
7FFFE3F0
3FFFE3F0
1FFFE3F0
0FFFE3F0
07FFE3F0
03FFE3F0
007FE3F0
0007E3F0
000003F0
000003F0
000003F0
000003F0
000003F0
000003F0
000003F0
000003F0
000003F0
000003F0
000003F0
000003F0
000003F0
000003F0
000003F0
000003F0
000003F0
000003F0
000003F0
000003F0
ENDCHAR
STARTCHAR 00B7
ENCODING 183
SWIDTH 255 0
DWIDTH 17 0
BBX 8 8 4 17
BITMAP
3E
7F
7F
FF
FF
7F
7E
3C
ENDCHAR
STARTCHAR 00B8
ENCODING 184
SWIDTH 540 0
DWIDTH 36 0
BBX 12 15 12 -15
BITMAP
0700
0F00
0F00
1E00
1F00
3FC0
07E0
01F0
01F0
01F0
01E0
07E0
FFC0
FF00
7800
ENDCHAR
STARTCHAR 00B9
ENCODING 185
SWIDTH 360 0
DWIDTH 24 0
BBX 10 26 6 26
BITMAP
07C0
1FC0
FFC0
FFC0
FFC0
07C0
07C0
07C0
07C0
07C0
07C0
07C0
07C0
07C0
07C0
07C0
07C0
07C0
07C0
07C0
07C0
07C0
07C0
07C0
07C0
07C0
ENDCHAR
STARTCHAR 00BA
ENCODING 186
SWIDTH 360 0
DWIDTH 24 0
BBX 20 22 2 26
BITMAP
01F800
07FF00
1FFF80
1F9FC0
3E07E0
7C03E0
7801F0
F801F0
F800F0
F000F0
F000F0
F000F0
F000F0
F000F0
F800F0
7801F0
7C01E0
3C03E0
3F0FC0
1FFF80
0FFF00
03FC00
ENDCHAR
STARTCHAR 00BB
ENCODING 187
SWIDTH 435 0
DWIDTH 29 0
BBX 22 25 4 4
BITMAP
400800
E01C00
F03E00
781F00
7C0F00
3E0780
1F03C0
0F83E0
0F81F0
07C0F8
03E07C
01E07C
01E03C
01E07C
03E0FC
07C0F8
0F81F0
0F03E0
1F07C0
3E0780
7C0F00
781E00
F03E00
E01C00
000800
ENDCHAR
STARTCHAR 00BC
ENCODING 188
SWIDTH 780 0
DWIDTH 52 0
BBX 46 46 4 -1
BITMAP
00000000F000
03C00001E000
0FC00001E000
7FC00003C000
FFC00003C000
FFC000078000
03C000078000
03C0000F0000
03C0000E0000
03C0001E0000
03C0001C0000
03C0003C0000
03C000380000
03C000780000
03C000700000
03C000F00000
03C000E00000
03C001E00000
03C003C00000
03C003C007C0
03C007800FC0
03C007800FC0
03C00F001FC0
03C00F003FC0
03C01E003BC0
03C01E007BC0
03C03C00F3C0
00003800E3C0
00007801E3C0
00007003C3C0
0000F003C3C0
0000E00783C0
0001E00703C0
0001C00F03C0
0003C01E03C0
0003801FFFFC
0007803FFFFC
000F003FFFFC
000F000003C0
001E000003C0
001E000003C0
003C000003C0
003C000003C0
0078000003C0
0078000003C0
00F000000000
ENDCHAR
STARTCHAR 00BD
ENCODING 189
SWIDTH 810 0
DWIDTH 54 0
BBX 47 46 4 -1
BITMAP
00000001C000
03C00003C000
0FC000038000
7FC000078000
FFC000070000
FFC0000F0000
03C0001E0000
03C0001E0000
03C0003C0000
03C0003C0000
03C000780000
03C000780000
03C000F00000
03C000F00000
03C001E00000
03C001C00000
03C003C00000
03C003800000
03C007803F00
03C00700FFC0
03C00F03FFE0
03C00E07FFF0
03C01E0781F8
03C01C0F00F8
03C03C020078
03C078000078
03C078000078
0000F0000078
0000F0000078
0001E0000078
0001E00000F8
0003C00000F0
0003C00001E0
0007800003E0
0007000007C0
000F00000F80
000E00001F00
001E00003E00
001C00007C00
003C0000FC00
00380001F800
00780003FFFE
00700007FFFE
00F00007FFFE
01E00007FFFE
01E000000000
ENDCHAR
STARTCHAR 00BE
ENCODING 190
SWIDTH 795 0
DWIDTH 53 0
BBX 48 46 3 -1
BITMAP
03F000001E00
0FFC00001E00
3FFE00003C00
7F7F00003C00
780F80007800
300F80007800
00078000F000
00078000E000
00078001E000
000F8001C000
000F0003C000
003E00038000
03FC00078000
03F800070000
03FE000F0000
003F000E0000
000F801E0000
0007C03C0000
0003C03C0000
0003C07801F0
0003C07803F0
6003C0F003F0
F007C0F007F0
F80F81E00FF0
7F7F81E00EF0
3FFF03C01EF0
1FFE03803CF0
03F0078038F0
0000070078F0
00000F00F0F0
00000E00F0F0
00001E01E0F0
00001C01C0F0
00003C03C0F0
0000380780F0
00007807FFFF
0000700FFFFF
0000F00FFFFF
0001E00000F0
0001E00000F0
0003C00000F0
0003C00000F0
0007800000F0
0007800000F0
000F000000F0
000F00000000
ENDCHAR
STARTCHAR 00BF
ENCODING 191
SWIDTH 420 0
DWIDTH 28 0
BBX 23 46 3 -13
BITMAP
003C00
007E00
00FF00
00FF00
00FF00
00FF00
007E00
003E00
000000
000000
000000
000000
000000
000000
003E00
003E00
003E00
003E00
007E00
007C00
007C00
00F800
01F800
01F000
03F000
07E000
0FC000
1F8000
1F0000
3F0000
7E0000
7C0000
7C0000
FC0000
FC0000
FC0000
FC0000
FC0000
7C0018
7E003C
7F00FE
3FFFFC
1FFFF8
0FFFE0
07FFC0
01FE00
ENDCHAR
STARTCHAR 00C0
ENCODING 192
SWIDTH 540 0
DWIDTH 36 0
BBX 36 58 0 0
BITMAP
0008000000
001C000000
003E000000
007F000000
003F800000
001FC00000
0007E00000
0003F80000
0001FC0000
0000780000
0000300000
0000000000
0000000000
0000000000
0001F80000
0003FC0000
0003FC0000
0003FC0000
0007FE0000
0007FE0000
00079E0000
000F9F0000
000F9F0000
000F8F0000
001F0F8000
001F0F8000
001F0F8000
003E07C000
003E07C000
003E07C000
007C03E000
007C03E000
007C03E000
00F801F000
00F801F000
00F801F800
01F800F800
01F000F800
01F000FC00
03F000FC00
03FFFFFC00
03FFFFFE00
07FFFFFE00
07FFFFFE00
07C0003F00
0FC0003F00
0F80001F00
0F80001F80
1F80001F80
1F80000F80
1F00000FC0
3F00000FC0
3F00000FC0
3E000007E0
7E000007E0
7E000007E0
7C000003F0
FC000003F0
ENDCHAR
STARTCHAR 00C1
ENCODING 193
SWIDTH 540 0
DWIDTH 36 0
BBX 36 58 0 0
BITMAP
0000010000
0000038000
000007C000
00000FE000
00001FC000
00003F0000
00007E0000
0001FC0000
0003F80000
0001E00000
0000C00000
0000000000
0000000000
0000000000
0001F80000
0003FC0000
0003FC0000
0003FC0000
0007FE0000
0007FE0000
00079E0000
000F9F0000
000F9F0000
000F8F0000
001F0F8000
001F0F8000
001F0F8000
003E07C000
003E07C000
003E07C000
007C03E000
007C03E000
007C03E000
00F801F000
00F801F000
00F801F800
01F800F800
01F000F800
01F000FC00
03F000FC00
03FFFFFC00
03FFFFFE00
07FFFFFE00
07FFFFFE00
07C0003F00
0FC0003F00
0F80001F00
0F80001F80
1F80001F80
1F80000F80
1F00000FC0
3F00000FC0
3F00000FC0
3E000007E0
7E000007E0
7E000007E0
7C000003F0
FC000003F0
ENDCHAR
STARTCHAR 00C2
ENCODING 194
SWIDTH 540 0
DWIDTH 36 0
BBX 36 56 0 0
BITMAP
0001F80000
0003FC0000
0007FE0000
000F9F0000
001F0F8000
003E07C000
007C03E000
00F801F000
0020004000
0000000000
0000000000
0000000000
0001F80000
0003FC0000
0003FC0000
0003FC0000
0007FE0000
0007FE0000
00079E0000
000F9F0000
000F9F0000
000F8F0000
001F0F8000
001F0F8000
001F0F8000
003E07C000
003E07C000
003E07C000
007C03E000
007C03E000
007C03E000
00F801F000
00F801F000
00F801F800
01F800F800
01F000F800
01F000FC00
03F000FC00
03FFFFFC00
03FFFFFE00
07FFFFFE00
07FFFFFE00
07C0003F00
0FC0003F00
0F80001F00
0F80001F80
1F80001F80
1F80000F80
1F00000FC0
3F00000FC0
3F00000FC0
3E000007E0
7E000007E0
7E000007E0
7C000003F0
FC000003F0
ENDCHAR
STARTCHAR 00C3
ENCODING 195
SWIDTH 540 0
DWIDTH 36 0
BBX 36 56 0 0
BITMAP
003F003800
007F803C00
00FFE03C00
01FFF07800
01F1F8F800
01E0FFF800
03C07FF000
03C01FE000
00000F8000
0000000000
0000000000
0000000000
0001F80000
0003FC0000
0003FC0000
0003FC0000
0007FE0000
0007FE0000
00079E0000
000F9F0000
000F9F0000
000F8F0000
001F0F8000
001F0F8000
001F0F8000
003E07C000
003E07C000
003E07C000
007C03E000
007C03E000
007C03E000
00F801F000
00F801F000
00F801F800
01F800F800
01F000F800
01F000FC00
03F000FC00
03FFFFFC00
03FFFFFE00
07FFFFFE00
07FFFFFE00
07C0003F00
0FC0003F00
0F80001F00
0F80001F80
1F80001F80
1F80000F80
1F00000FC0
3F00000FC0
3F00000FC0
3E000007E0
7E000007E0
7E000007E0
7C000003F0
FC000003F0
ENDCHAR
STARTCHAR 00C4
ENCODING 196
SWIDTH 540 0
DWIDTH 36 0
BBX 36 54 0 1
BITMAP
007C03E000
00FC03F000
00FC03F000
00FC03F000
00FC03F000
007801E000
0000000000
0000000000
0000000000
0000000000
0001F80000
0003FC0000
0003FC0000
0003FC0000
0007FE0000
0007FE0000
00079E0000
000F9F0000
000F9F0000
000F8F0000
001F0F8000
001F0F8000
001F0F8000
003E07C000
003E07C000
003E07C000
007C03E000
007C03E000
007C03E000
00F801F000
00F801F000
00F801F800
01F800F800
01F000F800
01F000FC00
03F000FC00
03FFFFFC00
03FFFFFE00
07FFFFFE00
07FFFFFE00
07C0003F00
0FC0003F00
0F80001F00
0F80001F80
1F80001F80
1F80000F80
1F00000FC0
3F00000FC0
3F00000FC0
3E000007E0
7E000007E0
7E000007E0
7C000003F0
FC000003F0
ENDCHAR
STARTCHAR 00C5
ENCODING 197
SWIDTH 540 0
DWIDTH 36 0
BBX 36 59 0 0
BITMAP
0001F80000
0003FC0000
0007FE0000
000E0F0000
000E070000
000E070000
000E070000
000E070000
000E070000
00079E0000
0003FC0000
0001F80000
0000000000
0000000000
0000000000
0001F80000
0003FC0000
0003FC0000
0003FC0000
0007FE0000
0007FE0000
00079E0000
000F9F0000
000F9F0000
000F8F0000
001F0F8000
001F0F8000
001F0F8000
003E07C000
003E07C000
003E07C000
007C03E000
007C03E000
007C03E000
00F801F000
00F801F000
00F801F800
01F800F800
01F000F800
01F000FC00
03F000FC00
03FFFFFC00
03FFFFFE00
07FFFFFE00
07FFFFFE00
07C0003F00
0FC0003F00
0F80001F00
0F80001F80
1F80001F80
1F80000F80
1F00000FC0
3F00000FC0
3F00000FC0
3E000007E0
7E000007E0
7E000007E0
7C000003F0
FC000003F0
ENDCHAR
STARTCHAR 00C6
ENCODING 198
SWIDTH 825 0
DWIDTH 55 0
BBX 51 44 1 0
BITMAP
000003FFFFFFC0
000003FFFFFFC0
000007FFFFFFC0
000007FFFFFFC0
00000FBFFFFFC0
00000FBE000000
00001F3E000000
00001F3E000000
00003E3E000000
00007E3E000000
00007C3E000000
0000FC3E000000
0000F83E000000
0001F83E000000
0001F03E000000
0003F03E000000
0003E03E000000
0007E03E000000
0007C03FFFFE00
000FC03FFFFE00
000F803FFFFE00
001F803FFFFE00
001F003FFFFE00
003F003E000000
003E003E000000
007E003E000000
007C003E000000
00FFFFFE000000
00FFFFFE000000
01FFFFFE000000
01FFFFFE000000
03F0003E000000
03E0003E000000
07E0003E000000
0FC0003E000000
0FC0003E000000
1F80003E000000
1F80003E000000
3F00003E000000
3F00003FFFFFE0
7E00003FFFFFE0
7E00003FFFFFE0
FC00003FFFFFE0
FC00003FFFFFE0
ENDCHAR
STARTCHAR 00C7
ENCODING 199
SWIDTH 570 0
DWIDTH 38 0
BBX 33 60 3 -15
BITMAP
0000FF0000
000FFFE000
003FFFF800
007FFFFC00
00FFFFFE00
01FF00FF00
03FC003E00
07F0001C00
0FE0000800
0FC0000000
1F80000000
1F80000000
3F00000000
3F00000000
3E00000000
7E00000000
7E00000000
7E00000000
7E00000000
7C00000000
7C00000000
7C00000000
FC00000000
FC00000000
FC00000000
7C00000000
7C00000000
7E00000000
7E00000000
7E00000000
7E00000000
3F00000000
3F00000000
3F00000000
1F80000000
1F80000000
1FC0000000
0FE0000600
07F0001F00
07FC003F80
03FF00FF00
01FFFFFE00
007FFFFC00
003FFFF800
000FFFE000
0001FF0000
0000380000
0000780000
0000780000
0000F00000
0000FE0000
00003F0000
00000F8000
0000078000
0000078000
00000F8000
00001F0000
0003FE0000
0003FC0000
0003C00000
ENDCHAR
STARTCHAR 00C8
ENCODING 200
SWIDTH 525 0
DWIDTH 35 0
BBX 26 58 6 0
BITMAP
01000000
03800000
07C00000
0FE00000
07F00000
03F80000
00FC0000
007E0000
003F8000
000F0000
00060000
00000000
00000000
00000000
FFFFFF80
FFFFFF80
FFFFFF80
FFFFFF80
FFFFFF80
FC000000
FC000000
FC000000
FC000000
FC000000
FC000000
FC000000
FC000000
FC000000
FC000000
FC000000
FC000000
FC000000
FFFFFC00
FFFFFC00
FFFFFC00
FFFFFC00
FFFFFC00
FC000000
FC000000
FC000000
FC000000
FC000000
FC000000
FC000000
FC000000
FC000000
FC000000
FC000000
FC000000
FC000000
FC000000
FC000000
FC000000
FFFFFFC0
FFFFFFC0
FFFFFFC0
FFFFFFC0
FFFFFFC0
ENDCHAR
STARTCHAR 00C9
ENCODING 201
SWIDTH 525 0
DWIDTH 35 0
BBX 26 58 6 0
BITMAP
00002000
00007000
0000F800
0001FC00
0003F800
0007E000
000FC000
003F8000
007E0000
003C0000
00180000
00000000
00000000
00000000
FFFFFF80
FFFFFF80
FFFFFF80
FFFFFF80
FFFFFF80
FC000000
FC000000
FC000000
FC000000
FC000000
FC000000
FC000000
FC000000
FC000000
FC000000
FC000000
FC000000
FC000000
FFFFFC00
FFFFFC00
FFFFFC00
FFFFFC00
FFFFFC00
FC000000
FC000000
FC000000
FC000000
FC000000
FC000000
FC000000
FC000000
FC000000
FC000000
FC000000
FC000000
FC000000
FC000000
FC000000
FC000000
FFFFFFC0
FFFFFFC0
FFFFFFC0
FFFFFFC0
FFFFFFC0
ENDCHAR
STARTCHAR 00CA
ENCODING 202
SWIDTH 525 0
DWIDTH 35 0
BBX 26 56 6 0
BITMAP
003F0000
007F8000
00FFC000
01F3E000
03E1F000
07C0F800
0F807C00
1E003E00
04000800
00000000
00000000
00000000
FFFFFF80
FFFFFF80
FFFFFF80
FFFFFF80
FFFFFF80
FC000000
FC000000
FC000000
FC000000
FC000000
FC000000
FC000000
FC000000
FC000000
FC000000
FC000000
FC000000
FC000000
FFFFFC00
FFFFFC00
FFFFFC00
FFFFFC00
FFFFFC00
FC000000
FC000000
FC000000
FC000000
FC000000
FC000000
FC000000
FC000000
FC000000
FC000000
FC000000
FC000000
FC000000
FC000000
FC000000
FC000000
FFFFFFC0
FFFFFFC0
FFFFFFC0
FFFFFFC0
FFFFFFC0
ENDCHAR
STARTCHAR 00CB
ENCODING 203
SWIDTH 525 0
DWIDTH 35 0
BBX 26 54 6 1
BITMAP
0F807C00
1F807E00
1F807E00
1F807E00
1F807E00
0F003C00
00000000
00000000
00000000
00000000
FFFFFF80
FFFFFF80
FFFFFF80
FFFFFF80
FFFFFF80
FC000000
FC000000
FC000000
FC000000
FC000000
FC000000
FC000000
FC000000
FC000000
FC000000
FC000000
FC000000
FC000000
FFFFFC00
FFFFFC00
FFFFFC00
FFFFFC00
FFFFFC00
FC000000
FC000000
FC000000
FC000000
FC000000
FC000000
FC000000
FC000000
FC000000
FC000000
FC000000
FC000000
FC000000
FC000000
FC000000
FC000000
FFFFFFC0
FFFFFFC0
FFFFFFC0
FFFFFFC0
FFFFFFC0
ENDCHAR
STARTCHAR 00CC
ENCODING 204
SWIDTH 270 0
DWIDTH 18 0
BBX 12 58 0 0
BITMAP
2000
3800
7C00
FE00
7F00
3F80
0FC0
07E0
03F0
01E0
0060
0000
0000
0000
03F0
03F0
03F0
03F0
03F0
03F0
03F0
03F0
03F0
03F0
03F0
03F0
03F0
03F0
03F0
03F0
03F0
03F0
03F0
03F0
03F0
03F0
03F0
03F0
03F0
03F0
03F0
03F0
03F0
03F0
03F0
03F0
03F0
03F0
03F0
03F0
03F0
03F0
03F0
03F0
03F0
03F0
03F0
03F0
ENDCHAR
STARTCHAR 00CD
ENCODING 205
SWIDTH 270 0
DWIDTH 18 0
BBX 13 58 5 0
BITMAP
0040
00E0
01F0
03F8
07F0
1FC0
3F80
7F00
FC00
7800
3000
0000
0000
0000
7E00
7E00
7E00
7E00
7E00
7E00
7E00
7E00
7E00
7E00
7E00
7E00
7E00
7E00
7E00
7E00
7E00
7E00
7E00
7E00
7E00
7E00
7E00
7E00
7E00
7E00
7E00
7E00
7E00
7E00
7E00
7E00
7E00
7E00
7E00
7E00
7E00
7E00
7E00
7E00
7E00
7E00
7E00
7E00
ENDCHAR
STARTCHAR 00CE
ENCODING 206
SWIDTH 270 0
DWIDTH 18 0
BBX 20 56 -1 0
BITMAP
03F800
07FC00
0FFE00
0FBF00
1F0F80
3E07C0
7803E0
F001F0
6000C0
000000
000000
000000
01F800
01F800
01F800
01F800
01F800
01F800
01F800
01F800
01F800
01F800
01F800
01F800
01F800
01F800
01F800
01F800
01F800
01F800
01F800
01F800
01F800
01F800
01F800
01F800
01F800
01F800
01F800
01F800
01F800
01F800
01F800
01F800
01F800
01F800
01F800
01F800
01F800
01F800
01F800
01F800
01F800
01F800
01F800
01F800
ENDCHAR
STARTCHAR 00CF
ENCODING 207
SWIDTH 270 0
DWIDTH 18 0
BBX 20 55 -1 0
BITMAP
000080
F803E0
FC03F0
FC07F0
FC07F0
FC03E0
7801C0
000000
000000
000000
000000
01F800
01F800
01F800
01F800
01F800
01F800
01F800
01F800
01F800
01F800
01F800
01F800
01F800
01F800
01F800
01F800
01F800
01F800
01F800
01F800
01F800
01F800
01F800
01F800
01F800
01F800
01F800
01F800
01F800
01F800
01F800
01F800
01F800
01F800
01F800
01F800
01F800
01F800
01F800
01F800
01F800
01F800
01F800
01F800
ENDCHAR
STARTCHAR 00D0
ENCODING 208
SWIDTH 645 0
DWIDTH 43 0
BBX 37 44 2 0
BITMAP
07FFFC0000
07FFFFC000
07FFFFF000
07FFFFF800
07FFFFFE00
07E003FF00
07E000FF80
07E0003F80
07E0001FC0
07E0000FE0
07E00007E0
07E00007F0
07E00003F0
07E00003F0
07E00003F0
07E00001F8
07E00001F8
07E00001F8
07E00001F8
FFFFF801F8
FFFFF801F8
FFFFF801F8
07E00001F8
07E00001F8
07E00001F8
07E00001F8
07E00001F8
07E00001F8
07E00001F0
07E00003F0
07E00003F0
07E00003F0
07E00007E0
07E0000FE0
07E0000FC0
07E0001FC0
07E0003F80
07E000FF00
07E003FE00
07FFFFFC00
07FFFFF800
07FFFFF000
07FFFF8000
07FFFC0000
ENDCHAR
STARTCHAR 00D1
ENCODING 209
SWIDTH 645 0
DWIDTH 43 0
BBX 31 56 6 0
BITMAP
00FC00E0
01FE00F0
03FF81E0
07FFC1E0
0787E3E0
0F83FFC0
0F01FFC0
0F00FF80
00003E00
00000000
00000000
00000000
FC00003E
FE00003E
FE00003E
FF00003E
FF00003E
FF80003E
FF80003E
FFC0003E
FFE0003E
FBE0003E
F9F0003E
F9F0003E
F8F8003E
F8F8003E
F87C003E
F87E003E
F83E003E
F83F003E
F81F003E
F81F803E
F80F803E
F807C03E
F807E03E
F803E03E
F803F03E
F801F03E
F801F83E
F800F83E
F8007C3E
F8007C3E
F8003E3E
F8003F3E
F8001F3E
F8001FBE
F8000FBE
F80007FE
F80007DE
F80003FE
F80003FE
F80001FE
F80001FE
F80000FE
F800007E
F800007E
ENDCHAR
STARTCHAR 00D2
ENCODING 210
SWIDTH 660 0
DWIDTH 44 0
BBX 38 59 3 -1
BITMAP
0004000000
000E000000
001F000000
003F800000
000FE00000
0007F00000
0003F80000
0000FC0000
00007E0000
00003C0000
0000180000
0000000000
0000000000
0001FF0000
000FFFE000
003FFFF800
00FFFFFC00
01FFFFFE00
03FE01FF00
07F8007F80
07F0003FC0
0FE0000FC0
1FC0000FE0
1F800007E0
1F800003F0
3F000003F0
3F000001F8
3E000001F8
7E000001F8
7E000001F8
7E000000FC
7E000000FC
7C000000FC
7C000000FC
FC000000FC
FC000000FC
FC000000FC
7C000000FC
7C000000FC
7C000000FC
7E000000FC
7E000000F8
7E000001F8
7E000001F8
3F000001F8
3F000003F0
3F000003F0
1F800003F0
1F800007E0
1FC0000FE0
0FE0001FC0
07F0003FC0
07F8007F80
03FE01FF00
01FFFFFE00
00FFFFFC00
003FFFF000
000FFFC000
0001FE0000
ENDCHAR
STARTCHAR 00D3
ENCODING 211
SWIDTH 660 0
DWIDTH 44 0
BBX 38 59 3 -1
BITMAP
000000C000
000001E000
000003E000
000007F000
00000FE000
00001F8000
00003F0000
0000FE0000
0000F80000
0000700000
0000600000
0000000000
0000000000
0001FF0000
000FFFE000
003FFFF800
00FFFFFC00
01FFFFFE00
03FE01FF00
07F8007F80
07F0003FC0
0FE0000FC0
1FC0000FE0
1F800007E0
1F800003F0
3F000003F0
3F000001F8
3E000001F8
7E000001F8
7E000001F8
7E000000FC
7E000000FC
7C000000FC
7C000000FC
FC000000FC
FC000000FC
FC000000FC
7C000000FC
7C000000FC
7C000000FC
7E000000FC
7E000000F8
7E000001F8
7E000001F8
3F000001F8
3F000003F0
3F000003F0
1F800003F0
1F800007E0
1FC0000FE0
0FE0001FC0
07F0003FC0
07F8007F80
03FE01FF00
01FFFFFE00
00FFFFFC00
003FFFF000
000FFFC000
0001FE0000
ENDCHAR
STARTCHAR 00D4
ENCODING 212
SWIDTH 660 0
DWIDTH 44 0
BBX 38 57 3 -1
BITMAP
0000FE0000
0001FE0000
0003FF0000
0007CF8000
000F87C000
001F03E000
003E00F000
0078007800
0010002000
0000000000
0000000000
0001FF0000
000FFFE000
003FFFF800
00FFFFFC00
01FFFFFE00
03FE01FF00
07F8007F80
07F0003FC0
0FE0000FC0
1FC0000FE0
1F800007E0
1F800003F0
3F000003F0
3F000001F8
3E000001F8
7E000001F8
7E000001F8
7E000000FC
7E000000FC
7C000000FC
7C000000FC
FC000000FC
FC000000FC
FC000000FC
7C000000FC
7C000000FC
7C000000FC
7E000000FC
7E000000F8
7E000001F8
7E000001F8
3F000001F8
3F000003F0
3F000003F0
1F800003F0
1F800007E0
1FC0000FE0
0FE0001FC0
07F0003FC0
07F8007F80
03FE01FF00
01FFFFFE00
00FFFFFC00
003FFFF000
000FFFC000
0001FE0000
ENDCHAR
STARTCHAR 00D5
ENCODING 213
SWIDTH 660 0
DWIDTH 44 0
BBX 38 57 3 -1
BITMAP
001F801C00
003FE01E00
007FF01E00
00FFF83E00
00F8FC7C00
00F07FFC00
00E03FF800
01E00FF000
000003E000
0000000000
0000000000
0001FF0000
000FFFE000
003FFFF800
00FFFFFC00
01FFFFFE00
03FE01FF00
07F8007F80
07F0003FC0
0FE0000FC0
1FC0000FE0
1F800007E0
1F800003F0
3F000003F0
3F000001F8
3E000001F8
7E000001F8
7E000001F8
7E000000FC
7E000000FC
7C000000FC
7C000000FC
FC000000FC
FC000000FC
FC000000FC
7C000000FC
7C000000FC
7C000000FC
7E000000FC
7E000000F8
7E000001F8
7E000001F8
3F000001F8
3F000003F0
3F000003F0
1F800003F0
1F800007E0
1FC0000FE0
0FE0001FC0
07F0003FC0
07F8007F80
03FE01FF00
01FFFFFE00
00FFFFFC00
003FFFF000
000FFFC000
0001FE0000
ENDCHAR
STARTCHAR 00D6
ENCODING 214
SWIDTH 660 0
DWIDTH 44 0
BBX 38 55 3 0
BITMAP
003E00F000
007E01F800
007F01F800
007E01F800
007E01F800
003C00F000
0000000000
0000000000
0000000000
0001FF0000
000FFFE000
003FFFF800
00FFFFFC00
01FFFFFE00
03FE01FF00
07F8007F80
07F0003FC0
0FE0000FC0
1FC0000FE0
1F800007E0
1F800003F0
3F000003F0
3F000001F8
3E000001F8
7E000001F8
7E000001F8
7E000000FC
7E000000FC
7C000000FC
7C000000FC
FC000000FC
FC000000FC
FC000000FC
7C000000FC
7C000000FC
7C000000FC
7E000000FC
7E000000F8
7E000001F8
7E000001F8
3F000001F8
3F000003F0
3F000003F0
1F800003F0
1F800007E0
1FC0000FE0
0FE0001FC0
07F0003FC0
07F8007F80
03FE01FF00
01FFFFFE00
00FFFFFC00
003FFFF000
000FFFC000
0001FE0000
ENDCHAR
STARTCHAR 00D7
ENCODING 215
SWIDTH 495 0
DWIDTH 33 0
BBX 25 27 4 8
BITMAP
20000200
70000700
F8000F80
FC001F80
7E003F00
3F007E00
1F80FC00
0FC1F800
07E3F000
03F3E000
01FFC000
00FF8000
007F0000
003F0000
007F8000
00FFC000
01F7C000
03E3E000
07E1F000
0FC0F800
1F807C00
3F003E00
7E001F00
FC001F80
F8000F80
70000700
20000200
ENDCHAR
STARTCHAR 00D8
ENCODING 216
SWIDTH 660 0
DWIDTH 44 0
BBX 37 48 4 -2
BITMAP
0000000020
0003FE0070
001FFFC0F8
007FFFF1F0
00FFFFF9E0
03FFFFFFE0
07FC03FFC0
07F000FF80
0FE0003F80
1FC0001FC0
1F80003FC0
3F00007FE0
3F00007FE0
7E0000FFE0
7E0001F3F0
7E0003E3F0
FC0003C3F0
FC0007C1F8
FC000F81F8
FC001F01F8
FC003E01F8
FC003E01F8
F8007C01F8
F800F801F8
F801F001F8
F801F001F8
FC03E001F8
FC07C001F8
FC0F8001F8
FC0F8001F8
FC1F0001F0
7C3E0003F0
7E7C0003F0
7E7C0003F0
7EF80007E0
3FF00007E0
3FE0000FE0
1FE0000FC0
1FC0001F80
0FE0003F80
1FF800FF00
1FFE03FE00
3FFFFFFC00
7CFFFFF800
F87FFFF000
F01FFFC000
F003FE0000
6000000000
ENDCHAR
STARTCHAR 00D9
ENCODING 217
SWIDTH 645 0
DWIDTH 43 0
BBX 31 59 6 -1
BITMAP
00400000
00E00000
01F80000
01FC0000
00FE0000
007F0000
003F8000
000FC000
0007E000
0003C000
00008000
00000000
00000000
00000000
F800003E
F800003E
F800003E
F800003E
F800003E
F800003E
F800003E
F800003E
F800003E
F800003E
F800003E
F800003E
F800003E
F800003E
F800003E
F800003E
F800003E
F800003E
F800003E
F800003E
F800003E
F800003E
F800003E
F800003E
F800003E
F800003E
F800003E
F800003E
F800003E
FC00003E
FC00003E
FC00007E
FC00007E
7C00007C
7E00007C
7E0000FC
3F0001F8
3F8001F8
1FC007F0
1FF01FF0
0FFFFFE0
07FFFFC0
03FFFF80
00FFFE00
001FF000
ENDCHAR
STARTCHAR 00DA
ENCODING 218
SWIDTH 645 0
DWIDTH 43 0
BBX 31 59 6 -1
BITMAP
00000400
00000E00
00001F00
00007F00
0000FE00
0001FC00
0003F800
0007E000
000FC000
00078000
00020000
00000000
00000000
00000000
F800003E
F800003E
F800003E
F800003E
F800003E
F800003E
F800003E
F800003E
F800003E
F800003E
F800003E
F800003E
F800003E
F800003E
F800003E
F800003E
F800003E
F800003E
F800003E
F800003E
F800003E
F800003E
F800003E
F800003E
F800003E
F800003E
F800003E
F800003E
F800003E
FC00003E
FC00003E
FC00007E
FC00007E
7C00007C
7E00007C
7E0000FC
3F0001F8
3F8001F8
1FC007F0
1FF01FF0
0FFFFFE0
07FFFFC0
03FFFF80
00FFFE00
001FF000
ENDCHAR
STARTCHAR 00DB
ENCODING 219
SWIDTH 645 0
DWIDTH 43 0
BBX 31 57 6 -1
BITMAP
000FE000
001FF000
003FF800
007EFC00
00FC7E00
01F01F00
01E00F80
03C00780
01800300
00000000
00000000
00000000
F800003E
F800003E
F800003E
F800003E
F800003E
F800003E
F800003E
F800003E
F800003E
F800003E
F800003E
F800003E
F800003E
F800003E
F800003E
F800003E
F800003E
F800003E
F800003E
F800003E
F800003E
F800003E
F800003E
F800003E
F800003E
F800003E
F800003E
F800003E
F800003E
FC00003E
FC00003E
FC00007E
FC00007E
7C00007C
7E00007C
7E0000FC
3F0001F8
3F8001F8
1FC007F0
1FF01FF0
0FFFFFE0
07FFFFC0
03FFFF80
00FFFE00
001FF000
ENDCHAR
STARTCHAR 00DC
ENCODING 220
SWIDTH 645 0
DWIDTH 43 0
BBX 31 56 6 -1
BITMAP
00800200
03E00F80
03F01F80
07F01FC0
07F01FC0
03E00F80
01C00700
00000000
00000000
00000000
00000000
F800003E
F800003E
F800003E
F800003E
F800003E
F800003E
F800003E
F800003E
F800003E
F800003E
F800003E
F800003E
F800003E
F800003E
F800003E
F800003E
F800003E
F800003E
F800003E
F800003E
F800003E
F800003E
F800003E
F800003E
F800003E
F800003E
F800003E
F800003E
F800003E
FC00003E
FC00003E
FC00007E
FC00007E
7C00007C
7E00007C
7E0000FC
3F0001F8
3F8001F8
1FC007F0
1FF01FF0
0FFFFFE0
07FFFFC0
03FFFF80
00FFFE00
001FF000
ENDCHAR
STARTCHAR 00DD
ENCODING 221
SWIDTH 480 0
DWIDTH 32 0
BBX 32 58 0 0
BITMAP
00000400
00000E00
00001F00
00003F80
00007F00
0000FC00
0003F800
0007F000
000FC000
00078000
00030000
00000000
00000000
00000000
FC00003F
7E00007E
7E00007E
3E0000FC
3F0000FC
1F0000F8
1F8001F8
0F8001F0
0FC003F0
07C003E0
07E007E0
03E007C0
03F00FC0
03F00F80
01F80F80
01F81F00
00F81F00
00FC3E00
007C3E00
007E7C00
003E7C00
003FF800
001FF800
001FF000
000FF000
000FE000
0007E000
0007E000
0007E000
0007E000
0007E000
0007E000
0007E000
0007E000
0007E000
0007E000
0007E000
0007E000
0007E000
0007E000
0007E000
0007E000
0007E000
0007E000
ENDCHAR
STARTCHAR 00DE
ENCODING 222
SWIDTH 585 0
DWIDTH 39 0
BBX 30 44 6 0
BITMAP
FC000000
FC000000
FC000000
FC000000
FC000000
FC000000
FC000000
FFFC0000
FFFFF800
FFFFFF00
FFFFFF80
FFFFFFE0
FC003FE0
FC0007F0
FC0003F0
FC0001F8
FC0001F8
FC0000F8
FC0000F8
FC0000FC
FC0000FC
FC0000FC
FC0000F8
FC0000F8
FC0001F8
FC0001F8
FC0003F0
FC0007F0
FC001FE0
FFFFFFC0
FFFFFF80
FFFFFF00
FFFFFC00
FFFFC000
FC000000
FC000000
FC000000
FC000000
FC000000
FC000000
FC000000
FC000000
FC000000
FC000000
ENDCHAR
STARTCHAR 00DF
ENCODING 223
SWIDTH 570 0
DWIDTH 38 0
BBX 31 49 5 -1
BITMAP
003F8000
01FFF000
07FFF800
0FFFFC00
1FFBFE00
1FC07F00
3F003F00
3F003F00
7E001F00
7E001F00
7C001F00
7C001F00
7C001F00
FC003F00
FC003E00
FC007E00
FC00FC00
FC00F800
FC01F000
FC03F000
FC03E000
FC07E000
FC07C000
FC07C000
FC07E000
FC07E000
FC03F000
FC03F800
FC01FE00
FC00FF80
FC007FE0
FC003FF0
FC000FF8
FC0003FC
FC0000FC
FC00007E
FC00007E
FC00003E
FC00003E
FC00003E
FC00003E
FC00003E
FC04007E
FC0700FE
FC0FE3FC
FC0FFFF8
FC0FFFF0
FC03FFE0
00007F00
ENDCHAR
STARTCHAR 00E0
ENCODING 224
SWIDTH 510 0
DWIDTH 34 0
BBX 26 53 3 -1
BITMAP
00800000
01C00000
03E00000
07F00000
03F80000
01F80000
00FC0000
007E0000
003F0000
001F8000
000FC000
0007C000
00038000
00010000
00000000
00000000
00000000
00000000
00000000
003FE000
01FFF800
07FFFC00
1FFFFE00
3FFFFF00
1F807F00
1C001F80
08001F80
00000F80
00000FC0
00000FC0
00000FC0
00000FC0
0001FFC0
003FFFC0
00FFFFC0
07FFEFC0
0FFC0FC0
1FE00FC0
3F800FC0
7E000FC0
7E000FC0
7C000FC0
7C000FC0
FC000FC0
FC000FC0
7C001FC0
7E003FC0
7F00FFC0
3FEFF7C0
3FFFE7C0
1FFFC7C0
0FFF07C0
01F80000
ENDCHAR
STARTCHAR 00E1
ENCODING 225
SWIDTH 510 0
DWIDTH 34 0
BBX 26 53 3 -1
BITMAP
00000800
00001C00
00003E00
00007F00
00007E00
0000FC00
0001F800
0003F000
0007E000
000FC000
001F8000
001F0000
000E0000
00040000
00000000
00000000
00000000
00000000
00000000
003FE000
01FFF800
07FFFC00
1FFFFE00
3FFFFF00
1F807F00
1C001F80
08001F80
00000F80
00000FC0
00000FC0
00000FC0
00000FC0
0001FFC0
003FFFC0
00FFFFC0
07FFEFC0
0FFC0FC0
1FE00FC0
3F800FC0
7E000FC0
7E000FC0
7C000FC0
7C000FC0
FC000FC0
FC000FC0
7C001FC0
7E003FC0
7F00FFC0
3FEFF7C0
3FFFE7C0
1FFFC7C0
0FFF07C0
01F80000
ENDCHAR
STARTCHAR 00E2
ENCODING 226
SWIDTH 510 0
DWIDTH 34 0
BBX 26 50 3 -1
BITMAP
001FC000
001FE000
003FE000
007FF000
00FDF800
01F8FC00
03F07E00
03E03E00
07C01F00
0F800780
02000300
00000000
00000000
00000000
00000000
00000000
003FE000
01FFF800
07FFFC00
1FFFFE00
3FFFFF00
1F807F00
1C001F80
08001F80
00000F80
00000FC0
00000FC0
00000FC0
00000FC0
0001FFC0
003FFFC0
00FFFFC0
07FFEFC0
0FFC0FC0
1FE00FC0
3F800FC0
7E000FC0
7E000FC0
7C000FC0
7C000FC0
FC000FC0
FC000FC0
7C001FC0
7E003FC0
7F00FFC0
3FEFF7C0
3FFFE7C0
1FFFC7C0
0FFF07C0
01F80000
ENDCHAR
STARTCHAR 00E3
ENCODING 227
SWIDTH 510 0
DWIDTH 34 0
BBX 26 49 3 -1
BITMAP
01F80300
03FC03C0
07FE03C0
0FFF03C0
0F1F87C0
1F0FC780
1E07FF80
1E03FF00
1E01FE00
00007C00
00000000
00000000
00000000
00000000
00000000
003FE000
01FFF800
07FFFC00
1FFFFE00
3FFFFF00
1F807F00
1C001F80
08001F80
00000F80
00000FC0
00000FC0
00000FC0
00000FC0
0001FFC0
003FFFC0
00FFFFC0
07FFEFC0
0FFC0FC0
1FE00FC0
3F800FC0
7E000FC0
7E000FC0
7C000FC0
7C000FC0
FC000FC0
FC000FC0
7C001FC0
7E003FC0
7F00FFC0
3FEFF7C0
3FFFE7C0
1FFFC7C0
0FFF07C0
01F80000
ENDCHAR
STARTCHAR 00E4
ENCODING 228
SWIDTH 510 0
DWIDTH 34 0
BBX 26 47 3 -1
BITMAP
01800C00
03E03F00
07E03F00
07E03F00
07E03F00
07E03F00
03C01E00
00000000
00000000
00000000
00000000
00000000
00000000
003FE000
01FFF800
07FFFC00
1FFFFE00
3FFFFF00
1F807F00
1C001F80
08001F80
00000F80
00000FC0
00000FC0
00000FC0
00000FC0
0001FFC0
003FFFC0
00FFFFC0
07FFEFC0
0FFC0FC0
1FE00FC0
3F800FC0
7E000FC0
7E000FC0
7C000FC0
7C000FC0
FC000FC0
FC000FC0
7C001FC0
7E003FC0
7F00FFC0
3FEFF7C0
3FFFE7C0
1FFFC7C0
0FFF07C0
01F80000
ENDCHAR
STARTCHAR 00E5
ENCODING 229
SWIDTH 510 0
DWIDTH 34 0
BBX 26 51 3 -1
BITMAP
000FC000
003FE000
007DF000
00F07800
00E03C00
01E03C00
01E03C00
01E03C00
01E03C00
00F03800
00F8F800
007FF000
003FE000
00000000
00000000
00000000
00000000
003FE000
01FFF800
07FFFC00
1FFFFE00
3FFFFF00
1F807F00
1C001F80
08001F80
00000F80
00000FC0
00000FC0
00000FC0
00000FC0
0001FFC0
003FFFC0
00FFFFC0
07FFEFC0
0FFC0FC0
1FE00FC0
3F800FC0
7E000FC0
7E000FC0
7C000FC0
7C000FC0
FC000FC0
FC000FC0
7C001FC0
7E003FC0
7F00FFC0
3FEFF7C0
3FFFE7C0
1FFFC7C0
0FFF07C0
01F80000
ENDCHAR
STARTCHAR 00E6
ENCODING 230
SWIDTH 780 0
DWIDTH 52 0
BBX 46 34 4 -1
BITMAP
003F8003F800
03FFE00FFF00
0FFFF01FFF80
3FFFF83FFFC0
7FFFFC7F1FE0
3F007CF807F0
1C003FF001F0
10003FE001F8
00001FE000F8
00001FC000F8
00001FC00078
00001F80007C
00001F80007C
0000FF80007C
001FFF80007C
00FFFFFFFFFC
03FFFFFFFFFC
0FFC1FFFFFFC
1FE01FFFFFFC
3F800F800000
7E000F800000
7C000F800000
FC000F800000
F8000FC00000
F80007C00000
F8000FE00000
FC001FF00000
FC007FF80020
FE00FDFC00E0
7FCFF8FFDFF0
3FFFE07FFFF0
3FFFC03FFFE0
0FFF000FFF80
03F80003FC00
ENDCHAR
STARTCHAR 00E7
ENCODING 231
SWIDTH 450 0
DWIDTH 30 0
BBX 25 48 3 -15
BITMAP
000FE000
007FFC00
01FFFF00
03FFFF80
07FFFF80
0FF00F00
1FC00600
1F800000
3F000000
3F000000
7E000000
7E000000
7C000000
FC000000
FC000000
FC000000
FC000000
FC000000
FC000000
FC000000
FC000000
FC000000
7E000000
7E000000
7E000000
3F000000
3F800000
1FC00300
1FE00F80
0FFEFF80
07FFFF80
01FFFF00
00FFFC00
001FE000
00078000
00070000
000F0000
000F0000
001FC000
0007F000
0001F000
0000F000
0000F000
0000F000
0003F000
007FE000
007F8000
007C0000
ENDCHAR
STARTCHAR 00E8
ENCODING 232
SWIDTH 495 0
DWIDTH 33 0
BBX 28 52 3 0
BITMAP
01C00000
03E00000
07F00000
03F80000
01F80000
00FC0000
007E0000
003F0000
001F8000
000FC000
0007C000
00038000
00010000
00000000
00000000
00000000
00000000
00000000
001FE000
007FF800
01FFFE00
03FFFF00
07F8FF80
0FC01F80
1F800FC0
3F0007C0
3E0003E0
7E0003E0
7C0003E0
7C0001E0
7C0001E0
F80001F0
FFFFFFF0
FFFFFFF0
FFFFFFE0
FFFFFFE0
FC000000
FC000000
FC000000
7C000000
7C000000
7E000000
7E000000
3F000000
3F800000
1FC00080
0FF00380
07FE3FC0
03FFFFC0
01FFFF80
007FFE00
000FF000
ENDCHAR
STARTCHAR 00E9
ENCODING 233
SWIDTH 495 0
DWIDTH 33 0
BBX 28 53 3 -1
BITMAP
00000800
00001C00
00003E00
00007F00
00007E00
0000FC00
0001F800
0003F000
0007E000
000FC000
000F8000
001F0000
000E0000
00040000
00000000
00000000
00000000
00000000
00000000
001FE000
007FF800
01FFFE00
03FFFF00
07F8FF80
0FC01F80
1F800FC0
3F0007C0
3E0003E0
7E0003E0
7C0003E0
7C0001E0
7C0001E0
F80001F0
FFFFFFF0
FFFFFFF0
FFFFFFE0
FFFFFFE0
FC000000
FC000000
FC000000
7C000000
7C000000
7E000000
7E000000
3F000000
3F800000
1FC00080
0FF00380
07FE3FC0
03FFFFC0
01FFFF80
007FFE00
000FF000
ENDCHAR
STARTCHAR 00EA
ENCODING 234
SWIDTH 495 0
DWIDTH 33 0
BBX 28 50 3 -1
BITMAP
001FC000
001FE000
003FE000
007FF000
00FDF800
01F8FC00
01F07E00
03E03E00
07C00F00
0F800780
03000300
00000000
00000000
00000000
00000000
00000000
001FE000
007FF800
01FFFE00
03FFFF00
07F8FF80
0FC01F80
1F800FC0
3F0007C0
3E0003E0
7E0003E0
7C0003E0
7C0001E0
7C0001E0
F80001F0
FFFFFFF0
FFFFFFF0
FFFFFFE0
FFFFFFE0
FC000000
FC000000
FC000000
7C000000
7C000000
7E000000
7E000000
3F000000
3F800000
1FC00080
0FF00380
07FE3FC0
03FFFFC0
01FFFF80
007FFE00
000FF000
ENDCHAR
STARTCHAR 00EB
ENCODING 235
SWIDTH 495 0
DWIDTH 33 0
BBX 28 47 3 -1
BITMAP
01800C00
03E01F00
07E03F00
07E03F00
07E03F00
07E03F00
03C01E00
00000000
00000000
00000000
00000000
00000000
00000000
001FE000
007FF800
01FFFE00
03FFFF00
07F8FF80
0FC01F80
1F800FC0
3F0007C0
3E0003E0
7E0003E0
7C0003E0
7C0001E0
7C0001E0
F80001F0
FFFFFFF0
FFFFFFF0
FFFFFFE0
FFFFFFE0
FC000000
FC000000
FC000000
7C000000
7C000000
7E000000
7E000000
3F000000
3F800000
1FC00080
0FF00380
07FE3FC0
03FFFFC0
01FFFF80
007FFE00
000FF000
ENDCHAR
STARTCHAR 00EC
ENCODING 236
SWIDTH 240 0
DWIDTH 16 0
BBX 13 52 -1 0
BITMAP
1000
3800
7800
FC00
FE00
7F00
3F80
1FC0
0FC0
07E0
03F0
01F8
00F0
0060
0000
0000
0000
0000
0000
0000
03F0
03F0
03F0
03F0
03F0
03F0
03F0
03F0
03F0
03F0
03F0
03F0
03F0
03F0
03F0
03F0
03F0
03F0
03F0
03F0
03F0
03F0
03F0
03F0
03F0
03F0
03F0
03F0
03F0
03F0
03F0
03F0
ENDCHAR
STARTCHAR 00ED
ENCODING 237
SWIDTH 240 0
DWIDTH 16 0
BBX 13 51 4 1
BITMAP
0060
00F0
01F8
03F8
03F0
07E0
0FC0
1F80
3F00
7E00
FC00
7800
1000
0000
0000
0000
0000
0000
0000
7E00
7E00
7E00
7E00
7E00
7E00
7E00
7E00
7E00
7E00
7E00
7E00
7E00
7E00
7E00
7E00
7E00
7E00
7E00
7E00
7E00
7E00
7E00
7E00
7E00
7E00
7E00
7E00
7E00
7E00
7E00
7E00
ENDCHAR
STARTCHAR 00EE
ENCODING 238
SWIDTH 240 0
DWIDTH 16 0
BBX 20 49 -2 0
BITMAP
01F800
03FC00
07FE00
07FF00
0FDF80
1F0F80
3E07C0
7C03E0
7801F0
F000F0
600060
000000
000000
000000
000000
000000
000000
01F800
01F800
01F800
01F800
01F800
01F800
01F800
01F800
01F800
01F800
01F800
01F800
01F800
01F800
01F800
01F800
01F800
01F800
01F800
01F800
01F800
01F800
01F800
01F800
01F800
01F800
01F800
01F800
01F800
01F800
01F800
01F800
ENDCHAR
STARTCHAR 00EF
ENCODING 239
SWIDTH 240 0
DWIDTH 16 0
BBX 20 46 -2 0
BITMAP
1800C0
7C03E0
7E03F0
FE07F0
7E07F0
7E03E0
3C01C0
000000
000000
000000
000000
000000
000000
000000
01F800
01F800
01F800
01F800
01F800
01F800
01F800
01F800
01F800
01F800
01F800
01F800
01F800
01F800
01F800
01F800
01F800
01F800
01F800
01F800
01F800
01F800
01F800
01F800
01F800
01F800
01F800
01F800
01F800
01F800
01F800
01F800
ENDCHAR
STARTCHAR 00F0
ENCODING 240
SWIDTH 540 0
DWIDTH 36 0
BBX 28 49 4 -1
BITMAP
01800000
03E00060
03F001E0
07FC07F0
01FE1FC0
007F3F00
003FFE00
000FF800
000FF000
003FF800
00FFF800
03F8FC00
0FE07E00
07803F00
06001F00
00001F80
00000F80
00000FC0
000007C0
007F87E0
01FFE7E0
07FFFBE0
0FFFFFE0
1FE07FF0
3F801FF0
3F0007F0
7E0003F0
7C0001F0
FC0001F0
F80001F0
F80001F0
F80001F0
F80001F0
F80001F0
F80001F0
F80001F0
F80001F0
F80003F0
FC0003E0
7C0003E0
7E0007E0
7F000FC0
3F801FC0
1FC03F80
0FFFFF00
07FFFE00
03FFFC00
00FFF000
003FC000
ENDCHAR
STARTCHAR 00F1
ENCODING 241
SWIDTH 540 0
DWIDTH 36 0
BBX 26 48 5 0
BITMAP
01F80300
03FC03C0
07FE03C0
0FFF03C0
0F1F87C0
1E0FC780
1E07FF80
1E03FF00
1E01FE00
00007C00
00000000
00000000
00000000
00000000
00000000
0007F000
F81FFC00
F87FFE00
F8FFFF00
F9FFFF80
FFE03F80
FFC01FC0
FF000FC0
FE000FC0
FC0007C0
FC0007C0
FC0007C0
FC0007C0
FC0007C0
FC0007C0
FC0007C0
FC0007C0
FC0007C0
FC0007C0
FC0007C0
FC0007C0
FC0007C0
FC0007C0
FC0007C0
FC0007C0
FC0007C0
FC0007C0
FC0007C0
FC0007C0
FC0007C0
FC0007C0
FC0007C0
FC0007C0
ENDCHAR
STARTCHAR 00F2
ENCODING 242
SWIDTH 540 0
DWIDTH 36 0
BBX 30 53 3 -1
BITMAP
00400000
00E00000
01E00000
03F00000
03F80000
01FC0000
00FE0000
007F0000
003F0000
001F8000
000FC000
0007E000
0003C000
00018000
00000000
00000000
00000000
00000000
00000000
001FE000
007FFC00
01FFFE00
03FFFF80
07FFFFC0
0FE01FC0
1FC00FE0
3F8007F0
3F0003F0
7E0001F8
7E0001F8
7E0000F8
7C0000FC
FC0000FC
FC0000FC
FC0000FC
FC0000FC
FC0000FC
FC0000FC
FC0000FC
FC0000FC
7C0000FC
7E0000F8
7E0001F8
7E0001F8
3F0003F0
3F8003F0
1FC007E0
0FE01FC0
07FFFFC0
03FFFF80
01FFFE00
007FFC00
001FE000
ENDCHAR
STARTCHAR 00F3
ENCODING 243
SWIDTH 540 0
DWIDTH 36 0
BBX 30 53 3 -1
BITMAP
00000800
00000C00
00001E00
00003F00
00007F00
0000FE00
0001FC00
0001F800
0003F000
0007E000
000FC000
000F8000
00070000
00020000
00000000
00000000
00000000
00000000
00000000
001FE000
007FFC00
01FFFE00
03FFFF80
07FFFFC0
0FE01FC0
1FC00FE0
3F8007F0
3F0003F0
7E0001F8
7E0001F8
7E0000F8
7C0000FC
FC0000FC
FC0000FC
FC0000FC
FC0000FC
FC0000FC
FC0000FC
FC0000FC
FC0000FC
7C0000FC
7E0000F8
7E0001F8
7E0001F8
3F0003F0
3F8003F0
1FC007E0
0FE01FC0
07FFFFC0
03FFFF80
01FFFE00
007FFC00
001FE000
ENDCHAR
STARTCHAR 00F4
ENCODING 244
SWIDTH 540 0
DWIDTH 36 0
BBX 30 50 3 -1
BITMAP
000FC000
001FE000
003FF000
007FF800
007CF800
00F87C00
01F03E00
03E01F00
07C00F80
07800780
03000300
00000000
00000000
00000000
00000000
00000000
001FE000
007FFC00
01FFFE00
03FFFF80
07FFFFC0
0FE01FC0
1FC00FE0
3F8007F0
3F0003F0
7E0001F8
7E0001F8
7E0000F8
7C0000FC
FC0000FC
FC0000FC
FC0000FC
FC0000FC
FC0000FC
FC0000FC
FC0000FC
FC0000FC
7C0000FC
7E0000F8
7E0001F8
7E0001F8
3F0003F0
3F8003F0
1FC007E0
0FE01FC0
07FFFFC0
03FFFF80
01FFFE00
007FFC00
001FE000
ENDCHAR
STARTCHAR 00F5
ENCODING 245
SWIDTH 540 0
DWIDTH 36 0
BBX 30 49 3 -1
BITMAP
01F80180
03FC01E0
07FE01C0
07FF03C0
0F8F83C0
0F07C7C0
0F03FF80
0E01FF80
0E00FF00
00007C00
00000000
00000000
00000000
00000000
00000000
001FE000
007FFC00
01FFFE00
03FFFF80
07FFFFC0
0FE01FC0
1FC00FE0
3F8007F0
3F0003F0
7E0001F8
7E0001F8
7E0000F8
7C0000FC
FC0000FC
FC0000FC
FC0000FC
FC0000FC
FC0000FC
FC0000FC
FC0000FC
FC0000FC
7C0000FC
7E0000F8
7E0001F8
7E0001F8
3F0003F0
3F8003F0
1FC007E0
0FE01FC0
07FFFFC0
03FFFF80
01FFFE00
007FFC00
001FE000
ENDCHAR
STARTCHAR 00F6
ENCODING 246
SWIDTH 540 0
DWIDTH 36 0
BBX 30 47 3 -1
BITMAP
00C00400
03E01F00
03F03F80
07F03F80
07F03F80
03E01F00
01C00E00
00000000
00000000
00000000
00000000
00000000
00000000
001FE000
007FFC00
01FFFE00
03FFFF80
07FFFFC0
0FE01FC0
1FC00FE0
3F8007F0
3F0003F0
7E0001F8
7E0001F8
7E0000F8
7C0000FC
FC0000FC
FC0000FC
FC0000FC
FC0000FC
FC0000FC
FC0000FC
FC0000FC
FC0000FC
7C0000FC
7E0000F8
7E0001F8
7E0001F8
3F0003F0
3F8003F0
1FC007E0
0FE01FC0
07FFFFC0
03FFFF80
01FFFE00
007FFC00
001FE000
ENDCHAR
STARTCHAR 00F7
ENCODING 247
SWIDTH 495 0
DWIDTH 33 0
BBX 29 31 2 6
BITMAP
00078000
000FC000
001FC000
001FC000
001FC000
000FC000
00070000
00000000
00000000
00000000
00000000
00000000
00000000
FFFFFFF8
FFFFFFF8
FFFFFFF8
FFFFFFF8
00000000
00000000
00000000
00000000
00000000
00000000
00000000
00078000
000FC000
001FC000
001FC000
001FC000
000FC000
00070000
ENDCHAR
STARTCHAR 00F8
ENCODING 248
SWIDTH 540 0
DWIDTH 36 0
BBX 30 36 3 -2
BITMAP
00000010
001FE018
007FFC3C
01FFFE78
03FFFFF0
07FCFFE0
0FE01FC0
1F8007E0
3F0007F0
3F000FF0
7E001FF8
7E003DF8
7C003CF8
7C0078FC
FC00F0FC
FC01E0FC
FC03C07C
F807807C
FC07807C
FC0F007C
FC1E007C
FC3C00FC
7C7800FC
7C7800F8
7EF000F8
7FE001F8
3FC003F0
3F8003F0
1F8007E0
0FE01FC0
1FFCFFC0
3FFFFF80
79FFFE00
F07FFC00
701FE000
20000000
ENDCHAR
STARTCHAR 00F9
ENCODING 249
SWIDTH 540 0
DWIDTH 36 0
BBX 26 53 5 -1
BITMAP
01000000
03000000
07800000
0FC00000
0FE00000
07F00000
03F80000
01FC0000
00FC0000
007E0000
003F0000
001F8000
000F0000
00060000
00000000
00000000
00000000
00000000
00000000
00000000
FC000FC0
FC000FC0
FC000FC0
FC000FC0
FC000FC0
FC000FC0
FC000FC0
FC000FC0
FC000FC0
FC000FC0
FC000FC0
FC000FC0
FC000FC0
FC000FC0
FC000FC0
FC000FC0
FC000FC0
FC000FC0
FC000FC0
FC000FC0
FC000FC0
FC000FC0
FC000FC0
FC000FC0
FC001FC0
7E003FC0
7E007FC0
7F01F7C0
3FFFE7C0
3FFFC7C0
1FFF87C0
0FFF07C0
03F80000
ENDCHAR
STARTCHAR 00FA
ENCODING 250
SWIDTH 540 0
DWIDTH 36 0
BBX 26 52 5 0
BITMAP
00003000
00007800
0000FC00
0001FC00
0003F800
0003F000
0007E000
000FC000
001F8000
003F0000
007E0000
003C0000
00180000
00000000
00000000
00000000
00000000
00000000
00000000
FC000FC0
FC000FC0
FC000FC0
FC000FC0
FC000FC0
FC000FC0
FC000FC0
FC000FC0
FC000FC0
FC000FC0
FC000FC0
FC000FC0
FC000FC0
FC000FC0
FC000FC0
FC000FC0
FC000FC0
FC000FC0
FC000FC0
FC000FC0
FC000FC0
FC000FC0
FC000FC0
FC000FC0
FC001FC0
7E003FC0
7E007FC0
7F01F7C0
3FFFE7C0
3FFFC7C0
1FFF87C0
0FFF07C0
03F80000
ENDCHAR
STARTCHAR 00FB
ENCODING 251
SWIDTH 540 0
DWIDTH 36 0
BBX 26 50 5 -1
BITMAP
003F0000
007F8000
00FFC000
00FFE000
01F3E000
03E1F000
07C0F800
0F807C00
0F003E00
1E001E00
0C000C00
00000000
00000000
00000000
00000000
00000000
00000000
FC000FC0
FC000FC0
FC000FC0
FC000FC0
FC000FC0
FC000FC0
FC000FC0
FC000FC0
FC000FC0
FC000FC0
FC000FC0
FC000FC0
FC000FC0
FC000FC0
FC000FC0
FC000FC0
FC000FC0
FC000FC0
FC000FC0
FC000FC0
FC000FC0
FC000FC0
FC000FC0
FC000FC0
FC001FC0
7E003FC0
7E007FC0
7F01F7C0
3FFFE7C0
3FFFC7C0
1FFF87C0
0FFF07C0
03F80000
ENDCHAR
STARTCHAR 00FC
ENCODING 252
SWIDTH 540 0
DWIDTH 36 0
BBX 26 47 5 -1
BITMAP
03001000
0F807C00
0FC0FE00
1FC0FE00
1FC0FE00
0F807C00
07003800
00000000
00000000
00000000
00000000
00000000
00000000
00000000
FC000FC0
FC000FC0
FC000FC0
FC000FC0
FC000FC0
FC000FC0
FC000FC0
FC000FC0
FC000FC0
FC000FC0
FC000FC0
FC000FC0
FC000FC0
FC000FC0
FC000FC0
FC000FC0
FC000FC0
FC000FC0
FC000FC0
FC000FC0
FC000FC0
FC000FC0
FC000FC0
FC000FC0
FC001FC0
7E003FC0
7E007FC0
7F01F7C0
3FFFE7C0
3FFFC7C0
1FFF87C0
0FFF07C0
03F80000
ENDCHAR
STARTCHAR 00FD
ENCODING 253
SWIDTH 465 0
DWIDTH 31 0
BBX 29 65 1 -13
BITMAP
00000C00
00001E00
00003F00
00007F00
00007E00
0000FC00
0001F800
0003F000
0007E000
000FC000
001F8000
000F0000
00020000
00000000
00000000
00000000
00000000
00000000
00000000
FC0000F8
FC0000F8
7C0001F0
7E0001F0
3E0001F0
3F0003E0
3F0003E0
1F0003E0
1F8007C0
0F8007C0
0F8007C0
0FC00F80
07C00F80
07C00F80
03E01F00
03E01F00
03F01F00
01F03E00
01F03E00
00F83C00
00F87C00
00F87C00
007C7800
007C7800
003CF800
003EF000
003EF000
001FF000
001FE000
000FE000
000FE000
000FC000
0007C000
000FC000
000F8000
000F8000
001F0000
001F0000
003F0000
007E0000
00FC0000
3FFC0000
3FF80000
3FF00000
7FE00000
3F000000
ENDCHAR
STARTCHAR 00FE
ENCODING 254
SWIDTH 555 0
DWIDTH 37 0
BBX 29 61 5 -14
BITMAP
FC000000
FC000000
FC000000
FC000000
FC000000
FC000000
FC000000
FC000000
FC000000
FC000000
FC000000
FC000000
FC000000
FC000000
FC07F000
FC3FFC00
FCFFFF00
FDFFFF80
FFFFFF80
FFE01FC0
FF800FE0
FF0007E0
FE0003F0
FC0003F0
FC0003F0
FC0001F0
FC0001F8
FC0001F8
FC0001F8
FC0001F8
FC0001F8
FC0001F8
FC0001F8
FC0001F8
FC0001F8
FC0001F0
FC0003F0
FC0003F0
FC0007E0
FC0007E0
FE000FE0
FF001FC0
FFC03F80
FFFFFF00
FFFFFF00
FDFFFC00
FC7FF800
FC1FC000
FC000000
FC000000
FC000000
FC000000
FC000000
FC000000
FC000000
FC000000
FC000000
FC000000
FC000000
FC000000
FC000000
ENDCHAR
STARTCHAR 00FF
ENCODING 255
SWIDTH 465 0
DWIDTH 31 0
BBX 29 60 1 -14
BITMAP
00C00600
03E01F00
03F01F80
07F03F80
03F03F80
03F01F00
01E00E00
00000000
00000000
00000000
00000000
00000000
00000000
00000000
FC0000F8
FC0000F8
7C0001F0
7E0001F0
3E0001F0
3F0003E0
3F0003E0
1F0003E0
1F8007C0
0F8007C0
0F8007C0
0FC00F80
07C00F80
07C00F80
03E01F00
03E01F00
03F01F00
01F03E00
01F03E00
00F83C00
00F87C00
00F87C00
007C7800
007C7800
003CF800
003EF000
003EF000
001FF000
001FE000
000FE000
000FE000
000FC000
0007C000
000FC000
000F8000
000F8000
001F0000
001F0000
003F0000
007E0000
00FC0000
3FFC0000
3FF80000
3FF00000
7FE00000
3F000000
ENDCHAR
STARTCHAR 0100
ENCODING 256
SWIDTH 540 0
DWIDTH 36 0
BBX 36 53 0 0
BITMAP
007FFFE000
007FFFE000
007FFFE000
007FFFE000
0000000000
0000000000
0000000000
0000000000
0000000000
0001F80000
0003FC0000
0003FC0000
0003FC0000
0007FE0000
0007FE0000
00079E0000
000F9F0000
000F9F0000
000F8F0000
001F0F8000
001F0F8000
001F0F8000
003E07C000
003E07C000
003E07C000
007C03E000
007C03E000
007C03E000
00F801F000
00F801F000
00F801F800
01F800F800
01F000F800
01F000FC00
03F000FC00
03FFFFFC00
03FFFFFE00
07FFFFFE00
07FFFFFE00
07C0003F00
0FC0003F00
0F80001F00
0F80001F80
1F80001F80
1F80000F80
1F00000FC0
3F00000FC0
3F00000FC0
3E000007E0
7E000007E0
7E000007E0
7C000003F0
FC000003F0
ENDCHAR
STARTCHAR 0101
ENCODING 257
SWIDTH 510 0
DWIDTH 34 0
BBX 26 45 3 -1
BITMAP
03FFFE00
03FFFE00
03FFFE00
03FFFE00
00000000
00000000
00000000
00000000
00000000
00000000
00000000
003FE000
01FFF800
07FFFC00
1FFFFE00
3FFFFF00
1F807F00
1C001F80
08001F80
00000F80
00000FC0
00000FC0
00000FC0
00000FC0
0001FFC0
003FFFC0
00FFFFC0
07FFEFC0
0FFC0FC0
1FE00FC0
3F800FC0
7E000FC0
7E000FC0
7C000FC0
7C000FC0
FC000FC0
FC000FC0
7C001FC0
7E003FC0
7F00FFC0
3FEFF7C0
3FFFE7C0
1FFFC7C0
0FFF07C0
01F80000
ENDCHAR
STARTCHAR 0102
ENCODING 258
SWIDTH 540 0
DWIDTH 36 0
BBX 36 57 0 0
BITMAP
0010008000
00F000F000
007000E000
007801E000
007C03E000
003E07C000
001FFF8000
000FFF0000
0007FE0000
0000600000
0000000000
0000000000
0000000000
0001F80000
0003FC0000
0003FC0000
0003FC0000
0007FE0000
0007FE0000
00079E0000
000F9F0000
000F9F0000
000F8F0000
001F0F8000
001F0F8000
001F0F8000
003E07C000
003E07C000
003E07C000
007C03E000
007C03E000
007C03E000
00F801F000
00F801F000
00F801F800
01F800F800
01F000F800
01F000FC00
03F000FC00
03FFFFFC00
03FFFFFE00
07FFFFFE00
07FFFFFE00
07C0003F00
0FC0003F00
0F80001F00
0F80001F80
1F80001F80
1F80000F80
1F00000FC0
3F00000FC0
3F00000FC0
3E000007E0
7E000007E0
7E000007E0
7C000003F0
FC000003F0
ENDCHAR
STARTCHAR 0103
ENCODING 259
SWIDTH 510 0
DWIDTH 34 0
BBX 26 50 3 -1
BITMAP
01000000
0F000780
0F000780
07800780
07800F00
07C01F00
03E03E00
03FFFE00
01FFFC00
007FF000
001FC000
00000000
00000000
00000000
00000000
00000000
003FE000
01FFF800
07FFFC00
1FFFFE00
3FFFFF00
1F807F00
1C001F80
08001F80
00000F80
00000FC0
00000FC0
00000FC0
00000FC0
0001FFC0
003FFFC0
00FFFFC0
07FFEFC0
0FFC0FC0
1FE00FC0
3F800FC0
7E000FC0
7E000FC0
7C000FC0
7C000FC0
FC000FC0
FC000FC0
7C001FC0
7E003FC0
7F00FFC0
3FEFF7C0
3FFFE7C0
1FFFC7C0
0FFF07C0
01F80000
ENDCHAR
STARTCHAR 0104
ENCODING 260
SWIDTH 540 0
DWIDTH 36 0
BBX 38 59 0 -15
BITMAP
0001F80000
0003FC0000
0003FC0000
0003FC0000
0007FE0000
0007FE0000
00079E0000
000F9F0000
000F9F0000
000F8F0000
001F0F8000
001F0F8000
001F0F8000
003E07C000
003E07C000
003E07C000
007C03E000
007C03E000
007C03E000
00F801F000
00F801F000
00F801F800
01F800F800
01F000F800
01F000FC00
03F000FC00
03FFFFFC00
03FFFFFE00
07FFFFFE00
07FFFFFE00
07C0003F00
0FC0003F00
0F80001F00
0F80001F80
1F80001F80
1F80000F80
1F00000FC0
3F00000FC0
3F00000FC0
3E000007E0
7E000007E0
7E000007E0
7C000003F0
FC000003F0
00000001E0
00000003C0
0000000780
0000000F00
0000000F00
0000001E00
0000001E00
0000001E00
0000003E00
0000003E00
0000001F08
0000001FF8
0000001FFC
0000000FFC
00000003E0
ENDCHAR
STARTCHAR 0105
ENCODING 261
SWIDTH 510 0
DWIDTH 34 0
BBX 27 47 3 -14
BITMAP
003FE000
01FFF800
07FFFC00
1FFFFE00
3FFFFF00
1F807F00
1C001F80
08001F80
00000F80
00000FC0
00000FC0
00000FC0
00000FC0
0001FFC0
003FFFC0
00FFFFC0
07FFEFC0
0FFC0FC0
1FE00FC0
3F800FC0
7E000FC0
7E000FC0
7C000FC0
7C000FC0
FC000FC0
FC000FC0
7C001FC0
7E003FC0
7F00FFC0
3FEFF7C0
3FFFE7C0
1FFFC7C0
0FFF07C0
01F80780
00001E00
00003C00
00003800
00007800
00007000
0000F000
0000F000
0000F000
0000F800
0000FFC0
00007FE0
00003FE0
00001F80
ENDCHAR
STARTCHAR 0106
ENCODING 262
SWIDTH 570 0
DWIDTH 38 0
BBX 33 59 3 -1
BITMAP
000000C000
000001C000
000003E000
000007F000
00000FE000
00003F8000
00007F0000
0000FE0000
0000F80000
0000F00000
0000600000
0000000000
0000000000
0000FF0000
000FFFE000
003FFFF800
007FFFFC00
00FFFFFE00
01FF00FF00
03FC003E00
07F0001C00
0FE0000800
0FC0000000
1F80000000
1F80000000
3F00000000
3F00000000
3E00000000
7E00000000
7E00000000
7E00000000
7E00000000
7C00000000
7C00000000
7C00000000
FC00000000
FC00000000
7C00000000
7C00000000
7C00000000
7E00000000
7E00000000
7E00000000
7E00000000
3F00000000
3F00000000
3F00000000
1F80000000
1F80000000
0FC0000000
0FE0000600
07F0001F00
03FC003F80
03FF00FF00
01FFFFFE00
007FFFFC00
003FFFF800
000FFFE000
0001FF0000
ENDCHAR
STARTCHAR 0107
ENCODING 263
SWIDTH 450 0
DWIDTH 30 0
BBX 25 53 3 -1
BITMAP
00000400
00000E00
00001F00
00003F80
00003F00
00007E00
0000FC00
0001F800
0003F000
0007E000
0007C000
000F8000
00070000
00020000
00000000
00000000
00000000
00000000
00000000
000FE000
007FFC00
01FFFF00
03FFFF80
07FFFF80
0FF00F00
1FC00600
1F800000
3F000000
3F000000
7E000000
7E000000
7C000000
FC000000
FC000000
FC000000
FC000000
FC000000
FC000000
FC000000
FC000000
FC000000
7E000000
7E000000
7F000000
3F000000
3F800100
1FC00300
0FF00F80
0FFFFF80
07FFFF80
01FFFF00
00FFFC00
001FE000
ENDCHAR
STARTCHAR 0108
ENCODING 264
SWIDTH 570 0
DWIDTH 38 0
BBX 33 57 3 -1
BITMAP
0000FC0000
0001FE0000
0003FF0000
0007CF8000
000F87C000
001F03E000
003E01F000
0078007800
0010002000
0000000000
0000000000
0000FF0000
000FFFE000
003FFFF800
007FFFFC00
00FFFFFE00
01FF00FF00
03FC003E00
07F0001C00
0FE0000800
0FC0000000
1F80000000
1F80000000
3F00000000
3F00000000
3E00000000
7E00000000
7E00000000
7E00000000
7E00000000
7C00000000
7C00000000
7C00000000
FC00000000
FC00000000
7C00000000
7C00000000
7C00000000
7E00000000
7E00000000
7E00000000
7E00000000
3F00000000
3F00000000
3F00000000
1F80000000
1F80000000
0FC0000000
0FE0000600
07F0001F00
03FC003F80
03FF00FF00
01FFFFFE00
007FFFFC00
003FFFF800
000FFFE000
0001FF0000
ENDCHAR
STARTCHAR 0109
ENCODING 265
SWIDTH 450 0
DWIDTH 30 0
BBX 26 50 3 -1
BITMAP
000FE000
000FF000
001FF000
003FF800
007EFC00
00FC7E00
00F83F00
01F01F00
03E00780
07C003C0
01800180
00000000
00000000
00000000
00000000
00000000
000FE000
007FFC00
01FFFF00
03FFFF80
07FFFF80
0FF00F00
1FC00600
1F800000
3F000000
3F000000
7E000000
7E000000
7C000000
FC000000
FC000000
FC000000
FC000000
FC000000
FC000000
FC000000
FC000000
FC000000
7E000000
7E000000
7F000000
3F000000
3F800100
1FC00300
0FF00F80
0FFFFF80
07FFFF80
01FFFF00
00FFFC00
001FE000
ENDCHAR
STARTCHAR 010A
ENCODING 266
SWIDTH 570 0
DWIDTH 38 0
BBX 33 56 3 -1
BITMAP
0000780000
0000FC0000
0001FE0000
0001FE0000
0001FE0000
0000FC0000
0000780000
0000000000
0000000000
0000000000
0000FF0000
000FFFE000
003FFFF800
007FFFFC00
00FFFFFE00
01FF00FF00
03FC003E00
07F0001C00
0FE0000800
0FC0000000
1F80000000
1F80000000
3F00000000
3F00000000
3E00000000
7E00000000
7E00000000
7E00000000
7E00000000
7C00000000
7C00000000
7C00000000
FC00000000
FC00000000
7C00000000
7C00000000
7C00000000
7E00000000
7E00000000
7E00000000
7E00000000
3F00000000
3F00000000
3F00000000
1F80000000
1F80000000
0FC0000000
0FE0000600
07F0001F00
03FC003F80
03FF00FF00
01FFFFFE00
007FFFFC00
003FFFF800
000FFFE000
0001FF0000
ENDCHAR
STARTCHAR 010B
ENCODING 267
SWIDTH 450 0
DWIDTH 30 0
BBX 25 47 3 -1
BITMAP
0003C000
0007E000
000FE000
000FE000
000FE000
000FE000
0007C000
00000000
00000000
00000000
00000000
00000000
00000000
000FE000
007FFC00
01FFFF00
03FFFF80
07FFFF80
0FF00F00
1FC00600
1F800000
3F000000
3F000000
7E000000
7E000000
7C000000
FC000000
FC000000
FC000000
FC000000
FC000000
FC000000
FC000000
FC000000
FC000000
7E000000
7E000000
7F000000
3F000000
3F800100
1FC00300
0FF00F80
0FFFFF80
07FFFF80
01FFFF00
00FFFC00
001FE000
ENDCHAR
STARTCHAR 010C
ENCODING 268
SWIDTH 570 0
DWIDTH 38 0
BBX 33 58 3 -1
BITMAP
0010002000
0078007800
003E01F000
001F03E000
000F87C000
0007CF8000
0003FF0000
0001FE0000
0000FC0000
0000000000
0000000000
0000000000
0000FF0000
000FFFE000
003FFFF800
007FFFFC00
00FFFFFE00
01FF00FF00
03FC003E00
07F0001C00
0FE0000800
0FC0000000
1F80000000
1F80000000
3F00000000
3F00000000
3E00000000
7E00000000
7E00000000
7E00000000
7E00000000
7C00000000
7C00000000
7C00000000
FC00000000
FC00000000
7C00000000
7C00000000
7C00000000
7E00000000
7E00000000
7E00000000
7E00000000
3F00000000
3F00000000
3F00000000
1F80000000
1F80000000
0FC0000000
0FE0000600
07F0001F00
03FC003F80
03FF00FF00
01FFFFFE00
007FFFFC00
003FFFF800
000FFFE000
0001FF0000
ENDCHAR
STARTCHAR 010D
ENCODING 269
SWIDTH 450 0
DWIDTH 30 0
BBX 26 51 3 -1
BITMAP
01000100
03800380
03C007C0
03E00F80
01F01F00
00F83E00
007C7C00
007EFC00
003FF800
001FF000
000FE000
0007E000
00000000
00000000
00000000
00000000
00000000
000FE000
007FFC00
01FFFF00
03FFFF80
07FFFF80
0FF00F00
1FC00600
1F800000
3F000000
3F000000
7E000000
7E000000
7C000000
FC000000
FC000000
FC000000
FC000000
FC000000
FC000000
FC000000
FC000000
FC000000
7E000000
7E000000
7F000000
3F000000
3F800100
1FC00300
0FF00F80
0FFFFF80
07FFFF80
01FFFF00
00FFFC00
001FE000
ENDCHAR
STARTCHAR 010E
ENCODING 270
SWIDTH 615 0
DWIDTH 41 0
BBX 32 56 6 0
BITMAP
03000600
07800F00
03C01E00
01F07E00
01F8FC00
00FDF800
007FF000
003FE000
001FC000
00000000
00000000
00000000
FFFF0000
FFFFF000
FFFFFC00
FFFFFF00
FFFFFF80
FC007FC0
FC001FE0
FC000FF0
FC0003F8
FC0003F8
FC0001FC
FC0000FC
FC0000FC
FC00007E
FC00007E
FC00007E
FC00007E
FC00003E
FC00003E
FC00003F
FC00003F
FC00003F
FC00003F
FC00003F
FC00003F
FC00003E
FC00003E
FC00007E
FC00007E
FC00007E
FC00007E
FC0000FC
FC0000FC
FC0001F8
FC0003F8
FC0007F0
FC000FF0
FC001FE0
FC007FC0
FFFFFF80
FFFFFF00
FFFFFC00
FFFFF000
FFFF0000
ENDCHAR
STARTCHAR 010F
ENCODING 271
SWIDTH 570 0
DWIDTH 38 0
BBX 36 51 3 -1
BITMAP
00000000F0
00000000F0
00000000F0
000001F8F0
000001F8F0
000001F8F0
000001F8F0
000001F8F0
000001F8E0
000001F8E0
000001F8E0
000001F8E0
000001F8E0
000001F8E0
000001F800
000001F800
000001F800
001FC1F800
00FFF1F800
01FFFDF800
07FFFFF800
0FFFFFF800
0FF01FF800
1FC007F800
3F8003F800
3F0001F800
7F0001F800
7E0001F800
7E0001F800
7C0001F800
FC0001F800
FC0001F800
FC0001F800
FC0001F800
FC0001F800
FC0001F800
FC0001F800
FC0001F800
FC0001F800
7E0001F800
7E0001F800
7E0001F800
3F0001F800
3F8003F800
3F800FF800
1FE01FF800
0FFFFEF800
07FFFCF800
03FFF8F800
01FFE0F800
003F800000
ENDCHAR
STARTCHAR 0110
ENCODING 272
SWIDTH 645 0
DWIDTH 43 0
BBX 37 44 2 0
BITMAP
07FFFC0000
07FFFFC000
07FFFFF000
07FFFFF800
07FFFFFE00
07E003FF00
07E000FF80
07E0003F80
07E0001FC0
07E0000FE0
07E00007E0
07E00007F0
07E00003F0
07E00003F0
07E00003F0
07E00001F8
07E00001F8
07E00001F8
07E00001F8
FFFFF801F8
FFFFF801F8
FFFFF801F8
07E00001F8
07E00001F8
07E00001F8
07E00001F8
07E00001F8
07E00001F8
07E00001F0
07E00003F0
07E00003F0
07E00003F0
07E00007E0
07E0000FE0
07E0000FC0
07E0001FC0
07E0003F80
07E000FF00
07E003FE00
07FFFFFC00
07FFFFF800
07FFFFF000
07FFFF8000
07FFFC0000
ENDCHAR
STARTCHAR 0111
ENCODING 273
SWIDTH 555 0
DWIDTH 37 0
BBX 33 48 3 -1
BITMAP
000001F800
000001F800
000001F800
000001F800
000001F800
000001F800
000FFFFF80
000FFFFF80
000FFFFF80
000001F800
000001F800
000001F800
000001F800
000001F800
000001F800
000001F800
000001F800
001FC1F800
00FFF1F800
03FFFDF800
07FFFFF800
0FFFFFF800
1FE01FF800
1FC007F800
3F8003F800
3F0001F800
7E0001F800
7E0001F800
7C0001F800
FC0001F800
FC0001F800
FC0001F800
FC0001F800
FC0001F800
FC0001F800
FC0001F800
FC0001F800
7E0001F800
7E0001F800
7F0001F800
3F0003F800
3F800FF800
1FE01FF800
1FFFFFF800
0FFFFCF800
07FFF8F800
01FFE0F800
003F800000
ENDCHAR
STARTCHAR 0112
ENCODING 274
SWIDTH 525 0
DWIDTH 35 0
BBX 26 53 6 0
BITMAP
0FFFFC00
0FFFFC00
0FFFFC00
0FFFFC00
00000000
00000000
00000000
00000000
00000000
FFFFFF80
FFFFFF80
FFFFFF80
FFFFFF80
FFFFFF80
FC000000
FC000000
FC000000
FC000000
FC000000
FC000000
FC000000
FC000000
FC000000
FC000000
FC000000
FC000000
FC000000
FFFFFC00
FFFFFC00
FFFFFC00
FFFFFC00
FFFFFC00
FC000000
FC000000
FC000000
FC000000
FC000000
FC000000
FC000000
FC000000
FC000000
FC000000
FC000000
FC000000
FC000000
FC000000
FC000000
FC000000
FFFFFFC0
FFFFFFC0
FFFFFFC0
FFFFFFC0
FFFFFFC0
ENDCHAR
STARTCHAR 0113
ENCODING 275
SWIDTH 495 0
DWIDTH 33 0
BBX 28 45 3 -1
BITMAP
03FFFE00
03FFFE00
03FFFE00
03FFFE00
00000000
00000000
00000000
00000000
00000000
00000000
00000000
001FE000
007FF800
01FFFE00
03FFFF00
07F8FF80
0FC01F80
1F800FC0
3F0007C0
3E0003E0
7E0003E0
7C0003E0
7C0001E0
7C0001E0
F80001F0
FFFFFFF0
FFFFFFF0
FFFFFFE0
FFFFFFE0
FC000000
FC000000
FC000000
7C000000
7C000000
7E000000
7E000000
3F000000
3F800000
1FC00080
0FF00380
07FE3FC0
03FFFFC0
01FFFF80
007FFE00
000FF000
ENDCHAR
STARTCHAR 0114
ENCODING 276
SWIDTH 525 0
DWIDTH 35 0
BBX 26 57 6 0
BITMAP
02001000
1E001E00
1E001C00
0F003C00
0F807C00
07C0F800
07FFF000
03FFE000
00FFC000
00080000
00000000
00000000
00000000
FFFFFF80
FFFFFF80
FFFFFF80
FFFFFF80
FFFFFF80
FC000000
FC000000
FC000000
FC000000
FC000000
FC000000
FC000000
FC000000
FC000000
FC000000
FC000000
FC000000
FC000000
FFFFFC00
FFFFFC00
FFFFFC00
FFFFFC00
FFFFFC00
FC000000
FC000000
FC000000
FC000000
FC000000
FC000000
FC000000
FC000000
FC000000
FC000000
FC000000
FC000000
FC000000
FC000000
FC000000
FC000000
FFFFFFC0
FFFFFFC0
FFFFFFC0
FFFFFFC0
FFFFFFC0
ENDCHAR
STARTCHAR 0115
ENCODING 277
SWIDTH 495 0
DWIDTH 33 0
BBX 28 50 3 -1
BITMAP
01000000
0F000780
0F000780
07800780
07800F00
07C01F00
03E03E00
01FFFE00
01FFFC00
007FF000
001FC000
00000000
00000000
00000000
00000000
00000000
001FE000
007FF800
01FFFE00
03FFFF00
07F8FF80
0FC01F80
1F800FC0
3F0007C0
3E0003E0
7E0003E0
7C0003E0
7C0001E0
7C0001E0
F80001F0
FFFFFFF0
FFFFFFF0
FFFFFFE0
FFFFFFE0
FC000000
FC000000
FC000000
7C000000
7C000000
7E000000
7E000000
3F000000
3F800000
1FC00080
0FF00380
07FE3FC0
03FFFFC0
01FFFF80
007FFE00
000FF000
ENDCHAR
STARTCHAR 0116
ENCODING 278
SWIDTH 525 0
DWIDTH 35 0
BBX 26 55 6 0
BITMAP
001E0000
003F0000
007F8000
007F8000
007F8000
003F0000
001E0000
00000000
00000000
00000000
00000000
FFFFFF80
FFFFFF80
FFFFFF80
FFFFFF80
FFFFFF80
FC000000
FC000000
FC000000
FC000000
FC000000
FC000000
FC000000
FC000000
FC000000
FC000000
FC000000
FC000000
FC000000
FFFFFC00
FFFFFC00
FFFFFC00
FFFFFC00
FFFFFC00
FC000000
FC000000
FC000000
FC000000
FC000000
FC000000
FC000000
FC000000
FC000000
FC000000
FC000000
FC000000
FC000000
FC000000
FC000000
FC000000
FFFFFFC0
FFFFFFC0
FFFFFFC0
FFFFFFC0
FFFFFFC0
ENDCHAR
STARTCHAR 0117
ENCODING 279
SWIDTH 495 0
DWIDTH 33 0
BBX 28 47 3 -1
BITMAP
00078000
000FC000
001FC000
001FC000
001FC000
001FC000
000F8000
00000000
00000000
00000000
00000000
00000000
00000000
001FE000
007FF800
01FFFE00
03FFFF00
07F8FF80
0FC01F80
1F800FC0
3F0007C0
3E0003E0
7E0003E0
7C0003E0
7C0001E0
7C0001E0
F80001F0
FFFFFFF0
FFFFFFF0
FFFFFFE0
FFFFFFE0
FC000000
FC000000
FC000000
7C000000
7C000000
7E000000
7E000000
3F000000
3F800000
1FC00080
0FF00380
07FE3FC0
03FFFFC0
01FFFF80
007FFE00
000FF000
ENDCHAR
STARTCHAR 0118
ENCODING 280
SWIDTH 525 0
DWIDTH 35 0
BBX 27 59 6 -15
BITMAP
FFFFFF80
FFFFFF80
FFFFFF80
FFFFFF80
FFFFFF80
FC000000
FC000000
FC000000
FC000000
FC000000
FC000000
FC000000
FC000000
FC000000
FC000000
FC000000
FC000000
FC000000
FFFFFC00
FFFFFC00
FFFFFC00
FFFFFC00
FFFFFC00
FC000000
FC000000
FC000000
FC000000
FC000000
FC000000
FC000000
FC000000
FC000000
FC000000
FC000000
FC000000
FC000000
FC000000
FC000000
FC000000
FFFFFFC0
FFFFFFC0
FFFFFFC0
FFFFFFC0
FFFFFFC0
00000F00
00003E00
00003C00
00007800
0000F000
0000F000
0000F000
0001F000
0001F000
0001F000
0001F840
0000FFC0
0000FFE0
00007FC0
00001F00
ENDCHAR
STARTCHAR 0119
ENCODING 281
SWIDTH 495 0
DWIDTH 33 0
BBX 28 47 3 -14
BITMAP
001FE000
007FF800
01FFFE00
03FFFF00
07F8FF80
0FC01F80
1F800FC0
3F0007C0
3E0003E0
7E0003E0
7C0003E0
7C0001E0
7C0001E0
F80001F0
FFFFFFF0
FFFFFFF0
FFFFFFE0
FFFFFFE0
FC000000
FC000000
FC000000
7C000000
7C000000
7E000000
7E000000
3F000000
3F800000
1FC00080
0FF00380
07FE3FC0
03FFFFC0
01FFFF80
007FFF00
000FFE00
00003C00
00007800
0000F000
0000E000
0001E000
0001E000
0001E000
0001E000
0001F000
0001FF80
0000FFC0
00007FC0
00003F00
ENDCHAR
STARTCHAR 011A
ENCODING 282
SWIDTH 525 0
DWIDTH 35 0
BBX 26 56 6 0
BITMAP
0C001800
1F003E00
0F807C00
07C0F800
03E1F000
01F3E000
00FFC000
007F8000
003F0000
00000000
00000000
00000000
FFFFFF80
FFFFFF80
FFFFFF80
FFFFFF80
FFFFFF80
FC000000
FC000000
FC000000
FC000000
FC000000
FC000000
FC000000
FC000000
FC000000
FC000000
FC000000
FC000000
FC000000
FFFFFC00
FFFFFC00
FFFFFC00
FFFFFC00
FFFFFC00
FC000000
FC000000
FC000000
FC000000
FC000000
FC000000
FC000000
FC000000
FC000000
FC000000
FC000000
FC000000
FC000000
FC000000
FC000000
FC000000
FFFFFFC0
FFFFFFC0
FFFFFFC0
FFFFFFC0
FFFFFFC0
ENDCHAR
STARTCHAR 011B
ENCODING 283
SWIDTH 495 0
DWIDTH 33 0
BBX 28 51 3 -1
BITMAP
02000200
07000700
07800F80
07C01F00
03E03E00
01F07C00
00F8F800
00FDF800
007FF000
003FE000
001FC000
000FC000
00000000
00000000
00000000
00000000
00000000
001FE000
007FF800
01FFFE00
03FFFF00
07F8FF80
0FC01F80
1F800FC0
3F0007C0
3E0003E0
7E0003E0
7C0003E0
7C0001E0
7C0001E0
F80001F0
FFFFFFF0
FFFFFFF0
FFFFFFE0
FFFFFFE0
FC000000
FC000000
FC000000
7C000000
7C000000
7E000000
7E000000
3F000000
3F800000
1FC00080
0FF00380
07FE3FC0
03FFFFC0
01FFFF80
007FFE00
000FF000
ENDCHAR
STARTCHAR 011C
ENCODING 284
SWIDTH 615 0
DWIDTH 41 0
BBX 34 57 3 -1
BITMAP
00007F0000
0000FF8000
0001FFC000
0003F7E000
0007E1F000
000F80F800
000F007C00
001E003C00
000C001800
0000000000
0000000000
0000FF8000
0007FFF000
001FFFFC00
007FFFFE00
00FFFFFF00
01FF007F80
03FC001F00
07F0000E00
0FE0000600
0FC0000000
1FC0000000
1F80000000
3F00000000
3F00000000
3F00000000
7E00000000
7E00000000
7E00000000
7E00000000
7C00000000
7C00000000
7C00000000
FC001FFFC0
FC001FFFC0
FC001FFFC0
7C001FFFC0
7C001FFFC0
7E000007C0
7E000007C0
7E000007C0
7E000007C0
3F000007C0
3F000007C0
3F000007C0
1F800007C0
1F800007C0
0FC00007C0
0FE00007C0
07F00007C0
03FC001FC0
03FF007FC0
01FFFFFF80
007FFFFF00
003FFFFC00
000FFFF000
0000FF8000
ENDCHAR
STARTCHAR 011D
ENCODING 285
SWIDTH 510 0
DWIDTH 34 0
BBX 30 64 3 -15
BITMAP
000FC000
001FE000
003FF000
007FF000
007DF800
00F87C00
01F03E00
03E01F00
07C00F00
07800780
03000300
00000000
00000000
00000000
00000000
00000000
003F8000
01FFFFF8
03FFFFF8
0FFFFFF8
0FE0FFF8
1F803E00
3F001F00
3E001F00
3E000F80
7E000F80
7E000F80
7E000F80
7E000F80
7E000F80
3E000F80
3E001F80
3F001F00
1F803F00
0FC07E00
0FFFFC00
07FFF800
0FFFF000
1F3F8000
1E000000
3E000000
3C000000
3E000000
3E000000
3F000000
3FFFE000
1FFFFF80
0FFFFFE0
07FFFFF0
1F7FFFF8
3C0003F8
7C0000FC
780000FC
F80000FC
F80000FC
F80000F8
F80000F8
FC0001F0
7E0007F0
7F801FE0
3FFFFFC0
1FFFFF00
07FFFC00
00FFC000
ENDCHAR
STARTCHAR 011E
ENCODING 286
SWIDTH 615 0
DWIDTH 41 0
BBX 34 58 3 -1
BITMAP
0000001000
001C001C00
001E003C00
001E003C00
000F007800
000FC1F800
0007FFF000
0003FFE000
0000FF8000
0000080000
0000000000
0000000000
0000FF8000
0007FFF000
001FFFFC00
007FFFFE00
00FFFFFF00
01FF007F80
03FC001F00
07F0000E00
0FE0000600
0FC0000000
1FC0000000
1F80000000
3F00000000
3F00000000
3F00000000
7E00000000
7E00000000
7E00000000
7E00000000
7C00000000
7C00000000
7C00000000
FC001FFFC0
FC001FFFC0
FC001FFFC0
7C001FFFC0
7C001FFFC0
7E000007C0
7E000007C0
7E000007C0
7E000007C0
3F000007C0
3F000007C0
3F000007C0
1F800007C0
1F800007C0
0FC00007C0
0FE00007C0
07F00007C0
03FC001FC0
03FF007FC0
01FFFFFF80
007FFFFF00
003FFFFC00
000FFFF000
0000FF8000
ENDCHAR
STARTCHAR 011F
ENCODING 287
SWIDTH 510 0
DWIDTH 34 0
BBX 30 63 3 -14
BITMAP
07000380
07000780
07800780
07800F80
03C00F00
03F03F00
01FFFE00
00FFFC00
007FF800
001FC000
00000000
00000000
00000000
00000000
00000000
003F8000
01FFFFF8
03FFFFF8
0FFFFFF8
0FE0FFF8
1F803E00
3F001F00
3E001F00
3E000F80
7E000F80
7E000F80
7E000F80
7E000F80
7E000F80
3E000F80
3E001F80
3F001F00
1F803F00
0FC07E00
0FFFFC00
07FFF800
0FFFF000
1F3F8000
1E000000
3E000000
3C000000
3E000000
3E000000
3F000000
3FFFE000
1FFFFF80
0FFFFFE0
07FFFFF0
1F7FFFF8
3C0003F8
7C0000FC
780000FC
F80000FC
F80000FC
F80000F8
F80000F8
FC0001F0
7E0007F0
7F801FE0
3FFFFFC0
1FFFFF00
07FFFC00
00FFC000
ENDCHAR
STARTCHAR 0120
ENCODING 288
SWIDTH 615 0
DWIDTH 41 0
BBX 34 56 3 -1
BITMAP
00003E0000
00007F0000
00007F0000
00007F0000
00007F0000
00007F0000
00001E0000
0000000000
0000000000
0000000000
0000FF8000
0007FFF000
001FFFFC00
007FFFFE00
00FFFFFF00
01FF007F80
03FC001F00
07F0000E00
0FE0000600
0FC0000000
1FC0000000
1F80000000
3F00000000
3F00000000
3F00000000
7E00000000
7E00000000
7E00000000
7E00000000
7C00000000
7C00000000
7C00000000
FC001FFFC0
FC001FFFC0
FC001FFFC0
7C001FFFC0
7C001FFFC0
7E000007C0
7E000007C0
7E000007C0
7E000007C0
3F000007C0
3F000007C0
3F000007C0
1F800007C0
1F800007C0
0FC00007C0
0FE00007C0
07F00007C0
03FC001FC0
03FF007FC0
01FFFFFF80
007FFFFF00
003FFFFC00
000FFFF000
0000FF8000
ENDCHAR
STARTCHAR 0121
ENCODING 289
SWIDTH 510 0
DWIDTH 34 0
BBX 30 61 3 -15
BITMAP
00078000
000FC000
001FC000
001FC000
001FC000
000FC000
00078000
00000000
00000000
00000000
00000000
00000000
00000000
003F8000
01FFFFF8
03FFFFF8
0FFFFFF8
0FE0FFF8
1F803E00
3F001F00
3E001F00
3E000F80
7E000F80
7E000F80
7E000F80
7E000F80
7E000F80
3E000F80
3E001F80
3F001F00
1F803F00
0FC07E00
0FFFFC00
07FFF800
0FFFF000
1F3F8000
1E000000
3E000000
3C000000
3E000000
3E000000
3F000000
3FFFE000
1FFFFF80
0FFFFFE0
07FFFFF0
1F7FFFF8
3C0003F8
7C0000FC
780000FC
F80000FC
F80000FC
F80000F8
F80000F8
FC0001F0
7E0007F0
7F801FE0
3FFFFFC0
1FFFFF00
07FFFC00
00FFC000
ENDCHAR
STARTCHAR 0122
ENCODING 290
SWIDTH 615 0
DWIDTH 41 0
BBX 34 60 3 -15
BITMAP
0000FF8000
0007FFF000
001FFFFC00
007FFFFE00
00FFFFFF00
01FF007F80
03FC001F00
07F0000E00
0FE0000600
0FC0000000
1FC0000000
1F80000000
3F00000000
3F00000000
3F00000000
7E00000000
7E00000000
7E00000000
7E00000000
7C00000000
7C00000000
7C00000000
FC001FFFC0
FC001FFFC0
FC001FFFC0
7C001FFFC0
7C001FFFC0
7E000007C0
7E000007C0
7E000007C0
7E000007C0
3F000007C0
3F000007C0
3F000007C0
1F800007C0
1F800007C0
0FC00007C0
0FE00007C0
07F00007C0
03FC001FC0
03FF007FC0
01FFFFFF80
007FFFFF00
003FFFFC00
000FFFF000
0000FF8000
0000000000
0000000000
0000000000
0000780000
00007E0000
0000FF8000
00000F8000
0000078000
0000078000
0000078000
00001F8000
0003FF0000
0003FC0000
0003E00000
ENDCHAR
STARTCHAR 0123
ENCODING 291
SWIDTH 510 0
DWIDTH 34 0
BBX 30 64 3 -15
BITMAP
00007800
0007F800
001FF800
003F0000
003C0000
003C0000
003C0000
003E0000
003FE000
000FC000
0003C000
00000000
00000000
00000000
00000000
00000000
003F8000
01FFFFF8
03FFFFF8
0FFFFFF8
0FE0FFF8
1F803E00
3F001F00
3E001F00
3E000F80
7E000F80
7E000F80
7E000F80
7E000F80
7E000F80
3E000F80
3E001F80
3F001F00
1F803F00
0FC07E00
0FFFFC00
07FFF800
0FFFF000
1F3F8000
1E000000
3E000000
3C000000
3E000000
3E000000
3F000000
3FFFE000
1FFFFF80
0FFFFFE0
07FFFFF0
1F7FFFF8
3C0003F8
7C0000FC
780000FC
F80000FC
F80000FC
F80000F8
F80000F8
FC0001F0
7E0007F0
7F801FE0
3FFFFFC0
1FFFFF00
07FFFC00
00FFC000
ENDCHAR
STARTCHAR 0124
ENCODING 292
SWIDTH 645 0
DWIDTH 43 0
BBX 31 56 6 0
BITMAP
000FE000
001FF000
003FF800
007EFC00
007C3E00
00F81F00
01E00F80
03C00780
01800300
00000000
00000000
00000000
FC00003E
FC00003E
FC00003E
FC00003E
FC00003E
FC00003E
FC00003E
FC00003E
FC00003E
FC00003E
FC00003E
FC00003E
FC00003E
FC00003E
FC00003E
FC00003E
FC00003E
FC00003E
FFFFFFFE
FFFFFFFE
FFFFFFFE
FFFFFFFE
FFFFFFFE
FC00003E
FC00003E
FC00003E
FC00003E
FC00003E
FC00003E
FC00003E
FC00003E
FC00003E
FC00003E
FC00003E
FC00003E
FC00003E
FC00003E
FC00003E
FC00003E
FC00003E
FC00003E
FC00003E
FC00003E
FC00003E
ENDCHAR
STARTCHAR 0125
ENCODING 293
SWIDTH 540 0
DWIDTH 36 0
BBX 32 58 -1 0
BITMAP
03F80000
07FC0000
0FFE0000
1FBE0000
3E1F0000
7C0F8000
F803C000
F001E000
6000C000
00000000
00000000
03F00000
03F00000
03F00000
03F00000
03F00000
03F00000
03F00000
03F00000
03F00000
03F00000
03F00000
03F00000
03F00000
03F00000
03F01FC0
03F07FF0
03F1FFF8
03F3FFFC
03F7FFFE
03FF80FE
03FF007F
03FC003F
03F8003F
03F0001F
03F0001F
03F0001F
03F0001F
03F0001F
03F0001F
03F0001F
03F0001F
03F0001F
03F0001F
03F0001F
03F0001F
03F0001F
03F0001F
03F0001F
03F0001F
03F0001F
03F0001F
03F0001F
03F0001F
03F0001F
03F0001F
03F0001F
03F0001F
ENDCHAR
STARTCHAR 0126
ENCODING 294
SWIDTH 690 0
DWIDTH 46 0
BBX 42 44 2 0
BITMAP
07E00001F800
07E00001F800
07E00001F800
07E00001F800
07E00001F800
07E00001F800
07E00001F800
07E00001F800
FFFFFFFFFFC0
FFFFFFFFFFC0
FFFFFFFFFFC0
07E00001F800
07E00001F800
07E00001F800
07E00001F800
07E00001F800
07E00001F800
07E00001F800
07FFFFFFF800
07FFFFFFF800
07FFFFFFF800
07FFFFFFF800
07FFFFFFF800
07E00001F800
07E00001F800
07E00001F800
07E00001F800
07E00001F800
07E00001F800
07E00001F800
07E00001F800
07E00001F800
07E00001F800
07E00001F800
07E00001F800
07E00001F800
07E00001F800
07E00001F800
07E00001F800
07E00001F800
07E00001F800
07E00001F800
07E00001F800
07E00001F800
ENDCHAR
STARTCHAR 0127
ENCODING 295
SWIDTH 540 0
DWIDTH 36 0
BBX 30 47 1 0
BITMAP
0FC00000
0FC00000
0FC00000
0FC00000
0FC00000
0FC00000
FFFFFC00
FFFFFC00
FFFFFC00
0FC00000
0FC00000
0FC00000
0FC00000
0FC00000
0FC00000
0FC00000
0FC00000
0FC07F00
0FC1FFC0
0FC7FFE0
0FCFFFF0
0FDFFFF8
0FFE03F8
0FFC01FC
0FF000FC
0FE000FC
0FC0007C
0FC0007C
0FC0007C
0FC0007C
0FC0007C
0FC0007C
0FC0007C
0FC0007C
0FC0007C
0FC0007C
0FC0007C
0FC0007C
0FC0007C
0FC0007C
0FC0007C
0FC0007C
0FC0007C
0FC0007C
0FC0007C
0FC0007C
0FC0007C
ENDCHAR
STARTCHAR 0128
ENCODING 296
SWIDTH 270 0
DWIDTH 18 0
BBX 23 56 -3 0
BITMAP
0FC00E
1FE00E
3FF01E
7FFC1E
787E3E
F03FFC
F01FFC
F00FF8
0003E0
000000
000000
000000
007E00
007E00
007E00
007E00
007E00
007E00
007E00
007E00
007E00
007E00
007E00
007E00
007E00
007E00
007E00
007E00
007E00
007E00
007E00
007E00
007E00
007E00
007E00
007E00
007E00
007E00
007E00
007E00
007E00
007E00
007E00
007E00
007E00
007E00
007E00
007E00
007E00
007E00
007E00
007E00
007E00
007E00
007E00
007E00
ENDCHAR
STARTCHAR 0129
ENCODING 297
SWIDTH 240 0
DWIDTH 16 0
BBX 23 48 -3 0
BITMAP
0F8018
3FE01E
7FF01E
7FF01C
F8F83C
F07E7C
F03FFC
F01FF8
E00FF0
0003E0
000000
000000
000000
000000
000000
000000
00FC00
00FC00
00FC00
00FC00
00FC00
00FC00
00FC00
00FC00
00FC00
00FC00
00FC00
00FC00
00FC00
00FC00
00FC00
00FC00
00FC00
00FC00
00FC00
00FC00
00FC00
00FC00
00FC00
00FC00
00FC00
00FC00
00FC00
00FC00
00FC00
00FC00
00FC00
00FC00
ENDCHAR
STARTCHAR 012A
ENCODING 298
SWIDTH 270 0
DWIDTH 18 0
BBX 18 53 0 0
BITMAP
FFFFC0
FFFFC0
FFFFC0
FFFFC0
000000
000000
000000
000000
000000
03F000
03F000
03F000
03F000
03F000
03F000
03F000
03F000
03F000
03F000
03F000
03F000
03F000
03F000
03F000
03F000
03F000
03F000
03F000
03F000
03F000
03F000
03F000
03F000
03F000
03F000
03F000
03F000
03F000
03F000
03F000
03F000
03F000
03F000
03F000
03F000
03F000
03F000
03F000
03F000
03F000
03F000
03F000
03F000
ENDCHAR
STARTCHAR 012B
ENCODING 299
SWIDTH 240 0
DWIDTH 16 0
BBX 18 44 -1 0
BITMAP
FFFFC0
FFFFC0
FFFFC0
FFFFC0
000000
000000
000000
000000
000000
000000
000000
000000
03F000
03F000
03F000
03F000
03F000
03F000
03F000
03F000
03F000
03F000
03F000
03F000
03F000
03F000
03F000
03F000
03F000
03F000
03F000
03F000
03F000
03F000
03F000
03F000
03F000
03F000
03F000
03F000
03F000
03F000
03F000
03F000
ENDCHAR
STARTCHAR 012C
ENCODING 300
SWIDTH 270 0
DWIDTH 18 0
BBX 19 57 -1 0
BITMAP
000080
F000E0
F000E0
7801E0
7C03C0
3E0FC0
3FFF80
1FFF00
07FE00
004000
000000
000000
000000
01F800
01F800
01F800
01F800
01F800
01F800
01F800
01F800
01F800
01F800
01F800
01F800
01F800
01F800
01F800
01F800
01F800
01F800
01F800
01F800
01F800
01F800
01F800
01F800
01F800
01F800
01F800
01F800
01F800
01F800
01F800
01F800
01F800
01F800
01F800
01F800
01F800
01F800
01F800
01F800
01F800
01F800
01F800
01F800
ENDCHAR
STARTCHAR 012D
ENCODING 301
SWIDTH 240 0
DWIDTH 16 0
BBX 21 48 -2 1
BITMAP
F00078
F00078
F000F0
7800F0
7C01F0
3E03E0
3FFFC0
1FFF80
0FFF00
01FC00
000000
000000
000000
000000
000000
000000
01F800
01F800
01F800
01F800
01F800
01F800
01F800
01F800
01F800
01F800
01F800
01F800
01F800
01F800
01F800
01F800
01F800
01F800
01F800
01F800
01F800
01F800
01F800
01F800
01F800
01F800
01F800
01F800
01F800
01F800
01F800
01F800
ENDCHAR
STARTCHAR 012E
ENCODING 302
SWIDTH 270 0
DWIDTH 18 0
BBX 11 59 3 -15
BITMAP
1F80
1F80
1F80
1F80
1F80
1F80
1F80
1F80
1F80
1F80
1F80
1F80
1F80
1F80
1F80
1F80
1F80
1F80
1F80
1F80
1F80
1F80
1F80
1F80
1F80
1F80
1F80
1F80
1F80
1F80
1F80
1F80
1F80
1F80
1F80
1F80
1F80
1F80
1F80
1F80
1F80
1F80
1F80
1F80
0F00
1E00
3C00
3800
7800
7800
F000
F000
F000
F800
FC40
FFE0
7FE0
3FE0
1F80
ENDCHAR
STARTCHAR 012F
ENCODING 303
SWIDTH 240 0
DWIDTH 16 0
BBX 10 60 3 -14
BITMAP
1E00
3F00
3F80
7F80
3F80
3F00
1E00
0000
0000
0000
0000
0000
0000
0000
3F00
3F00
3F00
3F00
3F00
3F00
3F00
3F00
3F00
3F00
3F00
3F00
3F00
3F00
3F00
3F00
3F00
3F00
3F00
3F00
3F00
3F00
3F00
3F00
3F00
3F00
3F00
3F00
3F00
3F00
3F00
3F00
1E00
3C00
3800
7800
F000
F000
F000
F000
F000
F800
FFC0
FFC0
7FC0
1F00
ENDCHAR
STARTCHAR 0130
ENCODING 304
SWIDTH 270 0
DWIDTH 18 0
BBX 8 55 5 0
BITMAP
3C
7E
FE
FF
FE
FE
7C
00
00
00
00
7E
7E
7E
7E
7E
7E
7E
7E
7E
7E
7E
7E
7E
7E
7E
7E
7E
7E
7E
7E
7E
7E
7E
7E
7E
7E
7E
7E
7E
7E
7E
7E
7E
7E
7E
7E
7E
7E
7E
7E
7E
7E
7E
7E
ENDCHAR
STARTCHAR 0131
ENCODING 305
SWIDTH 240 0
DWIDTH 16 0
BBX 6 32 5 0
BITMAP
FC
FC
FC
FC
FC
FC
FC
FC
FC
FC
FC
FC
FC
FC
FC
FC
FC
FC
FC
FC
FC
FC
FC
FC
FC
FC
FC
FC
FC
FC
FC
FC
ENDCHAR
STARTCHAR 0132
ENCODING 306
SWIDTH 525 0
DWIDTH 35 0
BBX 23 55 6 -11
BITMAP
FC003E
FC003E
FC003E
FC003E
FC003E
FC003E
FC003E
FC003E
FC003E
FC003E
FC003E
FC003E
FC003E
FC003E
FC003E
FC003E
FC003E
FC003E
FC003E
FC003E
FC003E
FC003E
FC003E
FC003E
FC003E
FC003E
FC003E
FC003E
FC003E
FC003E
FC003E
FC003E
FC003E
FC003E
FC003E
FC003E
FC003E
FC003E
FC003E
FC003E
FC003E
FC003E
FC003E
FC003E
00003E
00007E
00007E
00007E
00007E
0000FC
003FFC
003FF8
003FF8
007FF0
003FC0
ENDCHAR
STARTCHAR 0133
ENCODING 307
SWIDTH 495 0
DWIDTH 33 0
BBX 24 61 4 -15
BITMAP
3C001E
7F003F
7F007F
FF007F
7F007F
7E003F
3C001E
000000
000000
000000
000000
000000
000000
000000
7E003E
7E003E
7E003E
7E003E
7E003E
7E003E
7E003E
7E003E
7E003E
7E003E
7E003E
7E003E
7E003E
7E003E
7E003E
7E003E
7E003E
7E003E
7E003E
7E003E
7E003E
7E003E
7E003E
7E003E
7E003E
7E003E
7E003E
7E003E
7E003E
7E003E
7E003E
7E003E
00003E
00003E
00003E
00003E
00003E
00003E
00003E
00003E
00007E
00007E
001FFC
003FFC
003FF8
003FF0
001FC0
ENDCHAR
STARTCHAR 0134
ENCODING 308
SWIDTH 480 0
DWIDTH 32 0
BBX 31 57 2 -1
BITMAP
00003F80
00007FC0
0000FFC0
0001F3E0
0003E1F0
0007C0F8
000F807C
001F001E
0006000C
00000000
00000000
00000000
00001F00
00001F00
00001F00
00001F00
00001F00
00001F00
00001F00
00001F00
00001F00
00001F00
00001F00
00001F00
00001F00
00001F00
00001F00
00001F00
00001F00
00001F00
00001F00
00001F00
00001F00
00001F00
00001F00
00001F00
00001F00
00001F00
00001F00
00001F00
00001F00
00001F00
00001F00
00001F00
00001F00
00003F00
00003F00
00003F00
38003F00
7C007E00
FE00FE00
7F01FC00
3FFFFC00
1FFFF800
0FFFF000
07FFC000
00FF0000
ENDCHAR
STARTCHAR 0135
ENCODING 309
SWIDTH 240 0
DWIDTH 16 0
BBX 22 64 -3 -15
BITMAP
00FC00
01FE00
01FF00
03FF80
07EFC0
0FC7C0
1F83E0
3E01F0
3C00F8
78007C
300030
000000
000000
000000
000000
000000
000000
007C00
007C00
007C00
007C00
007C00
007C00
007C00
007C00
007C00
007C00
007C00
007C00
007C00
007C00
007C00
007C00
007C00
007C00
007C00
007C00
007C00
007C00
007C00
007C00
007C00
007C00
007C00
007C00
007C00
007C00
007C00
007C00
007C00
007C00
007C00
007C00
007C00
007C00
00FC00
00FC00
00FC00
01F800
77F800
7FF000
7FF000
FFE000
7F8000
ENDCHAR
STARTCHAR 0136
ENCODING 310
SWIDTH 585 0
DWIDTH 39 0
BBX 32 59 6 -15
BITMAP
FC0000FC
FC0001F8
FC0003F0
FC0007E0
FC000FE0
FC001FC0
FC001F80
FC003F00
FC007E00
FC00FC00
FC01FC00
FC03F800
FC03F000
FC07E000
FC0FC000
FC1FC000
FC3F8000
FC7F8000
FC7FC000
FCFFC000
FDFFE000
FFFFE000
FFF3F000
FFE3F000
FFC1F800
FF80FC00
FF80FC00
FF007E00
FE007E00
FC003F00
FC003F80
FC001F80
FC000FC0
FC000FC0
FC0007E0
FC0007E0
FC0003F0
FC0003F8
FC0001F8
FC0000FC
FC0000FC
FC00007E
FC00007E
FC00003F
00000000
00000000
00000000
00000000
00070000
000FE000
000FF000
0000F800
00007800
00007800
0000F800
0001F000
007FE000
003FC000
003C0000
ENDCHAR
STARTCHAR 0137
ENCODING 311
SWIDTH 495 0
DWIDTH 33 0
BBX 27 62 5 -15
BITMAP
FC000000
FC000000
FC000000
FC000000
FC000000
FC000000
FC000000
FC000000
FC000000
FC000000
FC000000
FC000000
FC000000
FC000000
FC000000
FC001FC0
FC001F80
FC003F00
FC007E00
FC00FC00
FC01F800
FC01F000
FC03F000
FC07E000
FC0FC000
FC1F8000
FC3F0000
FC3E0000
FC7E0000
FCFF0000
FDFF8000
FFFF8000
FFEFC000
FFC7E000
FF83E000
FF83F000
FF01F800
FE00F800
FC00FC00
FC007E00
FC007E00
FC003F00
FC001F80
FC001F80
FC000FC0
FC000FC0
FC0007E0
00000000
00000000
00000000
00000000
003C0000
003F0000
007FC000
0007C000
0003C000
0003C000
0003C000
000FC000
01FF8000
01FE0000
01F00000
ENDCHAR
STARTCHAR 0138
ENCODING 312
SWIDTH 495 0
DWIDTH 33 0
BBX 27 32 5 0
BITMAP
FC001FC0
FC001F80
FC003F00
FC007E00
FC00FC00
FC01F800
FC01F000
FC03F000
FC07E000
FC0FC000
FC1F8000
FC1F0000
FC3E0000
FC7F0000
FCFF0000
FDFF8000
FDFFC000
FFEFC000
FFC7E000
FFC3E000
FF83F000
FF01F800
FE01F800
FC00FC00
FC007E00
FC007E00
FC003F00
FC001F80
FC001F80
FC000FC0
FC000FC0
FC0007E0
ENDCHAR
STARTCHAR 0139
ENCODING 313
SWIDTH 480 0
DWIDTH 32 0
BBX 26 58 5 0
BITMAP
00400000
00E00000
01F00000
03F80000
07F00000
0FC00000
1F800000
7F000000
FC000000
78000000
30000000
00000000
00000000
00000000
7E000000
7E000000
7E000000
7E000000
7E000000
7E000000
7E000000
7E000000
7E000000
7E000000
7E000000
7E000000
7E000000
7E000000
7E000000
7E000000
7E000000
7E000000
7E000000
7E000000
7E000000
7E000000
7E000000
7E000000
7E000000
7E000000
7E000000
7E000000
7E000000
7E000000
7E000000
7E000000
7E000000
7E000000
7E000000
7E000000
7E000000
7E000000
7E000000
7FFFFFC0
7FFFFFC0
7FFFFFC0
7FFFFFC0
7FFFFFC0
ENDCHAR
STARTCHAR 013A
ENCODING 314
SWIDTH 255 0
DWIDTH 17 0
BBX 12 62 5 -1
BITMAP
0080
01C0
03E0
07F0
0FE0
1FC0
3F00
7E00
FC00
F000
6000
0000
0000
0000
FC00
FC00
FC00
FC00
FC00
FC00
FC00
FC00
FC00
FC00
FC00
FC00
FC00
FC00
FC00
FC00
FC00
FC00
FC00
FC00
FC00
FC00
FC00
FC00
FC00
FC00
FC00
FC00
FC00
FC00
FC00
FC00
FC00
FC00
FC00
FC00
FC00
FC00
FC00
FC00
FC00
FC00
7C00
7F80
7F80
7F80
3F80
0F80
ENDCHAR
STARTCHAR 013B
ENCODING 315
SWIDTH 480 0
DWIDTH 32 0
BBX 25 59 6 -15
BITMAP
FC000000
FC000000
FC000000
FC000000
FC000000
FC000000
FC000000
FC000000
FC000000
FC000000
FC000000
FC000000
FC000000
FC000000
FC000000
FC000000
FC000000
FC000000
FC000000
FC000000
FC000000
FC000000
FC000000
FC000000
FC000000
FC000000
FC000000
FC000000
FC000000
FC000000
FC000000
FC000000
FC000000
FC000000
FC000000
FC000000
FC000000
FC000000
FC000000
FFFFFF80
FFFFFF80
FFFFFF80
FFFFFF80
FFFFFF80
00000000
00000000
00000000
00000000
003C0000
003F0000
007FC000
0007C000
0003C000
0003C000
0003C000
000FC000
01FF8000
01FE0000
01F00000
ENDCHAR
STARTCHAR 013C
ENCODING 316
SWIDTH 255 0
DWIDTH 17 0
BBX 12 62 4 -15
BITMAP
7E00
7E00
7E00
7E00
7E00
7E00
7E00
7E00
7E00
7E00
7E00
7E00
7E00
7E00
7E00
7E00
7E00
7E00
7E00
7E00
7E00
7E00
7E00
7E00
7E00
7E00
7E00
7E00
7E00
7E00
7E00
7E00
7E00
7E00
7E00
7E00
7E00
7E00
7E00
7E00
7E00
7E00
3E00
3FC0
3FC0
3FC0
1FC0
07C0
0000
0000
0000
0E00
1FC0
1FE0
03F0
01F0
01F0
01F0
07E0
FFC0
FF00
7800
ENDCHAR
STARTCHAR 013D
ENCODING 317
SWIDTH 480 0
DWIDTH 32 0
BBX 25 49 6 0
BITMAP
0000F000
0000F000
0000F000
0000F000
0000F000
FC00F000
FC00F000
FC00F000
FC00E000
FC00E000
FC00E000
FC00E000
FC00E000
FC00E000
FC00E000
FC000000
FC000000
FC000000
FC000000
FC000000
FC000000
FC000000
FC000000
FC000000
FC000000
FC000000
FC000000
FC000000
FC000000
FC000000
FC000000
FC000000
FC000000
FC000000
FC000000
FC000000
FC000000
FC000000
FC000000
FC000000
FC000000
FC000000
FC000000
FC000000
FFFFFF80
FFFFFF80
FFFFFF80
FFFFFF80
FFFFFF80
ENDCHAR
STARTCHAR 013E
ENCODING 318
SWIDTH 270 0
DWIDTH 18 0
BBX 13 51 5 -1
BITMAP
0078
0078
0078
FC38
FC38
FC38
FC38
FC38
FC38
FC38
FC38
FC38
FC38
FC30
FC00
FC00
FC00
FC00
FC00
FC00
FC00
FC00
FC00
FC00
FC00
FC00
FC00
FC00
FC00
FC00
FC00
FC00
FC00
FC00
FC00
FC00
FC00
FC00
FC00
FC00
FC00
FC00
FC00
FC00
FC00
7C00
7F80
7F80
7F80
3F80
0F80
ENDCHAR
STARTCHAR 013F
ENCODING 319
SWIDTH 480 0
DWIDTH 32 0
BBX 25 44 6 0
BITMAP
FC000000
FC000000
FC000000
FC000000
FC000000
FC000000
FC000000
FC000000
FC000000
FC000000
FC000000
FC000000
FC000000
FC000000
FC000000
FC000000
FC000000
FC000000
FC007800
FC00FC00
FC01FE00
FC01FE00
FC01FE00
FC01FE00
FC00FC00
FC007C00
FC000000
FC000000
FC000000
FC000000
FC000000
FC000000
FC000000
FC000000
FC000000
FC000000
FC000000
FC000000
FC000000
FFFFFF80
FFFFFF80
FFFFFF80
FFFFFF80
FFFFFF80
ENDCHAR
STARTCHAR 0140
ENCODING 320
SWIDTH 360 0
DWIDTH 24 0
BBX 19 48 5 -1
BITMAP
FC0000
FC0000
FC0000
FC0000
FC0000
FC0000
FC0000
FC0000
FC0000
FC0000
FC0000
FC0000
FC0000
FC0000
FC0000
FC0000
FC0000
FC0000
FC0000
FC0000
FC0000
FC0000
FC07C0
FC0FE0
FC0FE0
FC1FE0
FC1FE0
FC0FE0
FC0FC0
FC0780
FC0000
FC0000
FC0000
FC0000
FC0000
FC0000
FC0000
FC0000
FC0000
FC0000
FC0000
FC0000
7C0000
7F8000
7F8000
7F8000
3F8000
0F8000
ENDCHAR
STARTCHAR 0141
ENCODING 321
SWIDTH 495 0
DWIDTH 33 0
BBX 31 44 0 0
BITMAP
03F00000
03F00000
03F00000
03F00000
03F00000
03F00000
03F00000
03F00000
03F00000
03F00000
03F00000
03F00000
03F00000
03F00000
03F00000
03F00300
03F00F80
03F03F80
03F0FF80
03F3FE00
03F7F800
03FFE000
03FF8000
03FE0000
0FFC0000
3FF00000
7FF00000
FFF00000
FBF00000
73F00000
03F00000
03F00000
03F00000
03F00000
03F00000
03F00000
03F00000
03F00000
03F00000
03FFFFFE
03FFFFFE
03FFFFFE
03FFFFFE
03FFFFFE
ENDCHAR
STARTCHAR 0142
ENCODING 322
SWIDTH 255 0
DWIDTH 17 0
BBX 17 48 0 -1
BITMAP
03E000
03E000
03E000
03E000
03E000
03E000
03E000
03E000
03E000
03E000
03E000
03E000
03E000
03E000
03E000
03E000
03E600
03EF00
03FF80
03FF00
03FC00
0FF800
1FE000
7FE000
FFE000
7BE000
73E000
03E000
03E000
03E000
03E000
03E000
03E000
03E000
03E000
03E000
03E000
03E000
03E000
03E000
03E000
03E000
03E000
03FC00
03FC00
01FC00
01FC00
007E00
ENDCHAR
STARTCHAR 0143
ENCODING 323
SWIDTH 645 0
DWIDTH 43 0
BBX 31 58 6 0
BITMAP
00000400
00000E00
00001F00
00003F80
00007F00
0001FC00
0003F800
0007F000
000FC000
00078000
00030000
00000000
00000000
00000000
FC00003E
FE00003E
FE00003E
FF00003E
FF00003E
FF80003E
FF80003E
FFC0003E
FFE0003E
FBE0003E
F9F0003E
F9F0003E
F8F8003E
F8F8003E
F87C003E
F87E003E
F83E003E
F83F003E
F81F003E
F81F803E
F80F803E
F807C03E
F807E03E
F803E03E
F803F03E
F801F03E
F801F83E
F800F83E
F8007C3E
F8007C3E
F8003E3E
F8003F3E
F8001F3E
F8001FBE
F8000FBE
F80007FE
F80007DE
F80003FE
F80003FE
F80001FE
F80001FE
F80000FE
F800007E
F800007E
ENDCHAR
STARTCHAR 0144
ENCODING 324
SWIDTH 540 0
DWIDTH 36 0
BBX 26 51 5 1
BITMAP
00001800
00003C00
00007E00
00007F00
0000FC00
0001F800
0003F000
0007E000
000FC000
000F8000
001F0000
000E0000
00040000
00000000
00000000
00000000
00000000
00000000
0007F000
F81FFC00
F87FFE00
F8FFFF00
F9FFFF80
FFE03F80
FFC01FC0
FF000FC0
FE000FC0
FC0007C0
FC0007C0
FC0007C0
FC0007C0
FC0007C0
FC0007C0
FC0007C0
FC0007C0
FC0007C0
FC0007C0
FC0007C0
FC0007C0
FC0007C0
FC0007C0
FC0007C0
FC0007C0
FC0007C0
FC0007C0
FC0007C0
FC0007C0
FC0007C0
FC0007C0
FC0007C0
FC0007C0
ENDCHAR
STARTCHAR 0145
ENCODING 325
SWIDTH 645 0
DWIDTH 43 0
BBX 31 59 6 -15
BITMAP
FC00003E
FE00003E
FE00003E
FF00003E
FF00003E
FF80003E
FF80003E
FFC0003E
FFE0003E
FBE0003E
F9F0003E
F9F0003E
F8F8003E
F8F8003E
F87C003E
F87E003E
F83E003E
F83F003E
F81F003E
F81F803E
F80F803E
F807C03E
F807E03E
F803E03E
F803F03E
F801F03E
F801F83E
F800F83E
F8007C3E
F8007C3E
F8003E3E
F8003F3E
F8001F3E
F8001FBE
F8000FBE
F80007FE
F80007DE
F80003FE
F80003FE
F80001FE
F80001FE
F80000FE
F800007E
F800007E
00000000
00000000
00000000
00000000
00070000
0007E000
000FF000
0000F800
00007800
00007800
0000F800
0001F000
003FE000
003FC000
003C0000
ENDCHAR
STARTCHAR 0146
ENCODING 326
SWIDTH 540 0
DWIDTH 36 0
BBX 26 48 5 -15
BITMAP
0007F000
F81FFC00
F87FFE00
F8FFFF00
F9FFFF80
FFE03F80
FFC01FC0
FF000FC0
FE000FC0
FC0007C0
FC0007C0
FC0007C0
FC0007C0
FC0007C0
FC0007C0
FC0007C0
FC0007C0
FC0007C0
FC0007C0
FC0007C0
FC0007C0
FC0007C0
FC0007C0
FC0007C0
FC0007C0
FC0007C0
FC0007C0
FC0007C0
FC0007C0
FC0007C0
FC0007C0
FC0007C0
FC0007C0
00000000
00000000
00000000
00000000
001C0000
003F8000
003FC000
0007E000
0003E000
0001E000
0003E000
0007C000
01FF8000
01FF0000
00F00000
ENDCHAR
STARTCHAR 0147
ENCODING 327
SWIDTH 645 0
DWIDTH 43 0
BBX 31 56 6 0
BITMAP
01800300
03C007C0
01F00F80
00F81F00
007C3E00
003EFC00
001FF800
000FF000
000FE000
00000000
00000000
00000000
FC00003E
FE00003E
FE00003E
FF00003E
FF00003E
FF80003E
FF80003E
FFC0003E
FFE0003E
FBE0003E
F9F0003E
F9F0003E
F8F8003E
F8F8003E
F87C003E
F87E003E
F83E003E
F83F003E
F81F003E
F81F803E
F80F803E
F807C03E
F807E03E
F803E03E
F803F03E
F801F03E
F801F83E
F800F83E
F8007C3E
F8007C3E
F8003E3E
F8003F3E
F8001F3E
F8001FBE
F8000FBE
F80007FE
F80007DE
F80003FE
F80003FE
F80001FE
F80001FE
F80000FE
F800007E
F800007E
ENDCHAR
STARTCHAR 0148
ENCODING 328
SWIDTH 540 0
DWIDTH 36 0
BBX 26 50 5 0
BITMAP
02000200
07000700
0F800F00
07C01F00
03E03E00
01F07C00
00F8F800
00FDF800
007FF000
003FE000
001FC000
001FC000
00000000
00000000
00000000
00000000
00000000
0007F000
F81FFC00
F87FFE00
F8FFFF00
F9FFFF80
FFE03F80
FFC01FC0
FF000FC0
FE000FC0
FC0007C0
FC0007C0
FC0007C0
FC0007C0
FC0007C0
FC0007C0
FC0007C0
FC0007C0
FC0007C0
FC0007C0
FC0007C0
FC0007C0
FC0007C0
FC0007C0
FC0007C0
FC0007C0
FC0007C0
FC0007C0
FC0007C0
FC0007C0
FC0007C0
FC0007C0
FC0007C0
FC0007C0
ENDCHAR
STARTCHAR 0149
ENCODING 329
SWIDTH 780 0
DWIDTH 52 0
BBX 42 46 4 0
BITMAP
1E0000000000
3F0000000000
7F0000000000
7F8000000000
7F8000000000
3F8000000000
1F8000000000
078000000000
078000000000
070000000000
070000000000
0F0000000000
1E0000000000
3E000007F000
7C00F81FFC00
F800F87FFE00
6000F8FFFF00
0000F9FFFF80
0000FFE03F80
0000FF801F80
0000FF000FC0
0000FE000FC0
0000FC000FC0
0000FC0007C0
0000FC0007C0
0000FC0007C0
0000FC0007C0
0000FC0007C0
0000FC0007C0
0000FC0007C0
0000FC0007C0
0000FC0007C0
0000FC0007C0
0000FC0007C0
0000FC0007C0
0000FC0007C0
0000FC0007C0
0000FC0007C0
0000FC0007C0
0000FC0007C0
0000FC0007C0
0000FC0007C0
0000FC0007C0
0000FC0007C0
0000FC0007C0
0000FC0007C0
ENDCHAR
STARTCHAR 014A
ENCODING 330
SWIDTH 630 0
DWIDTH 42 0
BBX 33 46 6 -1
BITMAP
0003FC0000
F80FFF0000
F83FFFC000
F8FFFFE000
F9FFFFF000
FBF80FF800
FFE003FC00
FF8001FC00
FF0000FE00
FE00007E00
FC00007E00
FC00003F00
FC00003F00
FC00003F00
FC00003F00
FC00001F00
FC00001F80
FC00001F80
FC00001F80
FC00001F80
FC00001F80
FC00001F80
FC00001F80
FC00001F80
FC00001F80
FC00001F80
FC00001F80
FC00001F80
FC00001F80
FC00001F80
FC00001F00
FC00001F00
FC00003F00
FC00003F00
FC00003F00
FC00003F00
FC00007E00
FC00007E00
FC0000FE00
FC0000FC00
FC0063FC00
FC007FF800
FC007FF000
FC00FFE000
FC00FFC000
00007F0000
ENDCHAR
STARTCHAR 014B
ENCODING 331
SWIDTH 540 0
DWIDTH 36 0
BBX 26 45 5 -12
BITMAP
0007F000
F81FFC00
F87FFE00
F8FFFF00
F9FFFF80
FFE03F80
FFC01FC0
FF000FC0
FE000FC0
FC0007C0
FC0007C0
FC0007C0
FC0007C0
FC0007C0
FC0007C0
FC0007C0
FC0007C0
FC0007C0
FC0007C0
FC0007C0
FC0007C0
FC0007C0
FC0007C0
FC0007C0
FC0007C0
FC0007C0
FC0007C0
FC0007C0
FC0007C0
FC0007C0
FC0007C0
FC0007C0
FC0007C0
000007C0
000007C0
000007C0
000007C0
000007C0
00000FC0
00000FC0
0003FF80
0007FF80
0007FF00
0007FE00
0003F800
ENDCHAR
STARTCHAR 014C
ENCODING 332
SWIDTH 660 0
DWIDTH 44 0
BBX 38 54 3 -1
BITMAP
003FFFF000
003FFFF000
003FFFF000
003FFFF000
0000000000
0000000000
0000000000
0000000000
0001FF0000
000FFFE000
003FFFF800
00FFFFFC00
01FFFFFE00
03FE01FF00
07F8007F80
07F0003FC0
0FE0000FC0
1FC0000FE0
1F800007E0
1F800003F0
3F000003F0
3F000001F8
3E000001F8
7E000001F8
7E000001F8
7E000000FC
7E000000FC
7C000000FC
7C000000FC
FC000000FC
FC000000FC
FC000000FC
7C000000FC
7C000000FC
7C000000FC
7E000000FC
7E000000F8
7E000001F8
7E000001F8
3F000001F8
3F000003F0
3F000003F0
1F800003F0
1F800007E0
1FC0000FE0
0FE0001FC0
07F0003FC0
07F8007F80
03FE01FF00
01FFFFFE00
00FFFFFC00
003FFFF000
000FFFC000
0001FE0000
ENDCHAR
STARTCHAR 014D
ENCODING 333
SWIDTH 540 0
DWIDTH 36 0
BBX 30 45 3 -1
BITMAP
03FFFF00
03FFFF00
03FFFF00
03FFFF00
00000000
00000000
00000000
00000000
00000000
00000000
00000000
001FE000
007FFC00
01FFFE00
03FFFF80
07FFFFC0
0FE01FC0
1FC00FE0
3F8007F0
3F0003F0
7E0001F8
7E0001F8
7E0000F8
7C0000FC
FC0000FC
FC0000FC
FC0000FC
FC0000FC
FC0000FC
FC0000FC
FC0000FC
FC0000FC
7C0000FC
7E0000F8
7E0001F8
7E0001F8
3F0003F0
3F8003F0
1FC007E0
0FE01FC0
07FFFFC0
03FFFF80
01FFFE00
007FFC00
001FE000
ENDCHAR
STARTCHAR 014E
ENCODING 334
SWIDTH 660 0
DWIDTH 44 0
BBX 38 58 3 -1
BITMAP
0008000000
0078007800
0038007800
003C00F000
003E01F000
001F83E000
000FFFE000
0007FFC000
0003FF0000
0000300000
0000000000
0000000000
0001FF0000
000FFFE000
003FFFF800
00FFFFFC00
01FFFFFE00
03FE01FF00
07F8007F80
07F0003FC0
0FE0000FC0
1FC0000FE0
1F800007E0
1F800003F0
3F000003F0
3F000001F8
3E000001F8
7E000001F8
7E000001F8
7E000000FC
7E000000FC
7C000000FC
7C000000FC
FC000000FC
FC000000FC
FC000000FC
7C000000FC
7C000000FC
7C000000FC
7E000000FC
7E000000F8
7E000001F8
7E000001F8
3F000001F8
3F000003F0
3F000003F0
1F800003F0
1F800007E0
1FC0000FE0
0FE0001FC0
07F0003FC0
07F8007F80
03FE01FF00
01FFFFFE00
00FFFFFC00
003FFFF000
000FFFC000
0001FE0000
ENDCHAR
STARTCHAR 014F
ENCODING 335
SWIDTH 540 0
DWIDTH 36 0
BBX 30 49 3 0
BITMAP
07000380
07800380
07800780
07C00780
03E00F00
03F03F00
01FFFE00
00FFFC00
007FF800
001FE000
00000000
00000000
00000000
00000000
00000000
001FE000
007FFC00
01FFFE00
03FFFF80
07FFFFC0
0FE01FC0
1FC00FE0
3F8007F0
3F0003F0
7E0001F8
7E0001F8
7E0000F8
7C0000FC
FC0000FC
FC0000FC
FC0000FC
FC0000FC
FC0000FC
FC0000FC
FC0000FC
FC0000FC
7C0000FC
7E0000F8
7E0001F8
7E0001F8
3F0003F0
3F8003F0
1FC007E0
0FE01FC0
07FFFFC0
03FFFF80
01FFFE00
007FFC00
001FE000
ENDCHAR
STARTCHAR 0150
ENCODING 336
SWIDTH 660 0
DWIDTH 44 0
BBX 38 60 3 -1
BITMAP
0000200400
0000380F00
00007C0F80
0000F81F00
0000F83E00
0001F03C00
0001E07C00
0003C07800
0007C0F000
000781E000
000701E000
0000004000
0000000000
0000000000
0001FF0000
000FFFE000
003FFFF800
00FFFFFC00
01FFFFFE00
03FE01FF00
07F8007F80
07F0003FC0
0FE0000FC0
1FC0000FE0
1F800007E0
1F800003F0
3F000003F0
3F000001F8
3E000001F8
7E000001F8
7E000001F8
7E000000FC
7E000000FC
7C000000FC
7C000000FC
FC000000FC
FC000000FC
FC000000FC
7C000000FC
7C000000FC
7C000000FC
7E000000FC
7E000000F8
7E000001F8
7E000001F8
3F000001F8
3F000003F0
3F000003F0
1F800003F0
1F800007E0
1FC0000FE0
0FE0001FC0
07F0003FC0
07F8007F80
03FE01FF00
01FFFFFE00
00FFFFFC00
003FFFF000
000FFFC000
0001FE0000
ENDCHAR
STARTCHAR 0151
ENCODING 337
SWIDTH 540 0
DWIDTH 36 0
BBX 30 52 3 -1
BITMAP
00000080
000380E0
0007C1F0
0007C1F0
000F83E0
000F03C0
001F07C0
001E0780
003E0F80
003C0F00
00781E00
00781E00
00300C00
00000000
00000000
00000000
00000000
00000000
001FE000
007FFC00
01FFFE00
03FFFF80
07FFFFC0
0FE01FC0
1FC00FE0
3F8007F0
3F0003F0
7E0001F8
7E0001F8
7E0000F8
7C0000FC
FC0000FC
FC0000FC
FC0000FC
FC0000FC
FC0000FC
FC0000FC
FC0000FC
FC0000FC
7C0000FC
7E0000F8
7E0001F8
7E0001F8
3F0003F0
3F8003F0
1FC007E0
0FE01FC0
07FFFFC0
03FFFF80
01FFFE00
007FFC00
001FE000
ENDCHAR
STARTCHAR 0152
ENCODING 338
SWIDTH 840 0
DWIDTH 56 0
BBX 50 44 3 0
BITMAP
0000FFFFFFFFC0
0007FFFFFFFFC0
003FFFFFFFFFC0
007FFFFFFFFFC0
01FFFFFFFFFFC0
03FF007E000000
07F8007E000000
07F0007E000000
0FE0007E000000
1FC0007E000000
1F80007E000000
3F00007E000000
3F00007E000000
3F00007E000000
7E00007E000000
7E00007E000000
7E00007E000000
7E00007E000000
7C00007FFFFC00
7C00007FFFFC00
FC00007FFFFC00
FC00007FFFFC00
FC00007FFFFC00
7C00007E000000
7C00007E000000
7C00007E000000
7E00007E000000
7E00007E000000
7E00007E000000
7E00007E000000
3F00007E000000
3F00007E000000
3F80007E000000
1F80007E000000
1FC0007E000000
0FE0007E000000
07F0007E000000
07FC007E000000
03FF007E000000
00FFFFFFFFFFC0
007FFFFFFFFFC0
003FFFFFFFFFC0
0007FFFFFFFFC0
0000FFFFFFFFC0
ENDCHAR
STARTCHAR 0153
ENCODING 339
SWIDTH 840 0
DWIDTH 56 0
BBX 50 34 3 -1
BITMAP
001FC0001FC000
007FF800FFF000
01FFFC01FFFC00
03FFFE03FFFE00
07FFFF07F1FE00
0FE03F8FC03F00
1FC00FDF801F80
3F8007DF000F80
3F0003FE000F80
7E0003FC0007C0
7E0001FC0007C0
7E0001FC0007C0
7C0001F80007C0
FC0001F80003C0
FC0000F80003C0
FC0000FFFFFFC0
FC0000FFFFFFC0
FC0000FFFFFFC0
FC0000FFFFFFC0
FC0000F8000000
FC0000F8000000
FC0001F8000000
7C0001FC000000
7E0001FC000000
7E0003FE000000
3F0003FE000000
3F8007DF000000
1FC00FDF800200
1FE01F8FE00F00
0FFFFF07FEFF80
07FFFE03FFFF80
01FFFC01FFFF00
00FFF8007FFC00
001FC0001FE000
ENDCHAR
STARTCHAR 0154
ENCODING 340
SWIDTH 570 0
DWIDTH 38 0
BBX 30 58 6 0
BITMAP
00003000
00007000
0000F800
0001FC00
0003F800
0007F000
000FC000
001F8000
003F0000
003C0000
00180000
00000000
00000000
00000000
FFFFE000
FFFFFE00
FFFFFF00
FFFFFFC0
FC07FFE0
FC001FE0
FC0007F0
FC0003F0
FC0001F8
FC0001F8
FC0001F8
FC0001F8
FC0001F8
FC0001F8
FC0001F8
FC0001F8
FC0001F0
FC0003F0
FC0007F0
FC000FE0
FC007FC0
FFFFFFC0
FFFFFF00
FFFFFE00
FFFFF800
FFFFE000
FC03F000
FC01F800
FC01F800
FC00FC00
FC00FC00
FC007E00
FC007F00
FC003F00
FC001F80
FC001F80
FC000FC0
FC000FC0
FC0007E0
FC0007F0
FC0003F0
FC0001F8
FC0001F8
FC0000FC
ENDCHAR
STARTCHAR 0155
ENCODING 341
SWIDTH 345 0
DWIDTH 23 0
BBX 19 51 5 1
BITMAP
000300
000780
0007E0
000FE0
001FC0
003F80
007E00
00FC00
01F800
01F000
03E000
01C000
008000
000000
000000
000000
000000
000000
000FC0
F83FC0
F87FC0
F8FFC0
F9FF80
FBF000
FBC000
FF8000
FF0000
FE0000
FE0000
FC0000
FC0000
FC0000
FC0000
FC0000
FC0000
FC0000
FC0000
FC0000
FC0000
FC0000
FC0000
FC0000
FC0000
FC0000
FC0000
FC0000
FC0000
FC0000
FC0000
FC0000
FC0000
ENDCHAR
STARTCHAR 0156
ENCODING 342
SWIDTH 570 0
DWIDTH 38 0
BBX 30 59 6 -15
BITMAP
FFFFE000
FFFFFE00
FFFFFF00
FFFFFFC0
FC07FFE0
FC001FE0
FC0007F0
FC0003F0
FC0001F8
FC0001F8
FC0001F8
FC0001F8
FC0001F8
FC0001F8
FC0001F8
FC0001F8
FC0001F0
FC0003F0
FC0007F0
FC000FE0
FC007FC0
FFFFFFC0
FFFFFF00
FFFFFE00
FFFFF800
FFFFE000
FC03F000
FC01F800
FC01F800
FC00FC00
FC00FC00
FC007E00
FC007F00
FC003F00
FC001F80
FC001F80
FC000FC0
FC000FC0
FC0007E0
FC0007F0
FC0003F0
FC0001F8
FC0001F8
FC0000FC
00000000
00000000
00000000
00000000
001E0000
001F8000
003FE000
0003E000
0001E000
0001E000
0001E000
0007E000
00FFC000
00FF0000
00F80000
ENDCHAR
STARTCHAR 0157
ENCODING 343
SWIDTH 345 0
DWIDTH 23 0
BBX 21 48 2 -15
BITMAP
0001F8
1F07F8
1F0FF8
1F1FF8
1F3FF0
1F7E00
1F7800
1FF000
1FE000
1FC000
1FC000
1F8000
1F8000
1F8000
1F8000
1F8000
1F8000
1F8000
1F8000
1F8000
1F8000
1F8000
1F8000
1F8000
1F8000
1F8000
1F8000
1F8000
1F8000
1F8000
1F8000
1F8000
1F8000
000000
000000
000000
000000
1E0000
1F8000
3FE000
03E000
01E000
01E000
01E000
07E000
FFC000
FF0000
F80000
ENDCHAR
STARTCHAR 0158
ENCODING 344
SWIDTH 570 0
DWIDTH 38 0
BBX 30 56 6 0
BITMAP
06000C00
1F001E00
0F807C00
07C0F800
03E1F000
01FBE000
00FFC000
007F8000
003F8000
00000000
00000000
00000000
FFFFE000
FFFFFE00
FFFFFF00
FFFFFFC0
FC07FFE0
FC001FE0
FC0007F0
FC0003F0
FC0001F8
FC0001F8
FC0001F8
FC0001F8
FC0001F8
FC0001F8
FC0001F8
FC0001F8
FC0001F0
FC0003F0
FC0007F0
FC000FE0
FC007FC0
FFFFFFC0
FFFFFF00
FFFFFE00
FFFFF800
FFFFE000
FC03F000
FC01F800
FC01F800
FC00FC00
FC00FC00
FC007E00
FC007F00
FC003F00
FC001F80
FC001F80
FC000FC0
FC000FC0
FC0007E0
FC0007F0
FC0003F0
FC0001F8
FC0001F8
FC0000FC
ENDCHAR
STARTCHAR 0159
ENCODING 345
SWIDTH 345 0
DWIDTH 23 0
BBX 19 50 5 0
BITMAP
400040
E000E0
F001E0
F803E0
7C07C0
3E0F80
1F1F00
1FBF00
0FFE00
07FC00
03F800
03F800
000000
000000
000000
000000
000000
000FC0
F83FC0
F87FC0
F8FFC0
F9FF80
FBF000
FBC000
FF8000
FF0000
FE0000
FE0000
FC0000
FC0000
FC0000
FC0000
FC0000
FC0000
FC0000
FC0000
FC0000
FC0000
FC0000
FC0000
FC0000
FC0000
FC0000
FC0000
FC0000
FC0000
FC0000
FC0000
FC0000
FC0000
ENDCHAR
STARTCHAR 015A
ENCODING 346
SWIDTH 540 0
DWIDTH 36 0
BBX 30 59 3 -1
BITMAP
00000400
00000E00
00003F00
00007F00
0000FE00
0001FC00
0003F800
0007E000
000FC000
00078000
00020000
00000000
00000000
000FF000
007FFE00
01FFFF80
03FFFFC0
07FFFFF0
0FF00FF8
1FC003F0
1F8000E0
3F000040
3F000000
3F000000
3F000000
3F000000
3F000000
3F000000
1F800000
1FC00000
1FF00000
0FFC0000
07FF0000
03FFE000
01FFF800
007FFE00
001FFF80
0003FFC0
0000FFE0
00003FF0
00000FF8
000003F8
000001F8
000000FC
000000FC
000000FC
000000FC
000000FC
000000FC
300000FC
780001F8
7E0001F8
FF0007F0
7FE01FF0
3FFFFFE0
1FFFFFC0
07FFFF00
01FFFE00
003FF000
ENDCHAR
STARTCHAR 015B
ENCODING 347
SWIDTH 420 0
DWIDTH 28 0
BBX 24 53 2 -1
BITMAP
000020
000070
0000F8
0001FC
0001F8
0003F0
0007E0
000FC0
001F80
003F00
003E00
007C00
003800
001000
000000
000000
000000
000000
000000
007F00
03FFE0
07FFF8
0FFFFC
1FE1FC
3F0078
3E0018
3E0000
7E0000
7E0000
3E0000
3F0000
3F8000
1FE000
0FFC00
07FF80
03FFE0
00FFF0
001FFC
0007FC
0000FE
00007E
00003F
00003F
00001F
00003F
20003F
78003E
7E007E
FFC3FC
7FFFF8
1FFFF0
07FFE0
00FF00
ENDCHAR
STARTCHAR 015C
ENCODING 348
SWIDTH 540 0
DWIDTH 36 0
BBX 30 57 3 -1
BITMAP
000FE000
001FF000
003FF800
007EFC00
00FC3E00
01F01F00
01E00F80
03C00780
01800300
00000000
00000000
000FF000
007FFE00
01FFFF80
03FFFFC0
07FFFFF0
0FF00FF8
1FC003F0
1F8000E0
3F000040
3F000000
3F000000
3F000000
3F000000
3F000000
3F000000
1F800000
1FC00000
1FF00000
0FFC0000
07FF0000
03FFE000
01FFF800
007FFE00
001FFF80
0003FFC0
0000FFE0
00003FF0
00000FF8
000003F8
000001F8
000000FC
000000FC
000000FC
000000FC
000000FC
000000FC
300000FC
780001F8
7E0001F8
FF0007F0
7FE01FF0
3FFFFFE0
1FFFFFC0
07FFFF00
01FFFE00
003FF000
ENDCHAR
STARTCHAR 015D
ENCODING 349
SWIDTH 420 0
DWIDTH 28 0
BBX 24 50 2 -1
BITMAP
003F00
007F80
00FF80
01FFC0
03F7E0
07E3F0
07C1F8
0F807C
1F003C
1E001E
0C000C
000000
000000
000000
000000
000000
007F00
03FFE0
07FFF8
0FFFFC
1FE1FC
3F0078
3E0018
3E0000
7E0000
7E0000
3E0000
3F0000
3F8000
1FE000
0FFC00
07FF80
03FFE0
00FFF0
001FFC
0007FC
0000FE
00007E
00003F
00003F
00001F
00003F
20003F
78003E
7E007E
FFC3FC
7FFFF8
1FFFF0
07FFE0
00FF00
ENDCHAR
STARTCHAR 015E
ENCODING 350
SWIDTH 540 0
DWIDTH 36 0
BBX 30 60 3 -15
BITMAP
000FF000
007FFE00
01FFFF80
03FFFFC0
07FFFFF0
0FF00FF8
1FC003F0
1F8000E0
3F000040
3F000000
3F000000
3F000000
3F000000
3F000000
3F000000
1F800000
1FC00000
1FF00000
0FFC0000
07FF0000
03FFE000
01FFF800
007FFE00
001FFF80
0003FFC0
0000FFE0
00003FF0
00000FF8
000003F8
000001F8
000001FC
000000FC
000000FC
000000FC
000000FC
000000FC
300000FC
380001F8
7E0001F8
FF0003F0
7FE00FF0
3FFFFFE0
1FFFFFC0
07FFFF80
01FFFE00
003FF000
00078000
00070000
000F0000
000F0000
001FC000
0007F000
0001F000
0000F000
0000F000
0000F000
0003F000
007FE000
007F8000
007C0000
ENDCHAR
STARTCHAR 015F
ENCODING 351
SWIDTH 420 0
DWIDTH 28 0
BBX 24 48 2 -15
BITMAP
007F00
03FFE0
07FFF8
0FFFFC
1FE1FC
3F0078
3E0018
3E0000
7E0000
7E0000
3E0000
3F0000
3F8000
1FE000
0FFC00
07FF80
03FFE0
00FFF0
001FFC
0007FC
0000FE
00007E
00003F
00003F
00001F
00003F
20003F
78003E
7E007E
FFC3FC
7FFFF8
1FFFF0
07FFE0
00FF00
001C00
003C00
003C00
007C00
007F00
001F80
0007C0
0003C0
0003C0
0007C0
000F80
03FF00
01FE00
01E000
ENDCHAR
STARTCHAR 0160
ENCODING 352
SWIDTH 540 0
DWIDTH 36 0
BBX 30 58 3 -1
BITMAP
01800300
03C00780
01E00F80
01F01F00
00FC3E00
007EFC00
003FF800
001FF000
000FE000
00000000
00000000
00000000
000FF000
007FFE00
01FFFF80
03FFFFC0
07FFFFF0
0FF00FF8
1FC003F0
1F8000E0
3F000040
3F000000
3F000000
3F000000
3F000000
3F000000
3F000000
1F800000
1FC00000
1FF00000
0FFC0000
07FF0000
03FFE000
01FFF800
007FFE00
001FFF80
0003FFC0
0000FFE0
00003FF0
00000FF8
000003F8
000001F8
000000FC
000000FC
000000FC
000000FC
000000FC
000000FC
300000FC
780001F8
7E0001F8
FF0007F0
7FE01FF0
3FFFFFE0
1FFFFFC0
07FFFF00
01FFFE00
003FF000
ENDCHAR
STARTCHAR 0161
ENCODING 353
SWIDTH 420 0
DWIDTH 28 0
BBX 24 51 2 -1
BITMAP
080008
1C001C
1E003E
1F007C
0F80F8
07C1F0
03E3F0
01F7E0
01FFC0
00FF80
007F00
003F00
000000
000000
000000
000000
000000
007F00
03FFE0
07FFF8
0FFFFC
1FE1FC
3F0078
3E0018
3E0000
7E0000
7E0000
3E0000
3F0000
3F8000
1FE000
0FFC00
07FF80
03FFE0
00FFF0
001FFC
0007FC
0000FE
00007E
00003F
00003F
00001F
00003F
20003F
78003E
7E007E
FFC3FC
7FFFF8
1FFFF0
07FFE0
00FF00
ENDCHAR
STARTCHAR 0162
ENCODING 354
SWIDTH 540 0
DWIDTH 36 0
BBX 32 59 2 -15
BITMAP
FFFFFFFF
FFFFFFFF
FFFFFFFF
FFFFFFFF
FFFFFFFF
0007E000
0007E000
0007E000
0007E000
0007E000
0007E000
0007E000
0007E000
0007E000
0007E000
0007E000
0007E000
0007E000
0007E000
0007E000
0007E000
0007E000
0007E000
0007E000
0007E000
0007E000
0007E000
0007E000
0007E000
0007E000
0007E000
0007E000
0007E000
0007E000
0007E000
0007E000
0007E000
0007E000
0007E000
0007E000
0007E000
0007E000
0007E000
0007E000
0003C000
00038000
00078000
00070000
000F8000
000FE000
0003F000
0000F800
00007800
00007800
0000F800
0003F000
007FE000
003FC000
003C0000
ENDCHAR
STARTCHAR 0163
ENCODING 355
SWIDTH 345 0
DWIDTH 23 0
BBX 20 56 2 -15
BITMAP
07C000
07C000
07C000
07C000
07C000
07C000
07C000
07C000
07C000
FFFFE0
FFFFE0
FFFFE0
FFFFE0
0FC000
0FC000
0FC000
0FC000
0FC000
0FC000
0FC000
0FC000
0FC000
0FC000
0FC000
0FC000
0FC000
0FC000
0FC000
0FC000
0FC000
0FC000
0FC000
0FC000
0FC000
07C000
07E000
07F000
07FFE0
03FFE0
01FFE0
00FFF0
007F80
001C00
003C00
003800
007800
007F00
003F80
000780
0007C0
0007C0
000780
001F80
03FF00
03FC00
01E000
ENDCHAR
STARTCHAR 0164
ENCODING 356
SWIDTH 540 0
DWIDTH 36 0
BBX 32 56 2 0
BITMAP
01800300
03C007C0
01F00F80
00F81F00
007C3E00
003EFC00
001FF800
000FF000
000FE000
00000000
00000000
00000000
FFFFFFFF
FFFFFFFF
FFFFFFFF
FFFFFFFF
FFFFFFFF
0007E000
0007E000
0007E000
0007E000
0007E000
0007E000
0007E000
0007E000
0007E000
0007E000
0007E000
0007E000
0007E000
0007E000
0007E000
0007E000
0007E000
0007E000
0007E000
0007E000
0007E000
0007E000
0007E000
0007E000
0007E000
0007E000
0007E000
0007E000
0007E000
0007E000
0007E000
0007E000
0007E000
0007E000
0007E000
0007E000
0007E000
0007E000
0007E000
ENDCHAR
STARTCHAR 0165
ENCODING 357
SWIDTH 345 0
DWIDTH 23 0
BBX 20 51 2 -1
BITMAP
0001E0
0001E0
0001E0
0001E0
0001E0
0001C0
0001C0
0001C0
0001C0
07C1C0
07C1C0
07C1C0
07C1C0
07C1C0
07C000
07C000
07C000
07C000
FFFFE0
FFFFE0
FFFFE0
FFFFE0
0FC000
0FC000
0FC000
0FC000
0FC000
0FC000
0FC000
0FC000
0FC000
0FC000
0FC000
0FC000
0FC000
0FC000
0FC000
0FC000
0FC000
0FC000
0FC000
0FC000
07C000
07C000
07E000
07F000
03FFE0
03FFE0
01FFE0
00FFF0
003F80
ENDCHAR
STARTCHAR 0166
ENCODING 358
SWIDTH 540 0
DWIDTH 36 0
BBX 32 44 2 0
BITMAP
FFFFFFFF
FFFFFFFF
FFFFFFFF
FFFFFFFF
FFFFFFFF
0007E000
0007E000
0007E000
0007E000
0007E000
0007E000
0007E000
0007E000
0007E000
0007E000
0007E000
0007E000
0007E000
0007E000
0007E000
07FFFFE0
07FFFFE0
07FFFFE0
0007E000
0007E000
0007E000
0007E000
0007E000
0007E000
0007E000
0007E000
0007E000
0007E000
0007E000
0007E000
0007E000
0007E000
0007E000
0007E000
0007E000
0007E000
0007E000
0007E000
0007E000
ENDCHAR
STARTCHAR 0167
ENCODING 359
SWIDTH 345 0
DWIDTH 23 0
BBX 20 42 2 -1
BITMAP
07C000
07C000
07C000
07C000
07C000
07C000
07C000
07C000
07C000
FFFFE0
FFFFE0
FFFFE0
FFFFE0
0FC000
0FC000
0FC000
0FC000
0FC000
0FC000
0FC000
0FC000
0FC000
0FC000
FFFFE0
FFFFE0
FFFFE0
0FC000
0FC000
0FC000
0FC000
0FC000
0FC000
0FC000
07C000
07C000
07E000
07F000
03FFE0
03FFE0
01FFE0
00FFF0
003F80
ENDCHAR
STARTCHAR 0168
ENCODING 360
SWIDTH 645 0
DWIDTH 43 0
BBX 31 57 6 -1
BITMAP
00F800E0
03FE01E0
03FF01E0
07FF81E0
0F8FE3E0
0F03FFC0
0F01FFC0
0F00FF80
00003E00
00000000
00000000
00000000
F800003E
F800003E
F800003E
F800003E
F800003E
F800003E
F800003E
F800003E
F800003E
F800003E
F800003E
F800003E
F800003E
F800003E
F800003E
F800003E
F800003E
F800003E
F800003E
F800003E
F800003E
F800003E
F800003E
F800003E
F800003E
F800003E
F800003E
F800003E
F800003E
FC00003E
FC00003E
FC00007E
FC00007E
7C00007C
7E00007C
7E0000FC
3F0001F8
3F8001F8
1FC007F0
1FF01FF0
0FFFFFE0
07FFFFC0
03FFFF80
00FFFE00
001FF000
ENDCHAR
STARTCHAR 0169
ENCODING 361
SWIDTH 540 0
DWIDTH 36 0
BBX 26 49 5 -1
BITMAP
03E00600
0FF80780
1FFC0780
1FFC0F00
3E3E0F00
3C1F1F00
3C0FFE00
3C07FE00
3803FC00
0000F000
00000000
00000000
00000000
00000000
00000000
00000000
FC000FC0
FC000FC0
FC000FC0
FC000FC0
FC000FC0
FC000FC0
FC000FC0
FC000FC0
FC000FC0
FC000FC0
FC000FC0
FC000FC0
FC000FC0
FC000FC0
FC000FC0
FC000FC0
FC000FC0
FC000FC0
FC000FC0
FC000FC0
FC000FC0
FC000FC0
FC000FC0
FC000FC0
FC001FC0
7E003FC0
7E007FC0
7F01F7C0
3FFFE7C0
3FFFC7C0
1FFF87C0
0FFF07C0
03F80000
ENDCHAR
STARTCHAR 016A
ENCODING 362
SWIDTH 645 0
DWIDTH 43 0
BBX 31 54 6 -1
BITMAP
01FFFF00
01FFFF00
01FFFF00
01FFFF00
00000000
00000000
00000000
00000000
00000000
F800003E
F800003E
F800003E
F800003E
F800003E
F800003E
F800003E
F800003E
F800003E
F800003E
F800003E
F800003E
F800003E
F800003E
F800003E
F800003E
F800003E
F800003E
F800003E
F800003E
F800003E
F800003E
F800003E
F800003E
F800003E
F800003E
F800003E
F800003E
F800003E
FC00003E
FC00003E
FC00007E
FC00007E
7C00007C
7E00007C
7E0000FC
3F0001F8
3F8001F8
1FC007F0
1FF01FF0
0FFFFFE0
07FFFFC0
03FFFF80
00FFFE00
001FF000
ENDCHAR
STARTCHAR 016B
ENCODING 363
SWIDTH 540 0
DWIDTH 36 0
BBX 26 45 5 -1
BITMAP
0FFFFC00
0FFFFC00
0FFFFC00
0FFFFC00
00000000
00000000
00000000
00000000
00000000
00000000
00000000
00000000
FC000FC0
FC000FC0
FC000FC0
FC000FC0
FC000FC0
FC000FC0
FC000FC0
FC000FC0
FC000FC0
FC000FC0
FC000FC0
FC000FC0
FC000FC0
FC000FC0
FC000FC0
FC000FC0
FC000FC0
FC000FC0
FC000FC0
FC000FC0
FC000FC0
FC000FC0
FC000FC0
FC000FC0
FC001FC0
7E003FC0
7E007FC0
7F01F7C0
3FFFE7C0
3FFFC7C0
1FFF87C0
0FFF07C0
03F80000
ENDCHAR
STARTCHAR 016C
ENCODING 364
SWIDTH 645 0
DWIDTH 43 0
BBX 31 58 6 -1
BITMAP
00000200
03800380
03C00780
03C00780
01E00F00
01F83F00
00FFFE00
007FFC00
001FF000
00010000
00000000
00000000
00000000
F800003E
F800003E
F800003E
F800003E
F800003E
F800003E
F800003E
F800003E
F800003E
F800003E
F800003E
F800003E
F800003E
F800003E
F800003E
F800003E
F800003E
F800003E
F800003E
F800003E
F800003E
F800003E
F800003E
F800003E
F800003E
F800003E
F800003E
F800003E
F800003E
FC00003E
FC00003E
FC00007E
FC00007E
7C00007C
7E00007C
7E0000FC
3F0001F8
3F8001F8
1FC007F0
1FF01FF0
0FFFFFE0
07FFFFC0
03FFFF80
00FFFE00
001FF000
ENDCHAR
STARTCHAR 016D
ENCODING 365
SWIDTH 540 0
DWIDTH 36 0
BBX 26 49 5 0
BITMAP
1C000F00
1E000E00
1E001E00
1F001E00
0F803C00
0FC0FC00
07FFF800
03FFF000
01FFE000
003F8000
00000000
00000000
00000000
00000000
00000000
00000000
FC000FC0
FC000FC0
FC000FC0
FC000FC0
FC000FC0
FC000FC0
FC000FC0
FC000FC0
FC000FC0
FC000FC0
FC000FC0
FC000FC0
FC000FC0
FC000FC0
FC000FC0
FC000FC0
FC000FC0
FC000FC0
FC000FC0
FC000FC0
FC000FC0
FC000FC0
FC000FC0
FC000FC0
FC001FC0
7E003FC0
7E007FC0
7F01F7C0
3FFFE7C0
3FFFC7C0
1FFF87C0
0FFF07C0
03F80000
ENDCHAR
STARTCHAR 016E
ENCODING 366
SWIDTH 645 0
DWIDTH 43 0
BBX 31 60 6 -1
BITMAP
0007C000
001FF000
003EF800
00383800
00701C00
00701C00
00701C00
00701C00
00383800
003EF800
001FF000
0007C000
00000000
00000000
00000000
F800003E
F800003E
F800003E
F800003E
F800003E
F800003E
F800003E
F800003E
F800003E
F800003E
F800003E
F800003E
F800003E
F800003E
F800003E
F800003E
F800003E
F800003E
F800003E
F800003E
F800003E
F800003E
F800003E
F800003E
F800003E
F800003E
F800003E
F800003E
F800003E
FC00003E
FC00003E
FC00007E
FC00007E
7C00007C
7E00007C
7E0000FC
3F0001F8
3F8001F8
1FC007F0
1FF01FF0
0FFFFFE0
07FFFFC0
03FFFF80
00FFFE00
001FF000
ENDCHAR
STARTCHAR 016F
ENCODING 367
SWIDTH 540 0
DWIDTH 36 0
BBX 26 50 5 -1
BITMAP
007F8000
00FFE000
01E1F000
03C0F000
03C07000
03807000
03807000
03C07000
03C0F000
01E1E000
00FFE000
007F8000
00000000
00000000
00000000
00000000
00000000
FC000FC0
FC000FC0
FC000FC0
FC000FC0
FC000FC0
FC000FC0
FC000FC0
FC000FC0
FC000FC0
FC000FC0
FC000FC0
FC000FC0
FC000FC0
FC000FC0
FC000FC0
FC000FC0
FC000FC0
FC000FC0
FC000FC0
FC000FC0
FC000FC0
FC000FC0
FC000FC0
FC000FC0
FC001FC0
7E003FC0
7E007FC0
7F01F7C0
3FFFE7C0
3FFFC7C0
1FFF87C0
0FFF07C0
03F80000
ENDCHAR
STARTCHAR 0170
ENCODING 368
SWIDTH 645 0
DWIDTH 43 0
BBX 31 60 6 -1
BITMAP
00000040
00038070
0003E0F8
0007C0F8
000F81F0
000F03E0
001F03C0
001E07C0
003C0780
00780F00
00781E00
00100600
00000000
00000000
00000000
F800003E
F800003E
F800003E
F800003E
F800003E
F800003E
F800003E
F800003E
F800003E
F800003E
F800003E
F800003E
F800003E
F800003E
F800003E
F800003E
F800003E
F800003E
F800003E
F800003E
F800003E
F800003E
F800003E
F800003E
F800003E
F800003E
F800003E
F800003E
F800003E
FC00003E
FC00003E
FC00007E
FC00007E
7C00007C
7E00007C
7E0000FC
3F0001F8
3F8001F8
1FC007F0
1FF01FF0
0FFFFFE0
07FFFFC0
03FFFF80
00FFFE00
001FF000
ENDCHAR
STARTCHAR 0171
ENCODING 369
SWIDTH 540 0
DWIDTH 36 0
BBX 26 51 5 -1
BITMAP
000C0300
000F03C0
001F07C0
001E0780
003E0F80
003C0F00
00781E00
00781E00
00F03C00
00F03C00
01E07800
01C07000
00000000
00000000
00000000
00000000
00000000
00000000
FC000FC0
FC000FC0
FC000FC0
FC000FC0
FC000FC0
FC000FC0
FC000FC0
FC000FC0
FC000FC0
FC000FC0
FC000FC0
FC000FC0
FC000FC0
FC000FC0
FC000FC0
FC000FC0
FC000FC0
FC000FC0
FC000FC0
FC000FC0
FC000FC0
FC000FC0
FC000FC0
FC000FC0
FC001FC0
7E003FC0
7E007FC0
7F01F7C0
3FFFE7C0
3FFFC7C0
1FFF87C0
0FFF07C0
03F80000
ENDCHAR
STARTCHAR 0172
ENCODING 370
SWIDTH 645 0
DWIDTH 43 0
BBX 31 59 6 -15
BITMAP
F800003E
F800003E
F800003E
F800003E
F800003E
F800003E
F800003E
F800003E
F800003E
F800003E
F800003E
F800003E
F800003E
F800003E
F800003E
F800003E
F800003E
F800003E
F800003E
F800003E
F800003E
F800003E
F800003E
F800003E
F800003E
F800003E
F800003E
F800003E
F800003E
FC00003E
FC00003E
FC00007E
FC00007E
7C00007C
7E00007C
7E0000FC
3F0001F8
3F8001F8
1FC003F0
1FF00FF0
0FFFFFE0
07FFFFC0
03FFFF00
00FFFE00
001FF800
0001E000
0003C000
00078000
000F0000
000F0000
001E0000
001E0000
001E0000
001F0000
001F8000
001FFC00
000FFC00
0007FC00
0003F000
ENDCHAR
STARTCHAR 0173
ENCODING 371
SWIDTH 540 0
DWIDTH 36 0
BBX 27 46 5 -14
BITMAP
FC000FC0
FC000FC0
FC000FC0
FC000FC0
FC000FC0
FC000FC0
FC000FC0
FC000FC0
FC000FC0
FC000FC0
FC000FC0
FC000FC0
FC000FC0
FC000FC0
FC000FC0
FC000FC0
FC000FC0
FC000FC0
FC000FC0
FC000FC0
FC000FC0
FC000FC0
FC000FC0
FC000FC0
FC001FC0
7E003FC0
7E007FC0
7F01F7C0
3FFFE7C0
3FFFC7C0
1FFF87C0
0FFF07C0
03F80780
00001E00
00003C00
00003800
00007800
00007000
0000F000
0000F000
0000F000
0000F800
0000FFC0
00007FE0
00003FE0
00001F80
ENDCHAR
STARTCHAR 0174
ENCODING 372
SWIDTH 780 0
DWIDTH 52 0
BBX 49 56 2 0
BITMAP
000007F0000000
00000FF8000000
00001FF8000000
00003E7C000000
00007C3E000000
0000F81F000000
0001F00F800000
0003E003C00000
0000C001800000
00000000000000
00000000000000
00000000000000
F80003E0001F80
FC0007E0001F00
FC0007F0001F00
FC0007F0001F00
FC0007F0001F00
7C000FF0003F00
7E000FF8003E00
7E000FF8003E00
7E000F78003E00
3E001F78003E00
3E001E7C007E00
3E001E7C007C00
3F001E7C007C00
3F003E3C007C00
1F003E3E007C00
1F003C3E00FC00
1F003C3E00F800
1F807C3E00F800
1F807C1F00F800
0F80781F00F800
0F80781F00F800
0F80F81F01F000
0FC0F80F81F000
0FC0F00F81F000
07C0F00F81F000
07C1F00F81F000
07C1F007C3E000
07E1E007C3E000
03E1E007C3E000
03E1E007C3E000
03E3E003C3E000
03E3C003E3C000
03E3C003E7C000
01F3C003E7C000
01F7C001E7C000
01F78001F78000
01F78001F78000
01F78001F78000
00FF8000FF8000
00FF0000FF8000
00FF0000FF0000
00FF0000FF0000
00FF00007F0000
007F00007F0000
ENDCHAR
STARTCHAR 0175
ENCODING 373
SWIDTH 720 0
DWIDTH 48 0
BBX 44 49 2 0
BITMAP
00001F800000
00003FC00000
00007FE00000
0000FFF00000
0000F9F00000
0001F0F80000
0003E07C0000
0007C03E0000
000F801F0000
000F000F0000
000600060000
000000000000
000000000000
000000000000
000000000000
000000000000
000000000000
F8001F8001F0
FC001F8001F0
FC001F8003F0
7C003FC003E0
7C003FC003E0
7E003FC003E0
7E003FE007E0
3E007BE007C0
3E0079E007C0
3F0079E007C0
1F0079F00F80
1F00F1F00F80
1F00F0F00F80
1F80F0F00F80
0F81F0F81F00
0F81E0F81F00
0F81E0781F00
07C1E07C1F00
07C3E07C3E00
07C3C03C3E00
07E3C03C3E00
03E3C03E3C00
03E7C03E7C00
03E7801E7C00
03E7801E7C00
01F7801F7800
01FF001F7800
01FF000FF800
00FF000FF800
00FF000FF000
00FE000FF000
00FE0007F000
ENDCHAR
STARTCHAR 0176
ENCODING 374
SWIDTH 480 0
DWIDTH 32 0
BBX 32 56 0 0
BITMAP
000FE000
000FF000
001FF800
003E7C00
007C3E00
00F81F00
01F00F80
03C007C0
01800100
00000000
00000000
00000000
FC00003F
7E00007E
7E00007E
3E0000FC
3F0000FC
1F0000F8
1F8001F8
0F8001F0
0FC003F0
07C003E0
07E007E0
03E007C0
03F00FC0
03F00F80
01F80F80
01F81F00
00F81F00
00FC3E00
007C3E00
007E7C00
003E7C00
003FF800
001FF800
001FF000
000FF000
000FE000
0007E000
0007E000
0007E000
0007E000
0007E000
0007E000
0007E000
0007E000
0007E000
0007E000
0007E000
0007E000
0007E000
0007E000
0007E000
0007E000
0007E000
0007E000
ENDCHAR
STARTCHAR 0177
ENCODING 375
SWIDTH 465 0
DWIDTH 31 0
BBX 29 63 1 -14
BITMAP
000FC000
001FE000
003FF000
003FF800
007EFC00
00F87C00
01F03E00
03E01F00
03C00F80
07800780
03000300
00000000
00000000
00000000
00000000
00000000
00000000
FC0000F8
FC0000F8
7C0001F0
7E0001F0
3E0001F0
3F0003E0
3F0003E0
1F0003E0
1F8007C0
0F8007C0
0F8007C0
0FC00F80
07C00F80
07C00F80
03E01F00
03E01F00
03F01F00
01F03E00
01F03E00
00F83C00
00F87C00
00F87C00
007C7800
007C7800
003CF800
003EF000
003EF000
001FF000
001FE000
000FE000
000FE000
000FC000
0007C000
000FC000
000F8000
000F8000
001F0000
001F0000
003F0000
007E0000
00FC0000
3FFC0000
3FF80000
3FF00000
7FE00000
3F000000
ENDCHAR
STARTCHAR 0178
ENCODING 376
SWIDTH 480 0
DWIDTH 32 0
BBX 32 54 0 1
BITMAP
01E00F80
03F00FC0
03F01FC0
03F00FC0
03F00FC0
01E00700
00000000
00000000
00000000
00000000
FC00003F
7E00007E
7E00007E
3E0000FC
3F0000FC
1F0000F8
1F8001F8
0F8001F0
0FC003F0
07C003E0
07E007E0
03E007C0
03F00FC0
03F00F80
01F80F80
01F81F00
00F81F00
00FC3E00
007C3E00
007E7C00
003E7C00
003FF800
001FF800
001FF000
000FF000
000FE000
0007E000
0007E000
0007E000
0007E000
0007E000
0007E000
0007E000
0007E000
0007E000
0007E000
0007E000
0007E000
0007E000
0007E000
0007E000
0007E000
0007E000
0007E000
ENDCHAR
STARTCHAR 0179
ENCODING 377
SWIDTH 540 0
DWIDTH 36 0
BBX 30 58 3 0
BITMAP
00000400
00000E00
00001F00
00003F80
00007F00
0001FC00
0003F800
0007F000
000FC000
00078000
00030000
00000000
00000000
00000000
3FFFFFFC
3FFFFFFC
3FFFFFFC
3FFFFFFC
3FFFFFF8
000003F8
000003F0
000007E0
000007E0
00000FC0
00001F80
00001F80
00003F00
00007E00
00007E00
0000FC00
0001F800
0001F800
0003F000
0003F000
0007E000
000FC000
000FC000
001F8000
003F0000
003F0000
007E0000
00FC0000
00FC0000
01F80000
03F00000
03F00000
07E00000
07E00000
0FC00000
1F800000
1F800000
3F000000
7E000000
7FFFFFFC
FFFFFFFC
FFFFFFFC
FFFFFFFC
FFFFFFFC
ENDCHAR
STARTCHAR 017A
ENCODING 378
SWIDTH 420 0
DWIDTH 28 0
BBX 25 51 2 1
BITMAP
00003000
00007800
0000FC00
0001FC00
0001F800
0003F000
0007E000
000FC000
001F8000
003F0000
003E0000
001C0000
00080000
00000000
00000000
00000000
00000000
00000000
00000000
3FFFFF00
3FFFFF00
3FFFFF00
3FFFFF00
00007E00
0000FC00
0000FC00
0001F800
0003F000
0003F000
0007E000
000FC000
000F8000
001F8000
003F0000
007E0000
007E0000
00FC0000
01F80000
01F80000
03F00000
07E00000
07C00000
0FC00000
1F800000
1F000000
3F000000
7E000000
FFFFFF80
FFFFFF80
FFFFFF80
FFFFFF80
ENDCHAR
STARTCHAR 017B
ENCODING 379
SWIDTH 540 0
DWIDTH 36 0
BBX 30 55 3 0
BITMAP
0003C000
0007E000
000FE000
000FF000
000FE000
000FE000
0007C000
00000000
00000000
00000000
00000000
3FFFFFFC
3FFFFFFC
3FFFFFFC
3FFFFFFC
3FFFFFF8
000003F8
000003F0
000007E0
000007E0
00000FC0
00001F80
00001F80
00003F00
00007E00
00007E00
0000FC00
0001F800
0001F800
0003F000
0003F000
0007E000
000FC000
000FC000
001F8000
003F0000
003F0000
007E0000
00FC0000
00FC0000
01F80000
03F00000
03F00000
07E00000
07E00000
0FC00000
1F800000
1F800000
3F000000
7E000000
7FFFFFFC
FFFFFFFC
FFFFFFFC
FFFFFFFC
FFFFFFFC
ENDCHAR
STARTCHAR 017C
ENCODING 380
SWIDTH 420 0
DWIDTH 28 0
BBX 25 46 2 0
BITMAP
001E0000
003F0000
003F8000
003F8000
003F8000
003F0000
001E0000
00000000
00000000
00000000
00000000
00000000
00000000
00000000
3FFFFF00
3FFFFF00
3FFFFF00
3FFFFF00
00007E00
0000FC00
0000FC00
0001F800
0003F000
0003F000
0007E000
000FC000
000F8000
001F8000
003F0000
007E0000
007E0000
00FC0000
01F80000
01F80000
03F00000
07E00000
07C00000
0FC00000
1F800000
1F000000
3F000000
7E000000
FFFFFF80
FFFFFF80
FFFFFF80
FFFFFF80
ENDCHAR
STARTCHAR 017D
ENCODING 381
SWIDTH 540 0
DWIDTH 36 0
BBX 30 56 3 0
BITMAP
01800300
03C007C0
01F00F80
00F81F00
007C3E00
003EFC00
001FF800
001FF000
000FE000
00000000
00000000
00000000
3FFFFFFC
3FFFFFFC
3FFFFFFC
3FFFFFFC
3FFFFFF8
000003F8
000003F0
000007E0
000007E0
00000FC0
00001F80
00001F80
00003F00
00007E00
00007E00
0000FC00
0001F800
0001F800
0003F000
0003F000
0007E000
000FC000
000FC000
001F8000
003F0000
003F0000
007E0000
00FC0000
00FC0000
01F80000
03F00000
03F00000
07E00000
07E00000
0FC00000
1F800000
1F800000
3F000000
7E000000
7FFFFFFC
FFFFFFFC
FFFFFFFC
FFFFFFFC
FFFFFFFC
ENDCHAR
STARTCHAR 017E
ENCODING 382
SWIDTH 420 0
DWIDTH 28 0
BBX 25 50 2 0
BITMAP
04000400
1E000E00
1F001E00
0F803C00
07C07C00
03E0F800
03F1F000
01FBE000
00FFE000
007FC000
007F8000
003F0000
00000000
00000000
00000000
00000000
00000000
00000000
3FFFFF00
3FFFFF00
3FFFFF00
3FFFFF00
00007E00
0000FC00
0000FC00
0001F800
0003F000
0003F000
0007E000
000FC000
000F8000
001F8000
003F0000
007E0000
007E0000
00FC0000
01F80000
01F80000
03F00000
07E00000
07C00000
0FC00000
1F800000
1F000000
3F000000
7E000000
FFFFFF80
FFFFFF80
FFFFFF80
FFFFFF80
ENDCHAR
STARTCHAR 0180
ENCODING 384
SWIDTH 540 0
DWIDTH 36 0
BBX 33 48 1 -1
BITMAP
0FC0000000
0FC0000000
0FC0000000
0FC0000000
0FC0000000
0FC0000000
FFFFFC0000
FFFFFC0000
FFFFFC0000
0FC0000000
0FC0000000
0FC0000000
0FC0000000
0FC0000000
0FC0000000
0FC0000000
0FC0000000
0FC07F0000
0FC3FFC000
0FC7FFF000
0FDFFFF800
0FFFFFFC00
0FFE01FE00
0FF800FE00
0FF0007F00
0FC0003F00
0FC0003F00
0FC0001F00
0FC0001F80
0FC0001F80
0FC0001F80
0FC0001F80
0FC0001F80
0FC0001F80
0FC0001F80
0FC0001F80
0FC0001F00
0FC0003F00
0FC0003F00
0FC0007E00
0FE000FE00
0FF001FC00
0FFC03FC00
0FFFFFF800
0FBFFFF000
0F8FFFE000
0F87FF8000
0000FC0000
ENDCHAR
STARTCHAR 018F
ENCODING 399
SWIDTH 660 0
DWIDTH 44 0
BBX 36 46 4 -1
BITMAP
0007FE0000
003FFFC000
00FFFFF000
03FFFFF800
07FFFFFC00
0FF801FE00
07C0007F00
0380003F80
0100001F80
0000000FC0
0000000FC0
00000007E0
00000007E0
00000003E0
00000003F0
00000003F0
00000003F0
00000001F0
00000001F0
00000001F0
00000001F0
00000001F0
FFFFFFFFF0
FFFFFFFFF0
FFFFFFFFF0
FFFFFFFFF0
FC000001F0
FC000001F0
FC000001F0
FC000003F0
7C000003F0
7C000003E0
7E000003E0
7E000007E0
3E000007E0
3F00000FC0
1F80000FC0
1F80001F80
0FC0003F00
0FF0007F00
07F801FE00
03FFFFFC00
01FFFFF800
007FFFE000
003FFF8000
0007FC0000
ENDCHAR
STARTCHAR 0192
ENCODING 402
SWIDTH 495 0
DWIDTH 33 0
BBX 30 51 1 -6
BITMAP
000007F0
00001FFC
00003FF8
00007FF8
0000FFF8
0000FC00
0001F800
0001F000
0003F000
0003F000
0003E000
0003E000
0003E000
0007E000
0007E000
0007E000
0007C000
0007C000
01FFFFE0
01FFFFE0
01FFFFE0
01FFFFE0
000FC000
000FC000
000FC000
000F8000
000F8000
000F8000
000F8000
000F8000
000F8000
001F8000
001F8000
001F8000
001F0000
001F0000
001F0000
001F0000
001F0000
001F0000
003F0000
003E0000
003E0000
007E0000
007E0000
00FC0000
41FC0000
7FF80000
7FF00000
FFE00000
FFC00000
ENDCHAR
STARTCHAR 0193
ENCODING 403
SWIDTH 615 0
DWIDTH 41 0
BBX 38 55 3 -1
BITMAP
00000001F8
00000007FC
0000000FF8
0000001FF8
0000001FD8
0000003F00
0000003E00
0000003E00
0000003E00
0000FFBE00
0007FFFF00
001FFFFF00
007FFFFF80
00FFFFFF80
01FF007F00
03FC000E00
07F0000600
0FE0000000
0FC0000000
1FC0000000
1F80000000
3F00000000
3F00000000
3F00000000
7E00000000
7E00000000
7E00000000
7E00000000
7C00000000
7C00000000
7C00000000
FC001FFFC0
FC001FFFC0
FC001FFFC0
7C001FFFC0
7C001FFFC0
7E000007C0
7E000007C0
7E000007C0
7E000007C0
3F000007C0
3F000007C0
3F000007C0
1F800007C0
1F800007C0
0FC00007C0
0FE00007C0
07F00007C0
03FC001FC0
03FF007FC0
01FFFFFF80
007FFFFF00
003FFFFC00
000FFFF000
0000FF8000
ENDCHAR
STARTCHAR 01A0
ENCODING 416
SWIDTH 660 0
DWIDTH 44 0
BBX 37 55 4 -1
BITMAP
0000000030
00000000F8
00000000F8
00000000F8
00000000F8
00000000F8
00000000F8
00000000F8
00000000F8
0003FE01F0
001FFFC7E0
007FFFFFC0
00FFFFFF80
03FFFFFC00
07FC03FE00
07F000FF00
0FE0003F80
1FC0001FC0
1F80000FC0
3F00000FE0
3F000007E0
7E000007E0
7E000003F0
7E000003F0
FC000003F0
FC000001F8
FC000001F8
FC000001F8
FC000001F8
FC000001F8
F8000001F8
F8000001F8
F8000001F8
F8000001F8
FC000001F8
FC000001F8
FC000001F8
FC000001F8
FC000001F0
7C000003F0
7E000003F0
7E000003F0
7E000007E0
3F000007E0
3F80000FE0
1F80000FC0
1FC0001F80
0FE0003F80
07F800FF00
07FE03FE00
03FFFFFC00
00FFFFF800
007FFFF000
001FFFC000
0003FE0000
ENDCHAR
STARTCHAR 01A1
ENCODING 417
SWIDTH 540 0
DWIDTH 36 0
BBX 32 44 3 0
BITMAP
0000000E
0000003E
0000001F
0000001F
0000001F
0000001F
0000001F
0000001F
0000003E
0000007E
001FE0FC
007FFFF8
01FFFFE0
03FFFF80
07FFFFC0
0FE01FE0
1FC00FE0
3F8007F0
3F0003F0
7E0001F8
7E0001F8
7E0000F8
7C0000FC
FC0000FC
FC0000FC
FC0000FC
FC0000FC
FC0000FC
FC0000FC
FC0000FC
FC0000FC
7C0000FC
7E0000F8
7E0001F8
7E0001F8
3F0003F0
3F8003F0
1FC007E0
0FE01FC0
07FFFFC0
03FFFF80
01FFFE00
007FFC00
001FE000
ENDCHAR
STARTCHAR 01AF
ENCODING 431
SWIDTH 660 0
DWIDTH 44 0
BBX 39 56 6 -1
BITMAP
000000000C
000000007C
000000007E
000000003E
000000003E
000000003E
000000003E
000000003E
000000007C
00000000FC
00000003F8
F800003FF0
F800003FC0
F800003E00
F800003E00
F800003E00
F800003E00
F800003E00
F800003E00
F800003E00
F800003E00
F800003E00
F800003E00
F800003E00
F800003E00
F800003E00
F800003E00
F800003E00
F800003E00
F800003E00
F800003E00
F800003E00
F800003E00
F800003E00
F800003E00
F800003E00
F800003E00
F800003E00
F800003E00
F800003E00
FC00003E00
FC00003E00
FC00007E00
FC00007E00
7C00007C00
7E00007C00
7E0000FC00
3F0001F800
3F8001F800
1FC007F000
1FF01FF000
0FFFFFE000
07FFFFC000
03FFFF8000
00FFFE0000
001FF00000
ENDCHAR
STARTCHAR 01B0
ENCODING 432
SWIDTH 540 0
DWIDTH 36 0
BBX 32 45 5 -1
BITMAP
00000006
0000001E
0000001F
0000001F
0000001F
0000001F
0000001F
0000001F
0000001F
0000003E
0000003E
000000FC
FC000FF8
FC000FE0
FC000FC0
FC000FC0
FC000FC0
FC000FC0
FC000FC0
FC000FC0
FC000FC0
FC000FC0
FC000FC0
FC000FC0
FC000FC0
FC000FC0
FC000FC0
FC000FC0
FC000FC0
FC000FC0
FC000FC0
FC000FC0
FC000FC0
FC000FC0
FC000FC0
FC000FC0
FC001FC0
7E003FC0
7E007FC0
7F01F7C0
3FFFE7C0
3FFFC7C0
1FFF87C0
0FFF07C0
03F80000
ENDCHAR
STARTCHAR 01C2
ENCODING 450
SWIDTH 285 0
DWIDTH 19 0
BBX 19 67 0 -17
BITMAP
00F000
00F000
00F000
00F000
00F000
00F000
00F000
00F000
00F000
00F000
00F000
00F000
00F000
00F000
00F000
00F000
00F000
00F000
00F000
00F000
00F000
00F000
00F000
00F000
00F000
FFFFE0
FFFFE0
FFFFE0
00F000
00F000
00F000
00F000
00F000
00F000
00F000
00F000
FFFFE0
FFFFE0
FFFFE0
00F000
00F000
00F000
00F000
00F000
00F000
00F000
00F000
00F000
00F000
00F000
00F000
00F000
00F000
00F000
00F000
00F000
00F000
00F000
00F000
00F000
00F000
00F000
00F000
00F000
00F000
00F000
00F000
ENDCHAR
STARTCHAR 01CD
ENCODING 461
SWIDTH 540 0
DWIDTH 36 0
BBX 36 56 0 0
BITMAP
0060006000
00F801F000
007C03E000
003E07C000
001F0F8000
000F9F0000
0007FE0000
0003FC0000
0001F80000
0000000000
0000000000
0000000000
0001F80000
0003FC0000
0003FC0000
0003FC0000
0007FE0000
0007FE0000
00079E0000
000F9F0000
000F9F0000
000F8F0000
001F0F8000
001F0F8000
001F0F8000
003E07C000
003E07C000
003E07C000
007C03E000
007C03E000
007C03E000
00F801F000
00F801F000
00F801F800
01F800F800
01F000F800
01F000FC00
03F000FC00
03FFFFFC00
03FFFFFE00
07FFFFFE00
07FFFFFE00
07C0003F00
0FC0003F00
0F80001F00
0F80001F80
1F80001F80
1F80000F80
1F00000FC0
3F00000FC0
3F00000FC0
3E000007E0
7E000007E0
7E000007E0
7C000003F0
FC000003F0
ENDCHAR
STARTCHAR 01CE
ENCODING 462
SWIDTH 510 0
DWIDTH 34 0
BBX 26 51 3 -1
BITMAP
02000200
07000700
07800F00
07C01F00
03E03E00
01F07C00
00F8F800
00FDF800
007FF000
003FE000
001FC000
001FC000
00000000
00000000
00000000
00000000
00000000
003FE000
01FFF800
07FFFC00
1FFFFE00
3FFFFF00
1F807F00
1C001F80
08001F80
00000F80
00000FC0
00000FC0
00000FC0
00000FC0
0001FFC0
003FFFC0
00FFFFC0
07FFEFC0
0FFC0FC0
1FE00FC0
3F800FC0
7E000FC0
7E000FC0
7C000FC0
7C000FC0
FC000FC0
FC000FC0
7C001FC0
7E003FC0
7F00FFC0
3FEFF7C0
3FFFE7C0
1FFFC7C0
0FFF07C0
01F80000
ENDCHAR
STARTCHAR 01CF
ENCODING 463
SWIDTH 270 0
DWIDTH 18 0
BBX 20 56 -1 0
BITMAP
6000C0
F001F0
7C03E0
3E07C0
1F0F80
0FBF00
07FE00
07FC00
03F800
000000
000000
000000
01F800
01F800
01F800
01F800
01F800
01F800
01F800
01F800
01F800
01F800
01F800
01F800
01F800
01F800
01F800
01F800
01F800
01F800
01F800
01F800
01F800
01F800
01F800
01F800
01F800
01F800
01F800
01F800
01F800
01F800
01F800
01F800
01F800
01F800
01F800
01F800
01F800
01F800
01F800
01F800
01F800
01F800
01F800
01F800
ENDCHAR
STARTCHAR 01D0
ENCODING 464
SWIDTH 240 0
DWIDTH 16 0
BBX 20 50 -2 0
BITMAP
600020
F00070
F800F0
7C01E0
3E03E0
1F07C0
1F8F80
0FDF00
07FF00
03FE00
03FC00
01F800
000000
000000
000000
000000
000000
000000
01F800
01F800
01F800
01F800
01F800
01F800
01F800
01F800
01F800
01F800
01F800
01F800
01F800
01F800
01F800
01F800
01F800
01F800
01F800
01F800
01F800
01F800
01F800
01F800
01F800
01F800
01F800
01F800
01F800
01F800
01F800
01F800
ENDCHAR
STARTCHAR 01D1
ENCODING 465
SWIDTH 660 0
DWIDTH 44 0
BBX 38 58 3 -1
BITMAP
0010002000
007C007800
003E01F000
001F03E000
000F87C000
0007CF8000
0003FF0000
0001FF0000
0000FE0000
0000000000
0000000000
0000000000
0001FF0000
000FFFE000
003FFFF800
00FFFFFC00
01FFFFFE00
03FE01FF00
07F8007F80
07F0003FC0
0FE0000FC0
1FC0000FE0
1F800007E0
1F800003F0
3F000003F0
3F000001F8
3E000001F8
7E000001F8
7E000001F8
7E000000FC
7E000000FC
7C000000FC
7C000000FC
FC000000FC
FC000000FC
FC000000FC
7C000000FC
7C000000FC
7C000000FC
7E000000FC
7E000000F8
7E000001F8
7E000001F8
3F000001F8
3F000003F0
3F000003F0
1F800003F0
1F800007E0
1FC0000FE0
0FE0001FC0
07F0003FC0
07F8007F80
03FE01FF00
01FFFFFE00
00FFFFFC00
003FFFF000
000FFFC000
0001FE0000
ENDCHAR
STARTCHAR 01D2
ENCODING 466
SWIDTH 540 0
DWIDTH 36 0
BBX 30 51 3 -1
BITMAP
03000300
07800780
07C00780
03E00F00
01F01E00
01F83E00
00F87C00
007CF800
003FF000
003FF000
001FE000
000FC000
00000000
00000000
00000000
00000000
00000000
001FE000
007FFC00
01FFFE00
03FFFF80
07FFFFC0
0FE01FC0
1FC00FE0
3F8007F0
3F0003F0
7E0001F8
7E0001F8
7E0000F8
7C0000FC
FC0000FC
FC0000FC
FC0000FC
FC0000FC
FC0000FC
FC0000FC
FC0000FC
FC0000FC
7C0000FC
7E0000F8
7E0001F8
7E0001F8
3F0003F0
3F8003F0
1FC007E0
0FE01FC0
07FFFFC0
03FFFF80
01FFFE00
007FFC00
001FE000
ENDCHAR
STARTCHAR 01D3
ENCODING 467
SWIDTH 645 0
DWIDTH 43 0
BBX 31 57 6 -1
BITMAP
01800300
03C00780
01E00F00
00F83F00
00FC7E00
007EFC00
003FF800
001FF000
000FE000
00000000
00000000
00000000
F800003E
F800003E
F800003E
F800003E
F800003E
F800003E
F800003E
F800003E
F800003E
F800003E
F800003E
F800003E
F800003E
F800003E
F800003E
F800003E
F800003E
F800003E
F800003E
F800003E
F800003E
F800003E
F800003E
F800003E
F800003E
F800003E
F800003E
F800003E
F800003E
FC00003E
FC00003E
FC00007E
FC00007E
7C00007C
7E00007C
7E0000FC
3F0001F8
3F8001F8
1FC007F0
1FF01FF0
0FFFFFE0
07FFFFC0
03FFFF80
00FFFE00
001FF000
ENDCHAR
STARTCHAR 01D4
ENCODING 468
SWIDTH 540 0
DWIDTH 36 0
BBX 26 51 5 -1
BITMAP
0C000400
1E000E00
1F001E00
0F803C00
07C07C00
07E0F800
03F1F000
01FBE000
00FFC000
007FC000
007F8000
003F0000
00000000
00000000
00000000
00000000
00000000
00000000
FC000FC0
FC000FC0
FC000FC0
FC000FC0
FC000FC0
FC000FC0
FC000FC0
FC000FC0
FC000FC0
FC000FC0
FC000FC0
FC000FC0
FC000FC0
FC000FC0
FC000FC0
FC000FC0
FC000FC0
FC000FC0
FC000FC0
FC000FC0
FC000FC0
FC000FC0
FC000FC0
FC000FC0
FC001FC0
7E003FC0
7E007FC0
7F01F7C0
3FFFE7C0
3FFFC7C0
1FFF87C0
0FFF07C0
03F80000
ENDCHAR
STARTCHAR 01D5
ENCODING 469
SWIDTH 645 0
DWIDTH 43 0
BBX 31 62 6 -1
BITMAP
01FFFF00
01FFFF00
01FFFF00
00000000
00000000
00000000
00000000
01C00700
03E00F80
03F01F80
03F01F80
03E00F80
01C00700
00000000
00000000
00000000
00000000
F800003E
F800003E
F800003E
F800003E
F800003E
F800003E
F800003E
F800003E
F800003E
F800003E
F800003E
F800003E
F800003E
F800003E
F800003E
F800003E
F800003E
F800003E
F800003E
F800003E
F800003E
F800003E
F800003E
F800003E
F800003E
F800003E
F800003E
F800003E
F800003E
FC00003E
FC00003E
FC00007E
FC00007E
7C00007C
7E00007C
7E0000FC
3F0001F8
3F8001F8
1FC007F0
1FF01FF0
0FFFFFE0
07FFFFC0
03FFFF80
00FFFE00
001FF000
ENDCHAR
STARTCHAR 01D6
ENCODING 470
SWIDTH 540 0
DWIDTH 36 0
BBX 26 54 5 -1
BITMAP
0FFFFC00
0FFFFC00
0FFFFC00
00000000
00000000
00000000
00000000
00000000
07003800
0F807C00
0FC07E00
0FC07E00
0F807C00
07803800
00000000
00000000
00000000
00000000
00000000
00000000
00000000
FC000FC0
FC000FC0
FC000FC0
FC000FC0
FC000FC0
FC000FC0
FC000FC0
FC000FC0
FC000FC0
FC000FC0
FC000FC0
FC000FC0
FC000FC0
FC000FC0
FC000FC0
FC000FC0
FC000FC0
FC000FC0
FC000FC0
FC000FC0
FC000FC0
FC000FC0
FC000FC0
FC000FC0
FC001FC0
7E003FC0
7E007FC0
7F01F7C0
3FFFE7C0
3FFFC7C0
1FFF87C0
0FFF07C0
03F80000
ENDCHAR
STARTCHAR 01D7
ENCODING 471
SWIDTH 645 0
DWIDTH 43 0
BBX 31 66 6 -1
BITMAP
00001000
00003800
00007E00
00007C00
0000F800
0001F000
0003E000
0007C000
00078000
00010000
00000000
01C00700
03E00F80
03F01F80
03F01F80
03E00F80
01C00700
00000000
00000000
00000000
00000000
F800003E
F800003E
F800003E
F800003E
F800003E
F800003E
F800003E
F800003E
F800003E
F800003E
F800003E
F800003E
F800003E
F800003E
F800003E
F800003E
F800003E
F800003E
F800003E
F800003E
F800003E
F800003E
F800003E
F800003E
F800003E
F800003E
F800003E
F800003E
F800003E
FC00003E
FC00003E
FC00007E
FC00007E
7C00007C
7E00007C
7E0000FC
3F0001F8
3F8001F8
1FC007F0
1FF01FF0
0FFFFFE0
07FFFFC0
03FFFF80
00FFFE00
001FF000
ENDCHAR
STARTCHAR 01D8
ENCODING 472
SWIDTH 540 0
DWIDTH 36 0
BBX 26 57 5 -1
BITMAP
00018000
0001C000
0003E000
0007C000
00078000
000F0000
001E0000
003C0000
00080000
00000000
00000000
07003800
0F807C00
0FC07E00
0FC07E00
0F807C00
07803800
00000000
00000000
00000000
00000000
00000000
00000000
00000000
FC000FC0
FC000FC0
FC000FC0
FC000FC0
FC000FC0
FC000FC0
FC000FC0
FC000FC0
FC000FC0
FC000FC0
FC000FC0
FC000FC0
FC000FC0
FC000FC0
FC000FC0
FC000FC0
FC000FC0
FC000FC0
FC000FC0
FC000FC0
FC000FC0
FC000FC0
FC000FC0
FC000FC0
FC001FC0
7E003FC0
7E007FC0
7F01F7C0
3FFFE7C0
3FFFC7C0
1FFF87C0
0FFF07C0
03F80000
ENDCHAR
STARTCHAR 01D9
ENCODING 473
SWIDTH 645 0
DWIDTH 43 0
BBX 31 65 6 -1
BITMAP
00C00600
01E00F00
01F01F00
00FC7E00
003EFC00
001FF800
000FE000
0007C000
00000000
00000000
01C00700
03E00F80
03F01F80
03F01F80
03E00F80
01C00700
00000000
00000000
00000000
00000000
F800003E
F800003E
F800003E
F800003E
F800003E
F800003E
F800003E
F800003E
F800003E
F800003E
F800003E
F800003E
F800003E
F800003E
F800003E
F800003E
F800003E
F800003E
F800003E
F800003E
F800003E
F800003E
F800003E
F800003E
F800003E
F800003E
F800003E
F800003E
F800003E
FC00003E
FC00003E
FC00007E
FC00007E
7C00007C
7E00007C
7E0000FC
3F0001F8
3F8001F8
1FC007F0
1FF01FF0
0FFFFFE0
07FFFFC0
03FFFF80
00FFFE00
001FF000
ENDCHAR
STARTCHAR 01DA
ENCODING 474
SWIDTH 540 0
DWIDTH 36 0
BBX 26 57 5 -1
BITMAP
02001000
07003800
07C07800
03E1F000
01F3E000
00FFC000
007F8000
003F0000
00000000
00000000
00000000
07003800
0F807C00
0FC07E00
0FC07E00
0F807C00
07803800
00000000
00000000
00000000
00000000
00000000
00000000
00000000
FC000FC0
FC000FC0
FC000FC0
FC000FC0
FC000FC0
FC000FC0
FC000FC0
FC000FC0
FC000FC0
FC000FC0
FC000FC0
FC000FC0
FC000FC0
FC000FC0
FC000FC0
FC000FC0
FC000FC0
FC000FC0
FC000FC0
FC000FC0
FC000FC0
FC000FC0
FC000FC0
FC000FC0
FC001FC0
7E003FC0
7E007FC0
7F01F7C0
3FFFE7C0
3FFFC7C0
1FFF87C0
0FFF07C0
03F80000
ENDCHAR
STARTCHAR 01DB
ENCODING 475
SWIDTH 645 0
DWIDTH 43 0
BBX 31 66 6 -1
BITMAP
00100000
00380000
00FC0000
007C0000
003E0000
001F0000
000F8000
0007C000
0003C000
00010000
00000000
01C00700
03E00F80
03F01F80
03F01F80
03E00F80
01C00700
00000000
00000000
00000000
00000000
F800003E
F800003E
F800003E
F800003E
F800003E
F800003E
F800003E
F800003E
F800003E
F800003E
F800003E
F800003E
F800003E
F800003E
F800003E
F800003E
F800003E
F800003E
F800003E
F800003E
F800003E
F800003E
F800003E
F800003E
F800003E
F800003E
F800003E
F800003E
F800003E
FC00003E
FC00003E
FC00007E
FC00007E
7C00007C
7E00007C
7E0000FC
3F0001F8
3F8001F8
1FC007F0
1FF01FF0
0FFFFFE0
07FFFFC0
03FFFF80
00FFFE00
001FF000
ENDCHAR
STARTCHAR 01DC
ENCODING 476
SWIDTH 540 0
DWIDTH 36 0
BBX 26 57 5 -1
BITMAP
00200000
00F00000
01F00000
00F80000
007C0000
003C0000
001E0000
000F0000
00060000
00000000
00000000
07003800
0F807C00
0FC07E00
0FC07E00
0F807C00
07803800
00000000
00000000
00000000
00000000
00000000
00000000
00000000
FC000FC0
FC000FC0
FC000FC0
FC000FC0
FC000FC0
FC000FC0
FC000FC0
FC000FC0
FC000FC0
FC000FC0
FC000FC0
FC000FC0
FC000FC0
FC000FC0
FC000FC0
FC000FC0
FC000FC0
FC000FC0
FC000FC0
FC000FC0
FC000FC0
FC000FC0
FC000FC0
FC000FC0
FC001FC0
7E003FC0
7E007FC0
7F01F7C0
3FFFE7C0
3FFFC7C0
1FFF87C0
0FFF07C0
03F80000
ENDCHAR
STARTCHAR 01E2
ENCODING 482
SWIDTH 825 0
DWIDTH 55 0
BBX 51 54 1 0
BITMAP
0000000FFFFC00
0000000FFFFC00
0000000FFFFC00
0000000FFFFC00
00000000000000
00000000000000
00000000000000
00000000000000
00000000000000
00000000000000
000003FFFFFFC0
000003FFFFFFC0
000007FFFFFFC0
000007FFFFFFC0
00000FBFFFFFC0
00000FBE000000
00001F3E000000
00001F3E000000
00003E3E000000
00007E3E000000
00007C3E000000
0000FC3E000000
0000F83E000000
0001F83E000000
0001F03E000000
0003F03E000000
0003E03E000000
0007E03E000000
0007C03FFFFE00
000FC03FFFFE00
000F803FFFFE00
001F803FFFFE00
001F003FFFFE00
003F003E000000
003E003E000000
007E003E000000
007C003E000000
00FFFFFE000000
00FFFFFE000000
01FFFFFE000000
01FFFFFE000000
03F0003E000000
03E0003E000000
07E0003E000000
0FC0003E000000
0FC0003E000000
1F80003E000000
1F80003E000000
3F00003E000000
3F00003FFFFFE0
7E00003FFFFFE0
7E00003FFFFFE0
FC00003FFFFFE0
FC00003FFFFFE0
ENDCHAR
STARTCHAR 01E3
ENCODING 483
SWIDTH 780 0
DWIDTH 52 0
BBX 46 45 4 -1
BITMAP
0001FFFF0000
0001FFFF0000
0001FFFF0000
0001FFFF0000
000000000000
000000000000
000000000000
000000000000
000000000000
000000000000
000000000000
003F8003F800
03FFE00FFF00
0FFFF01FFF80
3FFFF83FFFC0
7FFFFC7F1FE0
3F007CF807F0
1C003FF001F0
10003FE001F8
00001FE000F8
00001FC000F8
00001FC00078
00001F80007C
00001F80007C
0000FF80007C
001FFF80007C
00FFFFFFFFFC
03FFFFFFFFFC
0FFC1FFFFFFC
1FE01FFFFFFC
3F800F800000
7E000F800000
7C000F800000
FC000F800000
F8000FC00000
F80007C00000
F8000FE00000
FC001FF00000
FC007FF80020
FE00FDFC00E0
7FCFF8FFDFF0
3FFFE07FFFF0
3FFFC03FFFE0
0FFF000FFF80
03F80003FC00
ENDCHAR
STARTCHAR 01E6
ENCODING 486
SWIDTH 615 0
DWIDTH 41 0
BBX 34 58 3 -1
BITMAP
000C001800
001E003C00
000F007C00
000F80F800
0007E1F000
0003F7E000
0001FFC000
0000FF8000
00007F0000
0000000000
0000000000
0000000000
0000FF8000
0007FFF000
001FFFFC00
007FFFFE00
00FFFFFF00
01FF007F80
03FC001F00
07F0000E00
0FE0000600
0FC0000000
1FC0000000
1F80000000
3F00000000
3F00000000
3F00000000
7E00000000
7E00000000
7E00000000
7E00000000
7C00000000
7C00000000
7C00000000
FC001FFFC0
FC001FFFC0
FC001FFFC0
7C001FFFC0
7C001FFFC0
7E000007C0
7E000007C0
7E000007C0
7E000007C0
3F000007C0
3F000007C0
3F000007C0
1F800007C0
1F800007C0
0FC00007C0
0FE00007C0
07F00007C0
03FC001FC0
03FF007FC0
01FFFFFF80
007FFFFF00
003FFFFC00
000FFFF000
0000FF8000
ENDCHAR
STARTCHAR 01E7
ENCODING 487
SWIDTH 510 0
DWIDTH 34 0
BBX 30 65 3 -15
BITMAP
02000300
07000780
07800F80
03C01F00
03E03E00
01F07E00
00F8FC00
007DF800
007FF000
003FE000
001FE000
000FC000
00000000
00000000
00000000
00000000
00000000
003F8000
01FFFFF8
03FFFFF8
0FFFFFF8
0FE0FFF8
1F803E00
3F001F00
3E001F00
3E000F80
7E000F80
7E000F80
7E000F80
7E000F80
7E000F80
3E000F80
3E001F80
3F001F00
1F803F00
0FC07E00
0FFFFC00
07FFF800
0FFFF000
1F3F8000
1E000000
3E000000
3C000000
3E000000
3E000000
3F000000
3FFFE000
1FFFFF80
0FFFFFE0
07FFFFF0
1F7FFFF8
3C0003F8
7C0000FC
780000FC
F80000FC
F80000FC
F80000F8
F80000F8
FC0001F0
7E0007F0
7F801FE0
3FFFFFC0
1FFFFF00
07FFFC00
00FFC000
ENDCHAR
STARTCHAR 01EA
ENCODING 490
SWIDTH 660 0
DWIDTH 44 0
BBX 38 60 3 -15
BITMAP
0001FF0000
000FFFE000
003FFFF800
00FFFFFC00
01FFFFFE00
03FE01FF00
07F8007F80
07F0003FC0
0FE0000FC0
1FC0000FE0
1F800007E0
1F800003F0
3F000003F0
3F000001F8
3E000001F8
7E000001F8
7E000001F8
7E000000FC
7E000000FC
7C000000FC
7C000000FC
FC000000FC
FC000000FC
FC000000FC
7C000000FC
7C000000FC
7C000000FC
7E000000FC
7E000000F8
7E000001F8
7E000001F8
3F000001F8
3F000001F8
3F000003F0
1F800003F0
1F800007E0
1FC0000FE0
0FE0000FC0
07F0001FC0
07F8007F80
03FE01FF00
01FFFFFE00
00FFFFFC00
003FFFF000
000FFFE000
0001FF8000
00003E0000
00007C0000
0000780000
0000F00000
0000E00000
0001E00000
0001E00000
0001E00000
0001E00000
0001F08000
0001FFC000
0000FFC000
00007FC000
00003F0000
ENDCHAR
STARTCHAR 01EB
ENCODING 491
SWIDTH 540 0
DWIDTH 36 0
BBX 30 47 3 -14
BITMAP
001FE000
007FFC00
01FFFE00
03FFFF80
07FFFFC0
0FE01FC0
1FC00FE0
3F8007F0
3F0003F0
7E0001F8
7E0001F8
7E0000F8
7C0000FC
FC0000FC
FC0000FC
FC0000FC
FC0000FC
FC0000FC
FC0000FC
FC0000FC
FC0000FC
7C0000FC
7E0000F8
7E0001F8
7E0001F8
3F0003F0
3F8003F0
1FC007E0
0FE01FC0
07FFFFC0
03FFFF00
01FFFE00
007FFC00
001FF000
0003C000
00078000
000F0000
000E0000
001E0000
001E0000
001E0000
001E0000
001F0800
001FF800
001FFC00
000FF800
0003E000
ENDCHAR
STARTCHAR 01F4
ENCODING 500
SWIDTH 615 0
DWIDTH 41 0
BBX 34 59 3 -1
BITMAP
0000002000
000000F000
000001F800
000003F800
000007F000
00000FE000
00001F8000
00003F0000
00007E0000
0000380000
0000100000
0000000000
0000000000
0000FF8000
0007FFF000
001FFFFC00
007FFFFE00
00FFFFFF00
01FF007F80
03FC001F00
07F0000E00
0FE0000600
0FC0000000
1FC0000000
1F80000000
3F00000000
3F00000000
3F00000000
7E00000000
7E00000000
7E00000000
7E00000000
7C00000000
7C00000000
7C00000000
FC001FFFC0
FC001FFFC0
FC001FFFC0
7C001FFFC0
7C001FFFC0
7E000007C0
7E000007C0
7E000007C0
7E000007C0
3F000007C0
3F000007C0
3F000007C0
1F800007C0
1F800007C0
0FC00007C0
0FE00007C0
07F00007C0
03FC001FC0
03FF007FC0
01FFFFFF80
007FFFFF00
003FFFFC00
000FFFF000
0000FF8000
ENDCHAR
STARTCHAR 01F5
ENCODING 501
SWIDTH 510 0
DWIDTH 34 0
BBX 30 67 3 -15
BITMAP
00000800
00000C00
00001E00
00003F00
00007F00
0000FE00
0001FC00
0003F800
0003F000
0007E000
000FC000
001F8000
000F0000
00060000
00000000
00000000
00000000
00000000
00000000
003F8000
01FFFFF8
03FFFFF8
0FFFFFF8
0FE0FFF8
1F803E00
3F001F00
3E001F00
3E000F80
7E000F80
7E000F80
7E000F80
7E000F80
7E000F80
3E000F80
3E001F80
3F001F00
1F803F00
0FC07E00
0FFFFC00
07FFF800
0FFFF000
1F3F8000
1E000000
3E000000
3C000000
3E000000
3E000000
3F000000
3FFFE000
1FFFFF80
0FFFFFE0
07FFFFF0
1F7FFFF8
3C0003F8
7C0000FC
780000FC
F80000FC
F80000FC
F80000F8
F80000F8
FC0001F0
7E0007F0
7F801FE0
3FFFFFC0
1FFFFF00
07FFFC00
00FFC000
ENDCHAR
STARTCHAR 01F8
ENCODING 504
SWIDTH 645 0
DWIDTH 43 0
BBX 31 58 6 0
BITMAP
00600000
00700000
00F80000
01FC0000
00FE0000
007F0000
001F8000
000FC000
0007E000
0001C000
0000C000
00000000
00000000
00000000
FC00003E
FE00003E
FE00003E
FF00003E
FF00003E
FF80003E
FF80003E
FFC0003E
FFE0003E
FBE0003E
F9F0003E
F9F0003E
F8F8003E
F8F8003E
F87C003E
F87E003E
F83E003E
F83F003E
F81F003E
F81F803E
F80F803E
F807C03E
F807E03E
F803E03E
F803F03E
F801F03E
F801F83E
F800F83E
F8007C3E
F8007C3E
F8003E3E
F8003F3E
F8001F3E
F8001FBE
F8000FBE
F80007FE
F80007DE
F80003FE
F80003FE
F80001FE
F80001FE
F80000FE
F800007E
F800007E
ENDCHAR
STARTCHAR 01F9
ENCODING 505
SWIDTH 540 0
DWIDTH 36 0
BBX 26 51 5 1
BITMAP
01C00000
03E00000
07E00000
07F00000
03F80000
01FC0000
00FE0000
007F0000
003F0000
000F8000
0007C000
00038000
00010000
00000000
00000000
00000000
00000000
00000000
0007F000
F81FFC00
F87FFE00
F8FFFF00
F9FFFF80
FFE03F80
FFC01FC0
FF000FC0
FE000FC0
FC0007C0
FC0007C0
FC0007C0
FC0007C0
FC0007C0
FC0007C0
FC0007C0
FC0007C0
FC0007C0
FC0007C0
FC0007C0
FC0007C0
FC0007C0
FC0007C0
FC0007C0
FC0007C0
FC0007C0
FC0007C0
FC0007C0
FC0007C0
FC0007C0
FC0007C0
FC0007C0
FC0007C0
ENDCHAR
STARTCHAR 01FC
ENCODING 508
SWIDTH 825 0
DWIDTH 55 0
BBX 51 59 1 0
BITMAP
00000000002000
00000000006000
0000000000F000
0000000001F800
0000000003F800
0000000007F000
000000000FC000
000000001F8000
000000007F0000
000000007C0000
00000000380000
00000000100000
00000000000000
00000000000000
00000000000000
000003FFFFFFC0
000003FFFFFFC0
000007FFFFFFC0
000007FFFFFFC0
00000FBFFFFFC0
00000FBE000000
00001F3E000000
00001F3E000000
00003E3E000000
00007E3E000000
00007C3E000000
0000FC3E000000
0000F83E000000
0001F83E000000
0001F03E000000
0003F03E000000
0003E03E000000
0007E03E000000
0007C03FFFFE00
000FC03FFFFE00
000F803FFFFE00
001F803FFFFE00
001F003FFFFE00
003F003E000000
003E003E000000
007E003E000000
007C003E000000
00FFFFFE000000
00FFFFFE000000
01FFFFFE000000
01FFFFFE000000
03F0003E000000
03E0003E000000
07E0003E000000
0FC0003E000000
0FC0003E000000
1F80003E000000
1F80003E000000
3F00003E000000
3F00003FFFFFE0
7E00003FFFFFE0
7E00003FFFFFE0
FC00003FFFFFE0
FC00003FFFFFE0
ENDCHAR
STARTCHAR 01FD
ENCODING 509
SWIDTH 780 0
DWIDTH 52 0
BBX 46 53 4 -1
BITMAP
000000040000
0000000E0000
0000001F0000
0000003F8000
0000003F0000
0000007E0000
000000FC0000
000001F80000
000003F00000
000007E00000
00000FC00000
00000F800000
000007000000
000002000000
000000000000
000000000000
000000000000
000000000000
000000000000
003F8003F800
03FFE00FFF00
0FFFF01FFF80
3FFFF83FFFC0
7FFFFC7F1FE0
3F007CF807F0
1C003FF001F0
10003FE001F8
00001FE000F8
00001FC000F8
00001FC00078
00001F80007C
00001F80007C
0000FF80007C
001FFF80007C
00FFFFFFFFFC
03FFFFFFFFFC
0FFC1FFFFFFC
1FE01FFFFFFC
3F800F800000
7E000F800000
7C000F800000
FC000F800000
F8000FC00000
F80007C00000
F8000FE00000
FC001FF00000
FC007FF80020
FE00FDFC00E0
7FCFF8FFDFF0
3FFFE07FFFF0
3FFFC03FFFE0
0FFF000FFF80
03F80003FC00
ENDCHAR
STARTCHAR 0218
ENCODING 536
SWIDTH 540 0
DWIDTH 36 0
BBX 30 60 3 -15
BITMAP
000FF000
007FFE00
01FFFF80
03FFFFC0
07FFFFF0
0FF00FF8
1FC003F0
1F8000E0
3F000040
3F000000
3F000000
3F000000
3F000000
3F000000
3F000000
1F800000
1FC00000
1FF00000
0FFC0000
07FF0000
03FFE000
01FFF800
007FFE00
001FFF80
0003FFC0
0000FFE0
00003FF0
00000FF8
000003F8
000001F8
000000FC
000000FC
000000FC
000000FC
000000FC
000000FC
300000FC
780001F8
7E0001F8
FF0007F0
7FE01FF0
3FFFFFE0
1FFFFFC0
07FFFF00
01FFFE00
003FF000
00000000
00000000
00000000
000F0000
000FC000
001FF000
0001F000
0000F000
0000F000
0000F000
0003F000
007FE000
007F8000
007C0000
ENDCHAR
STARTCHAR 0219
ENCODING 537
SWIDTH 420 0
DWIDTH 28 0
BBX 24 48 2 -15
BITMAP
007F00
03FFE0
07FFF8
0FFFFC
1FE1FC
3F0078
3E0018
3E0000
7E0000
7E0000
3E0000
3F0000
3F8000
1FE000
0FFC00
07FF80
03FFE0
00FFF0
001FFC
0007FC
0000FE
00007E
00003F
00003F
00001F
00003F
20003F
78003E
7E007E
FFC3FC
7FFFF8
1FFFF0
07FFE0
00FF00
000000
000000
000000
003800
003F00
007F80
0007C0
0003C0
0003C0
0007C0
000F80
01FF00
01FE00
01E000
ENDCHAR
STARTCHAR 021A
ENCODING 538
SWIDTH 540 0
DWIDTH 36 0
BBX 32 59 2 -15
BITMAP
FFFFFFFF
FFFFFFFF
FFFFFFFF
FFFFFFFF
FFFFFFFF
0007E000
0007E000
0007E000
0007E000
0007E000
0007E000
0007E000
0007E000
0007E000
0007E000
0007E000
0007E000
0007E000
0007E000
0007E000
0007E000
0007E000
0007E000
0007E000
0007E000
0007E000
0007E000
0007E000
0007E000
0007E000
0007E000
0007E000
0007E000
0007E000
0007E000
0007E000
0007E000
0007E000
0007E000
0007E000
0007E000
0007E000
0007E000
0007E000
00000000
00000000
00000000
00000000
00070000
0007E000
000FF000
0000F800
00007800
00007800
0000F800
0001F000
003FF000
003FC000
003C0000
ENDCHAR
STARTCHAR 021B
ENCODING 539
SWIDTH 345 0
DWIDTH 23 0
BBX 20 56 2 -15
BITMAP
07C000
07C000
07C000
07C000
07C000
07C000
07C000
07C000
07C000
FFFFE0
FFFFE0
FFFFE0
FFFFE0
0FC000
0FC000
0FC000
0FC000
0FC000
0FC000
0FC000
0FC000
0FC000
0FC000
0FC000
0FC000
0FC000
0FC000
0FC000
0FC000
0FC000
0FC000
0FC000
0FC000
07C000
07C000
07E000
07F000
03FFE0
03FFE0
01FFE0
00FFF0
003F80
000000
000000
000000
007800
007E00
00FF80
000F80
000780
000780
000780
001F80
03FF00
03FC00
03E000
ENDCHAR
STARTCHAR 0237
ENCODING 567
SWIDTH 240 0
DWIDTH 16 0
BBX 14 47 -3 -15
BITMAP
007C
007C
007C
007C
007C
007C
007C
007C
007C
007C
007C
007C
007C
007C
007C
007C
007C
007C
007C
007C
007C
007C
007C
007C
007C
007C
007C
007C
007C
007C
007C
007C
007C
007C
007C
007C
007C
007C
00FC
00FC
00FC
01F8
77F8
7FF0
7FF0
FFE0
7F80
ENDCHAR
STARTCHAR 0243
ENCODING 579
SWIDTH 600 0
DWIDTH 40 0
BBX 36 44 2 0
BITMAP
07FFFF0000
07FFFFE000
07FFFFF800
07FFFFFC00
07E003FE00
07E0007F00
07E0003F00
07E0001F80
07E0001F80
07E0000F80
07E0000F80
07E0000F80
07E0000F80
07E0001F80
07E0001F00
07E0003F00
07E0007E00
07E001FC00
07FFFFF000
07FFFFC000
07FFFFF000
07FFFFFE00
07E001FF00
07E0003F80
07E0000FC0
07E00007E0
07E00007E0
07E00003E0
07E00003F0
FFFFF803F0
FFFFF803F0
FFFFF803F0
07E00003F0
07E00003E0
07E00003E0
07E00007E0
07E0000FE0
07E0001FC0
07E0003F80
07E003FF00
07FFFFFE00
07FFFFFC00
07FFFFF000
07FFFF0000
ENDCHAR
STARTCHAR 0250
ENCODING 592
SWIDTH 510 0
DWIDTH 34 0
BBX 25 34 5 -1
BITMAP
0007F000
F83FFC00
F87FFE00
F9FFFF00
FBFCFF80
FFE03F80
FF801F80
FF000F80
FC000F80
F8000F80
F8000F80
F8000F80
F8001F80
F8003F00
F8007E00
F801FE00
F80FF800
F9FFF000
FFFFC000
FFFE0000
FFE00000
F8000000
FC000000
FC000000
FC000000
7C000000
7E000200
7F000700
3F801F00
1FFFFF80
1FFFFF00
0FFFFC00
03FFF000
007F8000
ENDCHAR
STARTCHAR 0251
ENCODING 593
SWIDTH 555 0
DWIDTH 37 0
BBX 29 34 3 -1
BITMAP
001FC000
00FFF0F8
01FFFCF8
03FFFEF8
07FFFFF8
0FF01FF8
1FC007F8
3F8003F8
3F0001F8
3F0001F8
7E0001F8
7E0001F8
7C0001F8
FC0001F8
FC0001F8
FC0001F8
FC0001F8
FC0001F8
FC0001F8
FC0001F8
FC0001F8
FC0001F8
7E0001F8
7E0001F8
7E0001F8
3F0001F8
3F8003F8
3F800FF8
1FE01FF8
0FFFFEF8
07FFFCF8
03FFF8F8
01FFE0F8
003F8000
ENDCHAR
STARTCHAR 0252
ENCODING 594
SWIDTH 555 0
DWIDTH 37 0
BBX 29 34 5 -1
BITMAP
0007F000
F83FFC00
F87FFF00
F9FFFF80
FBFFFFC0
FFE01FC0
FF800FE0
FF0007E0
FE0003F0
FC0003F0
FC0003F0
FC0001F0
FC0001F8
FC0001F8
FC0001F8
FC0001F8
FC0001F8
FC0001F8
FC0001F8
FC0001F8
FC0001F8
FC0001F0
FC0003F0
FC0003F0
FC0007E0
FC0007E0
FE000FE0
FF001FC0
FFC03F80
FFFFFF00
FBFFFF00
F9FFFC00
F87FF800
000FC000
ENDCHAR
STARTCHAR 0253
ENCODING 595
SWIDTH 555 0
DWIDTH 37 0
BBX 29 49 5 -1
BITMAP
00FE0000
03FF8000
0FFF8000
1FFF0000
3FF70000
3F800000
7F000000
7E000000
7E000000
7C000000
7C000000
FC000000
FC000000
FC000000
FC000000
FC07F000
FC3FFC00
FC7FFF00
FDFFFF80
FFFFFFC0
FFE01FC0
FF800FE0
FF0007E0
FE0003F0
FC0003F0
FC0003F0
FC0001F0
FC0001F8
FC0001F8
FC0001F8
FC0001F8
FC0001F8
FC0001F8
FC0001F8
FC0001F8
FC0001F8
FC0001F0
FC0003F0
FC0003F0
FC0007E0
FC0007E0
FE000FE0
FF001FC0
FFC03F80
FFFFFF80
FBFFFF00
F9FFFC00
F87FF800
000FC000
ENDCHAR
STARTCHAR 0254
ENCODING 596
SWIDTH 450 0
DWIDTH 30 0
BBX 25 34 2 -1
BITMAP
01FE0000
0FFF8000
3FFFE000
7FFFF000
7FFFF800
3C03FC00
3001FE00
0000FE00
00007F00
00003F00
00003F00
00001F80
00001F80
00001F80
00001F80
00000F80
00000F80
00000F80
00000F80
00000F80
00001F80
00001F80
00001F80
00003F00
00003F00
00007F00
0000FE00
7001FE00
7803FC00
FFFFF800
FFFFF000
3FFFE000
0FFF8000
03FC0000
ENDCHAR
STARTCHAR 0255
ENCODING 597
SWIDTH 450 0
DWIDTH 30 0
BBX 26 38 3 -5
BITMAP
000FE000
007FFC00
01FFFF00
03FFFF80
07FC7F80
0FE00F00
1FC00200
1F800000
3F000000
7E000000
7E000000
7C000000
7C000000
FC000000
FC000000
FC000000
F8000000
F8000000
FC000000
FC01F800
FC07FE00
7C1FFF80
7C3FFF80
7E7F0FC0
7EFC07C0
3FF807C0
3FF007C0
1FE007C0
0FF00F80
0FFE7F80
1FFFFF00
1FFFFE00
3E7FFC00
3E0FE000
7C000000
7C000000
3C000000
08000000
ENDCHAR
STARTCHAR 0256
ENCODING 598
SWIDTH 555 0
DWIDTH 37 0
BBX 35 60 3 -12
BITMAP
000001F800
000001F800
000001F800
000001F800
000001F800
000001F800
000001F800
000001F800
000001F800
000001F800
000001F800
000001F800
000001F800
000001F800
000001F800
001FC1F800
00FFF1F800
01FFFDF800
03FFFFF800
07FFFFF800
0FF01FF800
1FC007F800
3F8003F800
3F0001F800
3F0001F800
7E0001F800
7E0001F800
7C0001F800
FC0001F800
FC0001F800
FC0001F800
FC0001F800
FC0001F800
FC0001F800
FC0001F800
FC0001F800
FC0001F800
7E0001F800
7E0001F800
7E0001F800
3F0001F800
3F8003F800
3F800FF800
1FE01FF800
0FFFFFF800
07FFFDF800
03FFF9F800
01FFE1F800
003F81F800
000001F800
000001F800
000001F800
000001F800
000001F800
000000F800
000000FC00
000000FFE0
0000007FE0
0000003FE0
0000001FE0
ENDCHAR
STARTCHAR 0257
ENCODING 599
SWIDTH 555 0
DWIDTH 37 0
BBX 35 50 3 -1
BITMAP
00000003C0
0000001FE0
0000003FE0
0000007FE0
000000FFE0
000000FE00
000000FC00
000001F800
000001F800
000001F800
000001F800
000001F800
000001F800
000001F800
000001F800
000001F800
001FC1F800
00FFF1F800
01FFFDF800
03FFFFF800
07FFFFF800
0FF01FF800
1FC007F800
3F8003F800
3F0001F800
3F0001F800
7E0001F800
7E0001F800
7C0001F800
FC0001F800
FC0001F800
FC0001F800
FC0001F800
FC0001F800
FC0001F800
FC0001F800
FC0001F800
FC0001F800
7E0001F800
7E0001F800
7E0001F800
3F0001F800
3F8003F800
3F800FF800
1FE01FF800
0FFFFEF800
07FFFCF800
03FFF8F800
01FFE0F800
003F800000
ENDCHAR
STARTCHAR 0258
ENCODING 600
SWIDTH 495 0
DWIDTH 33 0
BBX 28 34 2 -1
BITMAP
003FC000
00FFF000
03FFFC00
07FFFE00
0FF1FF00
1F803F80
1F001F80
3E000FC0
3E0007C0
7C0007E0
7C0003E0
7C0003E0
780003F0
780001F0
FFFFFFF0
FFFFFFF0
7FFFFFF0
7FFFFFF0
000001F0
000003F0
000003F0
000003F0
000003E0
000007E0
000007E0
00000FC0
00000FC0
18001F80
1E007F00
3FE7FF00
3FFFFE00
1FFFF800
07FFF000
00FF8000
ENDCHAR
STARTCHAR 0259
ENCODING 601
SWIDTH 495 0
DWIDTH 33 0
BBX 28 34 2 -1
BITMAP
007FC000
03FFF000
0FFFFC00
1FFFFE00
1FE3FF00
0E003F80
08001F80
00000FC0
000007C0
000007E0
000003E0
000003E0
000003F0
000003F0
000003F0
7FFFFFF0
7FFFFFF0
FFFFFFF0
FFFFFFF0
F80001F0
780003F0
7C0003F0
7C0003E0
7C0003E0
7C0007E0
3E0007C0
3E000FC0
1F001F80
1F803F80
0FF9FF00
07FFFE00
03FFFC00
01FFF000
003F8000
ENDCHAR
STARTCHAR 025A
ENCODING 602
SWIDTH 645 0
DWIDTH 43 0
BBX 42 34 2 -1
BITMAP
007F80000000
03FFF0000000
0FFFFC000000
1FFFFE000000
1FE3FF000000
0E003F800000
0C001F800000
00000FC18000
000007C7E000
000007FFE000
000003FFE000
000003FFF000
00001FF8F000
00007FF0F000
0003FFF07FC0
000FFDF07FC0
007FF1F03FC0
01FF81F00F00
07FE01F00000
3FF001F00000
FFC001F00000
7E0001F00000
7C0003E00000
7C0003E00000
7C0003E00000
3E0007E00000
3E000FC00000
1F000FC00000
1FC03F800000
0FF8FF000000
07FFFE000000
03FFFC000000
00FFF0000000
001FC0000000
ENDCHAR
STARTCHAR 025B
ENCODING 603
SWIDTH 435 0
DWIDTH 29 0
BBX 25 34 3 -1
BITMAP
003FC000
01FFF800
07FFFE00
0FFFFE00
1FF8FE00
1FC01C00
3F000400
3F000000
3F000000
3F000000
3F000000
1F000000
1F800000
0FE00000
07FFE000
01FFE000
03FFE000
0FFFE000
1FC00000
3F000000
7E000000
7C000000
FC000000
FC000000
FC000000
FC000000
7E000000
7F000600
3F801F00
3FF8FF00
1FFFFF80
0FFFFE00
03FFF800
007FC000
ENDCHAR
STARTCHAR 025C
ENCODING 604
SWIDTH 450 0
DWIDTH 30 0
BBX 24 34 3 -1
BITMAP
01FE00
0FFFC0
3FFFF0
7FFFF8
3F8FF8
3801FC
0000FC
00007C
00007C
00007C
00007C
0000FC
0001F8
0007F0
03FFE0
03FF80
03FFE0
03FFF8
0003FC
0000FE
00003E
00003F
00003F
00001F
00001F
00003F
00003F
60007E
7800FE
FF9FFC
FFFFF8
7FFFF0
1FFFC0
03FE00
ENDCHAR
STARTCHAR 025E
ENCODING 606
SWIDTH 540 0
DWIDTH 36 0
BBX 30 34 3 -1
BITMAP
003FE000
01FFFC00
07FFFE00
0FFFFF80
1FF8FFC0
1FC01FE0
3F0007F0
3F0003F0
3F0001F8
3F0001F8
3F0000FC
1F0000FC
1F8000FC
0FE000FC
07FF807C
01FF807C
03FF807C
0FFF807C
1FC0007C
3F00007C
7E0000FC
7C0000FC
FC0000FC
FC0000F8
FC0001F8
FC0001F8
7E0003F0
7F0007E0
3F801FE0
3FF8FFC0
1FFFFF80
07FFFE00
03FFFC00
007FE000
ENDCHAR
STARTCHAR 025F
ENCODING 607
SWIDTH 270 0
DWIDTH 18 0
BBX 19 47 -2 -15
BITMAP
00FC00
00FC00
00FC00
00FC00
00FC00
00FC00
00FC00
00FC00
00FC00
00FC00
00FC00
00FC00
00FC00
00FC00
1FFFE0
1FFFE0
1FFFE0
00FC00
00FC00
00FC00
00FC00
00FC00
00FC00
00FC00
00FC00
00FC00
00FC00
00FC00
00FC00
00FC00
00FC00
00FC00
00FC00
00FC00
00FC00
00FC00
00FC00
00FC00
00FC00
00FC00
00F800
01F800
7FF800
7FF000
7FE000
FFC000
7F0000
ENDCHAR
STARTCHAR 0260
ENCODING 608
SWIDTH 555 0
DWIDTH 37 0
BBX 36 56 3 -15
BITMAP
0000000FF0
0000003FE0
0000007FE0
0000007FE0
000000FE00
000000FC00
000000F800
000001F800
001FC1F800
007FF1F800
01FFFDF800
03FFFFF800
07FFFFF800
0FF01FF800
1FC007F800
1F8001F800
3F0001F800
3F0001F800
7E0001F800
7E0001F800
7C0001F800
7C0001F800
FC0001F800
FC0001F800
FC0001F800
FC0001F800
FC0001F800
FC0001F800
7C0001F800
7E0001F800
7E0001F800
7E0001F800
3F0001F800
3F8003F800
1F800FF800
1FE01FF800
0FFFFFF800
07FFFDF800
03FFF9F800
01FFE1F800
003F81F800
000001F800
000001F800
000001F800
000001F800
000001F000
000001F000
000003F000
000003F000
0C0007E000
0F801FE000
1FF8FFC000
1FFFFF8000
0FFFFF0000
01FFFC0000
003FE00000
ENDCHAR
STARTCHAR 0261
ENCODING 609
SWIDTH 555 0
DWIDTH 37 0
BBX 29 48 3 -15
BITMAP
001FC000
007FF0F8
01FFFCF8
03FFFEF8
07FFFFF8
0FF01FF8
1FC007F8
1F8001F8
3F0001F8
3F0001F8
7E0001F8
7E0001F8
7C0001F8
7C0001F8
FC0001F8
FC0001F8
FC0001F8
FC0001F8
FC0001F8
FC0001F8
7C0001F8
7E0001F8
7E0001F8
7E0001F8
3F0001F8
3F8003F8
1F800FF8
1FE01FF8
0FFFFFF8
07FFFDF8
03FFF9F8
01FFE1F8
003F81F8
000001F8
000001F8
000001F8
000001F8
000001F0
000001F0
000003F0
000003F0
0C0007E0
0F801FE0
1FF8FFC0
1FFFFF80
0FFFFF00
01FFFC00
003FE000
ENDCHAR
STARTCHAR 0262
ENCODING 610
SWIDTH 495 0
DWIDTH 33 0
BBX 27 34 3 -1
BITMAP
000FF000
007FFE00
01FFFF00
03FFFFC0
07FE3FC0
0FE00780
1FC00300
1F800000
3F000000
3E000000
7E000000
7E000000
7C000000
FC000000
FC000000
FC000000
FC01FFE0
FC01FFE0
FC01FFE0
FC01FFE0
FC0003E0
FC0003E0
7C0003E0
7E0003E0
7E0003E0
3F0003E0
3F8003E0
1FC003E0
0FE007E0
0FFE3FE0
07FFFFC0
01FFFF80
007FFE00
001FF000
ENDCHAR
STARTCHAR 0263
ENCODING 611
SWIDTH 465 0
DWIDTH 31 0
BBX 29 47 1 -15
BITMAP
FC0000F8
FC0001F8
7C0001F0
7E0001F0
3E0003E0
3F0003E0
3F0007E0
1F0007C0
1F8007C0
0F800FC0
0F800F80
0FC00F80
07C01F00
07C01F00
03E01F00
03E03E00
03E03E00
01F03C00
01F07C00
00F87C00
00F87800
00F8F800
007CF800
007DF000
007DF000
003FE000
003FE000
001FE000
001FC000
001FE000
003FE000
003DF000
007DF000
007CF800
00F8F800
00F87800
00F87C00
00F07C00
01F07C00
01F07C00
01F07C00
00F07C00
00F8FC00
00FFF800
007FF000
003FE000
000FC000
ENDCHAR
STARTCHAR 0264
ENCODING 612
SWIDTH 510 0
DWIDTH 34 0
BBX 32 34 1 -1
BITMAP
3F8000FC
FFE007FF
FFF80FFF
7FFC3FFE
7FFE7FFE
00FFFF00
003FFC00
001FF800
000FF000
000FF000
001FF800
003FFC00
007E7E00
00FC3F00
00F81F80
01F80F80
03F00FC0
03E007C0
07E007E0
07C003E0
07C003E0
07C003F0
0FC003F0
0FC003F0
07C003F0
07C003E0
07E003E0
07E007E0
03F80FC0
03FFFFC0
01FFFF80
00FFFF00
007FFE00
000FF000
ENDCHAR
STARTCHAR 0265
ENCODING 613
SWIDTH 540 0
DWIDTH 36 0
BBX 26 46 5 -14
BITMAP
FC000FC0
FC000FC0
FC000FC0
FC000FC0
FC000FC0
FC000FC0
FC000FC0
FC000FC0
FC000FC0
FC000FC0
FC000FC0
FC000FC0
FC000FC0
FC000FC0
FC000FC0
FC000FC0
FC000FC0
FC000FC0
FC000FC0
FC000FC0
FC000FC0
FC000FC0
FC000FC0
FC000FC0
FC001FC0
7E003FC0
7E007FC0
7F01FFC0
3FFFF7C0
3FFFC7C0
1FFF87C0
0FFF07C0
03F807C0
00000FC0
00000FC0
00000FC0
00000FC0
00000FC0
00000FC0
00000FC0
00000FC0
00000FC0
00000FC0
00000FC0
00000FC0
00000FC0
ENDCHAR
STARTCHAR 0266
ENCODING 614
SWIDTH 540 0
DWIDTH 36 0
BBX 26 48 5 0
BITMAP
00FE0000
03FF8000
0FFF8000
1FFF0000
3FF70000
3F800000
7F000000
7E000000
7E000000
7C000000
7C000000
FC000000
FC000000
FC000000
FC000000
FC07F000
FC1FFC00
FC7FFE00
FCFFFF00
FDFFFF80
FFE03F80
FFC01FC0
FF000FC0
FE000FC0
FC0007C0
FC0007C0
FC0007C0
FC0007C0
FC0007C0
FC0007C0
FC0007C0
FC0007C0
FC0007C0
FC0007C0
FC0007C0
FC0007C0
FC0007C0
FC0007C0
FC0007C0
FC0007C0
FC0007C0
FC0007C0
FC0007C0
FC0007C0
FC0007C0
FC0007C0
FC0007C0
FC0007C0
ENDCHAR
STARTCHAR 0267
ENCODING 615
SWIDTH 540 0
DWIDTH 36 0
BBX 26 60 5 -12
BITMAP
00FE0000
03FF8000
0FFF8000
1FFF0000
3FF70000
3F800000
7F000000
7E000000
7E000000
7C000000
7C000000
FC000000
FC000000
FC000000
FC000000
FC07F000
FC1FFC00
FC7FFE00
FCFFFF00
FDFFFF80
FFE03F80
FFC01FC0
FF000FC0
FE000FC0
FC0007C0
FC0007C0
FC0007C0
FC0007C0
FC0007C0
FC0007C0
FC0007C0
FC0007C0
FC0007C0
FC0007C0
FC0007C0
FC0007C0
FC0007C0
FC0007C0
FC0007C0
FC0007C0
FC0007C0
FC0007C0
FC0007C0
FC0007C0
FC0007C0
FC0007C0
FC0007C0
FC0007C0
000007C0
000007C0
000007C0
000007C0
000007C0
00000FC0
00000FC0
0003FF80
0007FF80
0007FF00
0007FE00
0003F800
ENDCHAR
STARTCHAR 0268
ENCODING 616
SWIDTH 270 0
DWIDTH 18 0
BBX 16 46 1 0
BITMAP
03C0
07E0
0FF0
0FF0
0FF0
07E0
03C0
0000
0000
0000
0000
0000
0000
0000
07E0
07E0
07E0
07E0
07E0
07E0
07E0
07E0
07E0
07E0
07E0
07E0
07E0
07E0
FFFF
FFFF
FFFF
07E0
07E0
07E0
07E0
07E0
07E0
07E0
07E0
07E0
07E0
07E0
07E0
07E0
07E0
07E0
ENDCHAR
STARTCHAR 026A
ENCODING 618
SWIDTH 345 0
DWIDTH 23 0
BBX 17 32 3 0
BITMAP
FFFF80
FFFF80
FFFF80
FFFF80
03E000
03E000
03E000
03E000
03E000
03E000
03E000
03E000
03E000
03E000
03E000
03E000
03E000
03E000
03E000
03E000
03E000
03E000
03E000
03E000
03E000
03E000
03E000
03E000
FFFF80
FFFF80
FFFF80
FFFF80
ENDCHAR
STARTCHAR 026C
ENCODING 620
SWIDTH 300 0
DWIDTH 20 0
BBX 20 48 0 -1
BITMAP
007C00
007C00
007C00
007C00
007C00
007C00
007C00
007C00
007C00
007C00
007C00
007C00
007C00
007C00
007C00
1F7C00
7FFC00
FFFC00
F1FC00
E0FC00
E0FC00
F07C00
F87C00
7FFFF0
3FFFF0
0FFFF0
007C00
007C00
007C00
007C00
007C00
007C00
007C00
007C00
007C00
007C00
007C00
007C00
007C00
007C00
007C00
007C00
007C00
007F80
007F80
003F80
003F80
000FC0
ENDCHAR
STARTCHAR 026D
ENCODING 621
SWIDTH 255 0
DWIDTH 17 0
BBX 13 60 5 -12
BITMAP
FC00
FC00
FC00
FC00
FC00
FC00
FC00
FC00
FC00
FC00
FC00
FC00
FC00
FC00
FC00
FC00
FC00
FC00
FC00
FC00
FC00
FC00
FC00
FC00
FC00
FC00
FC00
FC00
FC00
FC00
FC00
FC00
FC00
FC00
FC00
FC00
FC00
FC00
FC00
FC00
FC00
FC00
FC00
FC00
FC00
FC00
FC00
FC00
FC00
FC00
FC00
7C00
7C00
7C00
7E00
7FB0
3FF0
1FF0
0FF8
07F0
ENDCHAR
STARTCHAR 026E
ENCODING 622
SWIDTH 570 0
DWIDTH 38 0
BBX 32 62 5 -15
BITMAP
FC000000
FC000000
FC000000
FC000000
FC000000
FC000000
FC000000
FC000000
FC000000
FC000000
FC000000
FC000000
FC000000
FC000000
FC000000
FFFFFFFE
FFFFFFFE
FFFFFFFE
FFFFFFFC
FC0000FC
FC0001F8
FC0001F0
FC0003E0
FC0007E0
FC000FC0
FC000F80
FC001F00
FC003F00
FC007E00
FC007C00
FC00F800
FC01F800
FC03F000
FC03E000
FC07E000
FC0FFF80
FC1FFFE0
FC0FFFF0
FC07FFF8
FC0403FC
FC0000FE
FC00007E
FC00007E
FC00003F
FC00003F
FC00003F
FC00001F
FC00001F
0000001F
0000001F
0000003F
0000003F
0000003E
0000007E
01C000FE
03E001FC
03F803F8
03FFFFF8
01FFFFF0
007FFFC0
001FFF80
0003FC00
ENDCHAR
STARTCHAR 026F
ENCODING 623
SWIDTH 825 0
DWIDTH 55 0
BBX 45 33 5 -1
BITMAP
FC000F8001F8
FC000F8001F8
FC000F8001F8
FC000F8001F8
FC000F8001F8
FC000F8001F8
FC000F8001F8
FC000F8001F8
FC000F8001F8
FC000F8001F8
FC000F8001F8
FC000F8001F8
FC000F8001F8
FC000F8001F8
FC000F8001F8
FC000F8001F8
FC000F8001F8
FC000F8001F8
FC000F8001F8
FC000F8001F8
FC000F8001F8
FC000F8001F8
FC000F8001F8
FC000FC001F8
FC001FC003F8
7E003FC007F8
7E00FFE00FF8
7F81F7F03FF8
3FFFE7FFFEF8
3FFFC3FFFCF8
1FFF81FFF0F8
0FFE00FFE0F8
03F8003F8000
ENDCHAR
STARTCHAR 0270
ENCODING 624
SWIDTH 825 0
DWIDTH 55 0
BBX 45 46 5 -14
BITMAP
FC000F8001F8
FC000F8001F8
FC000F8001F8
FC000F8001F8
FC000F8001F8
FC000F8001F8
FC000F8001F8
FC000F8001F8
FC000F8001F8
FC000F8001F8
FC000F8001F8
FC000F8001F8
FC000F8001F8
FC000F8001F8
FC000F8001F8
FC000F8001F8
FC000F8001F8
FC000F8001F8
FC000F8001F8
FC000F8001F8
FC000F8001F8
FC000F8001F8
FC000F8001F8
FC000FC001F8
FC001FC003F8
7E003FC007F8
7E00FFE00FF8
7F81F7F03FF8
3FFFE7FFFEF8
3FFFC3FFFCF8
1FFF81FFF0F8
0FFE00FFE0F8
03F8003F81F8
0000000001F8
0000000001F8
0000000001F8
0000000001F8
0000000001F8
0000000001F8
0000000001F8
0000000001F8
0000000001F8
0000000001F8
0000000001F8
0000000001F8
0000000001F8
ENDCHAR
STARTCHAR 0271
ENCODING 625
SWIDTH 825 0
DWIDTH 55 0
BBX 45 45 5 -12
BITMAP
0007E000FE00
F83FF803FF80
F87FFE07FFC0
F8FFFE1FFFE0
F9FFFF3FFFF0
FFE07F7E07F0
FF803FF803F0
FF001FF001F8
FE001FE001F8
FC000FC001F8
FC000FC000F8
FC000FC000F8
FC000FC000F8
FC000FC000F8
FC000FC000F8
FC000FC000F8
FC000FC000F8
FC000FC000F8
FC000FC000F8
FC000FC000F8
FC000FC000F8
FC000FC000F8
FC000FC000F8
FC000FC000F8
FC000FC000F8
FC000FC000F8
FC000FC000F8
FC000FC000F8
FC000FC000F8
FC000FC000F8
FC000FC000F8
FC000FC000F8
FC000FC000F8
0000000000F8
0000000000F8
0000000000F8
0000000000F8
0000000000F8
0000000001F8
0000000001F8
000000007FF0
000000007FF0
00000000FFE0
00000000FFC0
000000007F00
ENDCHAR
STARTCHAR 0272
ENCODING 626
SWIDTH 540 0
DWIDTH 36 0
BBX 32 45 -1 -12
BITMAP
00001FC0
03E07FF0
03E1FFF8
03E3FFFC
03E7FFFE
03FF80FE
03FF007F
03FC003F
03F8003F
03F0001F
03F0001F
03F0001F
03F0001F
03F0001F
03F0001F
03F0001F
03F0001F
03F0001F
03F0001F
03F0001F
03F0001F
03F0001F
03F0001F
03F0001F
03F0001F
03F0001F
03F0001F
03F0001F
03F0001F
03F0001F
03F0001F
03F0001F
03F0001F
03F00000
03F00000
03F00000
03F00000
03F00000
03F00000
07E00000
7FE00000
FFE00000
FFC00000
FF800000
FE000000
ENDCHAR
STARTCHAR 0273
ENCODING 627
SWIDTH 540 0
DWIDTH 36 0
BBX 33 45 5 -12
BITMAP
0007F00000
F81FFC0000
F87FFE0000
F8FFFF0000
F9FFFF8000
FFE03F8000
FFC01FC000
FF000FC000
FE000FC000
FC0007C000
FC0007C000
FC0007C000
FC0007C000
FC0007C000
FC0007C000
FC0007C000
FC0007C000
FC0007C000
FC0007C000
FC0007C000
FC0007C000
FC0007C000
FC0007C000
FC0007C000
FC0007C000
FC0007C000
FC0007C000
FC0007C000
FC0007C000
FC0007C000
FC0007C000
FC0007C000
FC0007C000
000007C000
000007C000
000007C000
000007E000
000007E000
000007E000
000007E000
000003FF00
000003FF80
000001FF80
000000FF80
0000003F00
ENDCHAR
ENDFONT
